<svg id="CONTENTS" xmlns="http://www.w3.org/2000/svg" viewBox="0 0 1214 941">
    <title>V2-changes</title>
    <path d="M132.87,840.24a4,4,0,0,0,3,1.22,4.07,4.07,0,0,0,3-1.19c1-1,1.17-2.11,1.17-4.55H136.8a1.35,1.35,0,0,1-.79-0.14,0.82,0.82,0,0,1,0-1.34,1.35,1.35,0,0,1,.79-0.14h3.83a0.94,0.94,0,0,1,1.12,1.12v0.31c0,3.12-.28,4.47-1.69,5.88a5.76,5.76,0,0,1-4.23,1.69,5.87,5.87,0,0,1-4.26-1.68c-1.63-1.62-1.74-3.08-1.74-7s0.12-5.37,1.74-7a5.82,5.82,0,0,1,4.25-1.68,5.54,5.54,0,0,1,4.58,2.05,4.59,4.59,0,0,1,1.09,2.48,0.87,0.87,0,0,1-.24.67,0.84,0.84,0,0,1-.61.24,0.82,0.82,0,0,1-.56-0.19,1.74,1.74,0,0,1-.43-0.77,3.85,3.85,0,0,0-3.84-2.85,4,4,0,0,0-2.93,1.22c-1.09,1.12-1.2,2.38-1.2,5.83S131.8,839.14,132.87,840.24Z"
          style="fill:#fff"/>
    <path d="M146.71,825.53a1.19,1.19,0,1,1-1.19,1.19A1.18,1.18,0,0,1,146.71,825.53Zm0.88,16.33a1.32,1.32,0,0,1-.16.8,0.88,0.88,0,0,1-1.44,0,1.33,1.33,0,0,1-.16-0.8v-9.64a1.33,1.33,0,0,1,.16-0.8,0.88,0.88,0,0,1,1.44,0,1.32,1.32,0,0,1,.16.8v9.64Z"
          style="fill:#fff"/>
    <path d="M156.2,842a1.73,1.73,0,0,1-.49.84,1,1,0,0,1-.65.22,1,1,0,0,1-.65-0.22,1.72,1.72,0,0,1-.49-0.84l-3.31-9.57a1.28,1.28,0,0,1-.07-0.85,0.86,0.86,0,0,1,.79-0.52,0.94,0.94,0,0,1,.86.84l2.87,8.59,2.87-8.59a0.94,0.94,0,0,1,.86-0.84,0.86,0.86,0,0,1,.79.52,1.27,1.27,0,0,1-.07.85Z"
          style="fill:#fff"/>
    <path d="M163.31,837.49c0,2.58,1.22,4.09,3.5,4.09a3.87,3.87,0,0,0,2.53-.85,1.23,1.23,0,0,1,.82-0.42,0.79,0.79,0,0,1,.74.76,2.26,2.26,0,0,1-1.22,1.34,5.86,5.86,0,0,1-2.94.68c-3.13,0-5.17-1.87-5.17-6,0-3.9,1.9-6,4.87-6s4.82,2.18,4.84,5.47a1.07,1.07,0,0,1-.24.79,1,1,0,0,1-.77.23h-7Zm6.26-1.32a4.92,4.92,0,0,0-.37-1.92,3,3,0,0,0-5.52,0,4.92,4.92,0,0,0-.37,1.92h6.26Z"
          style="fill:#fff"/>
    <path d="M183,839.72a1.47,1.47,0,0,0,1.56,1.71,1.48,1.48,0,0,1,.78.14,0.74,0.74,0,0,1,0,1.22,1.48,1.48,0,0,1-.78.14h-0.31a2.88,2.88,0,0,1-3-3.17v-7.29h-0.83a1.09,1.09,0,0,1-.64-0.12,0.67,0.67,0,0,1,0-1.1,1.09,1.09,0,0,1,.64-0.12h0.83v-2.53a1.33,1.33,0,0,1,.16-0.8,0.88,0.88,0,0,1,1.44,0,1.32,1.32,0,0,1,.16.8v2.53h1.74a1.09,1.09,0,0,1,.64.12,0.67,0.67,0,0,1,0,1.1,1.09,1.09,0,0,1-.64.12H183v7.23Z"
          style="fill:#fff"/>
    <path d="M190.57,842.67a0.88,0.88,0,0,1-1.44,0,1.32,1.32,0,0,1-.16-0.8V826.95a1.32,1.32,0,0,1,.16-0.8,0.88,0.88,0,0,1,1.44,0,1.33,1.33,0,0,1,.16.8v5.49A4.25,4.25,0,0,1,194,831c2.7,0,4.27,1.7,4.27,4.37v6.5a1.33,1.33,0,0,1-.16.8,0.88,0.88,0,0,1-1.44,0,1.32,1.32,0,0,1-.16-0.8v-6.21c0-2.07-1.08-3.09-2.88-3.09s-3,1-3,3.09v6.21A1.33,1.33,0,0,1,190.57,842.67Z"
          style="fill:#fff"/>
    <path d="M203.6,837.49c0,2.58,1.22,4.09,3.5,4.09a3.87,3.87,0,0,0,2.53-.85,1.23,1.23,0,0,1,.82-0.42,0.79,0.79,0,0,1,.74.76,2.26,2.26,0,0,1-1.22,1.34,5.86,5.86,0,0,1-2.94.68c-3.13,0-5.17-1.87-5.17-6,0-3.9,1.89-6,4.87-6s4.82,2.18,4.85,5.47a1.07,1.07,0,0,1-.24.79,1,1,0,0,1-.77.23h-7Zm6.26-1.32a4.94,4.94,0,0,0-.37-1.92,3,3,0,0,0-5.52,0,4.92,4.92,0,0,0-.37,1.92h6.26Z"
          style="fill:#fff"/>
    <path d="M225.16,841.75a2.05,2.05,0,0,1-.54,1.06,1.08,1.08,0,0,1-1.36,0,2.05,2.05,0,0,1-.54-1.06l-2.78-9.33a1.4,1.4,0,0,1-.07-0.8,0.84,0.84,0,0,1,.8-0.56,0.78,0.78,0,0,1,.55.24,1.53,1.53,0,0,1,.31.67l2.46,8.59,2.47-8.25a2.07,2.07,0,0,1,.53-1,1,1,0,0,1,1.3,0,2.07,2.07,0,0,1,.53,1l2.47,8.25,2.46-8.59a1.52,1.52,0,0,1,.31-0.67,0.77,0.77,0,0,1,.55-0.24,0.84,0.84,0,0,1,.8.56,1.41,1.41,0,0,1-.07.8l-2.78,9.33a2,2,0,0,1-.54,1.06,1.08,1.08,0,0,1-1.36,0,2.05,2.05,0,0,1-.54-1.06l-2.48-8.14Z"
          style="fill:#fff"/>
    <path d="M239.31,837.49c0,2.58,1.22,4.09,3.5,4.09a3.87,3.87,0,0,0,2.53-.85,1.24,1.24,0,0,1,.82-0.42,0.79,0.79,0,0,1,.74.76,2.26,2.26,0,0,1-1.22,1.34,5.85,5.85,0,0,1-2.94.68c-3.13,0-5.17-1.87-5.17-6,0-3.9,1.9-6,4.87-6s4.82,2.18,4.85,5.47a1.07,1.07,0,0,1-.24.79,1,1,0,0,1-.77.23h-7Zm6.26-1.32a4.94,4.94,0,0,0-.37-1.92,3,3,0,0,0-5.52,0,4.94,4.94,0,0,0-.37,1.92h6.26Z"
          style="fill:#fff"/>
    <path d="M258.89,842.06a4.07,4.07,0,0,1-2.88,1,3.78,3.78,0,0,1-3.33-1.56v0.34a1.33,1.33,0,0,1-.16.8,0.88,0.88,0,0,1-1.44,0,1.33,1.33,0,0,1-.16-0.8V826.95a1.33,1.33,0,0,1,.16-0.8,0.88,0.88,0,0,1,1.44,0,1.33,1.33,0,0,1,.16.8v5.57A3.82,3.82,0,0,1,256,831a4.07,4.07,0,0,1,2.88,1c1.2,1.2,1.46,3.12,1.46,5S260.09,840.86,258.89,842.06Zm-3.25-9.5c-2.58,0-3,2.18-3,4.49s0.38,4.49,3,4.49,3-2.18,3-4.49S258.22,832.56,255.64,832.56Z"
          style="fill:#fff"/>
    <path d="M263.06,841.15a0.85,0.85,0,0,1,.28-0.6,0.74,0.74,0,0,1,.5-0.18,1.42,1.42,0,0,1,.79.34,5,5,0,0,0,3.11.89c2,0,3.14-.68,3.14-2.07,0-1.06-.62-1.6-2-1.71l-1.94-.18c-2.29-.2-3.53-1.22-3.53-3.17,0-2.15,1.81-3.47,4.34-3.47a7.09,7.09,0,0,1,3.3.74,1.58,1.58,0,0,1,.59.43,0.69,0.69,0,0,1,.13.44,0.83,0.83,0,0,1-.19.47,0.72,0.72,0,0,1-.55.25,1.39,1.39,0,0,1-.66-0.23,5.54,5.54,0,0,0-2.64-.64c-1.68,0-2.64.7-2.64,1.94,0,1.07.66,1.57,2.08,1.7l1.9,0.18c2.07,0.19,3.48,1,3.48,3.2s-2,3.6-4.81,3.6a6.79,6.79,0,0,1-4.12-1.13A1.06,1.06,0,0,1,263.06,841.15Z"
          style="fill:#fff"/>
    <path d="M276.9,825.53a1.19,1.19,0,1,1-1.19,1.19A1.18,1.18,0,0,1,276.9,825.53Zm0.88,16.33a1.33,1.33,0,0,1-.16.8,0.88,0.88,0,0,1-1.44,0,1.32,1.32,0,0,1-.16-0.8v-9.64a1.32,1.32,0,0,1,.16-0.8,0.88,0.88,0,0,1,1.44,0,1.33,1.33,0,0,1,.16.8v9.64Z"
          style="fill:#fff"/>
    <path d="M284.3,839.72a1.46,1.46,0,0,0,1.56,1.71,1.49,1.49,0,0,1,.78.14,0.74,0.74,0,0,1,0,1.22,1.49,1.49,0,0,1-.78.14h-0.31a2.88,2.88,0,0,1-3-3.17v-7.29h-0.83a1.08,1.08,0,0,1-.63-0.12,0.67,0.67,0,0,1,0-1.1,1.08,1.08,0,0,1,.63-0.12h0.83v-2.53a1.32,1.32,0,0,1,.16-0.8,0.88,0.88,0,0,1,1.44,0,1.33,1.33,0,0,1,.16.8v2.53H286a1.08,1.08,0,0,1,.63.12,0.67,0.67,0,0,1,0,1.1,1.08,1.08,0,0,1-.63.12H284.3v7.23Z"
          style="fill:#fff"/>
    <path d="M291.21,837.49c0,2.58,1.22,4.09,3.5,4.09a3.87,3.87,0,0,0,2.53-.85,1.23,1.23,0,0,1,.82-0.42,0.79,0.79,0,0,1,.74.76,2.26,2.26,0,0,1-1.22,1.34,5.86,5.86,0,0,1-2.94.68c-3.13,0-5.17-1.87-5.17-6,0-3.9,1.9-6,4.87-6s4.82,2.18,4.84,5.47a1.07,1.07,0,0,1-.24.79,1,1,0,0,1-.77.23h-7Zm6.26-1.32a4.92,4.92,0,0,0-.37-1.92,3,3,0,0,0-5.52,0,4.92,4.92,0,0,0-.37,1.92h6.26Z"
          style="fill:#fff"/>
    <path d="M311.9,836.18h3.57v-1c0-1.8-.84-2.72-2.9-2.72a3.49,3.49,0,0,0-2.67,1,1.11,1.11,0,0,1-.73.31,0.73,0.73,0,0,1-.53-0.22,0.77,0.77,0,0,1-.21-0.55,2,2,0,0,1,1.13-1.32,5.33,5.33,0,0,1,3-.77c3,0,4.63,1.37,4.63,3.95v6.92a1.33,1.33,0,0,1-.16.8,0.88,0.88,0,0,1-1.44,0,1.33,1.33,0,0,1-.16-0.8v0a4.23,4.23,0,0,1-3.38,1.25,4.31,4.31,0,0,1-3.36-1.08,3.47,3.47,0,0,1-.9-2.41C307.82,837.52,309.33,836.18,311.9,836.18Zm0.36,5.43a3.43,3.43,0,0,0,2.6-.8,2.73,2.73,0,0,0,.61-2.05V837.5h-3.38c-1.69,0-2.55.73-2.55,2.09S310.42,841.61,312.26,841.61Z"
          style="fill:#fff"/>
    <path d="M332,831a4.25,4.25,0,0,1,2.88,1,1.5,1.5,0,0,1,.84,1.12,0.8,0.8,0,0,1-.79.78,1.36,1.36,0,0,1-.84-0.46,2.91,2.91,0,0,0-2.09-.85,3.13,3.13,0,0,0-2.7,1.31,6.94,6.94,0,0,0,0,6.34,3.14,3.14,0,0,0,2.7,1.32,2.86,2.86,0,0,0,2.09-.85,1.47,1.47,0,0,1,.84-0.46,0.8,0.8,0,0,1,.54.22,0.82,0.82,0,0,1,.25.56,1.58,1.58,0,0,1-.84,1.13,4.34,4.34,0,0,1-2.88,1c-3,0-5.22-2-5.22-6S329,831,332,831Z"
          style="fill:#fff"/>
    <path d="M339,832.22a1.38,1.38,0,0,1,.16-0.8,0.85,0.85,0,0,1,.72-0.37,0.83,0.83,0,0,1,.72.37,1.37,1.37,0,0,1,.16.8v6.16c0,2.1,1.09,3.14,2.89,3.14s3-1.07,3-3.14v-6.16a1.38,1.38,0,0,1,.16-0.8,0.88,0.88,0,0,1,1.44,0,1.37,1.37,0,0,1,.16.8v9.64a1.32,1.32,0,0,1-.16.8,0.88,0.88,0,0,1-1.44,0,1.33,1.33,0,0,1-.16-0.8v-0.22a4.33,4.33,0,0,1-3.31,1.44,4.22,4.22,0,0,1-3.06-1.1,4.39,4.39,0,0,1-1.22-3.3v-6.46Z"
          style="fill:#fff"/>
    <path d="M351.7,841.15a0.85,0.85,0,0,1,.28-0.6,0.74,0.74,0,0,1,.5-0.18,1.42,1.42,0,0,1,.79.34,5,5,0,0,0,3.11.89c2,0,3.14-.68,3.14-2.07,0-1.06-.62-1.6-2-1.71l-1.94-.18c-2.29-.2-3.53-1.22-3.53-3.17,0-2.15,1.81-3.47,4.34-3.47a7.09,7.09,0,0,1,3.3.74,1.58,1.58,0,0,1,.59.43,0.69,0.69,0,0,1,.13.44,0.83,0.83,0,0,1-.19.47,0.72,0.72,0,0,1-.55.25,1.39,1.39,0,0,1-.66-0.23,5.54,5.54,0,0,0-2.64-.64c-1.68,0-2.64.7-2.64,1.94,0,1.07.66,1.57,2.08,1.7l1.9,0.18c2.07,0.19,3.48,1,3.48,3.2s-2,3.6-4.81,3.6a6.79,6.79,0,0,1-4.12-1.13A1.06,1.06,0,0,1,351.7,841.15Z"
          style="fill:#fff"/>
    <path d="M366.48,839.72a1.47,1.47,0,0,0,1.56,1.71,1.49,1.49,0,0,1,.78.14,0.74,0.74,0,0,1,0,1.22,1.49,1.49,0,0,1-.78.14h-0.31a2.88,2.88,0,0,1-3-3.17v-7.29H363.9a1.08,1.08,0,0,1-.64-0.12,0.67,0.67,0,0,1,0-1.1,1.08,1.08,0,0,1,.64-0.12h0.83v-2.53a1.33,1.33,0,0,1,.16-0.8,0.88,0.88,0,0,1,1.44,0,1.32,1.32,0,0,1,.16.8v2.53h1.74a1.08,1.08,0,0,1,.64.12,0.67,0.67,0,0,1,0,1.1,1.08,1.08,0,0,1-.64.12h-1.74v7.23Z"
          style="fill:#fff"/>
    <path d="M379.92,832.34c1.22,1.25,1.45,2.88,1.45,4.7s-0.23,3.45-1.45,4.7a5,5,0,0,1-6.79,0c-1.22-1.25-1.45-2.89-1.45-4.7s0.23-3.45,1.45-4.7A5,5,0,0,1,379.92,832.34Zm-1.26,8.33c0.83-.83,1-2.27,1-3.63s-0.13-2.79-1-3.62a3.07,3.07,0,0,0-4.27,0c-0.83.83-1,2.25-1,3.62s0.13,2.81,1,3.63A3.1,3.1,0,0,0,378.66,840.68Z"
          style="fill:#fff"/>
    <path d="M389.79,832.56a2.78,2.78,0,0,0-2.95,3.12v6.19a1.33,1.33,0,0,1-.16.8,0.88,0.88,0,0,1-1.44,0,1.33,1.33,0,0,1-.16-0.8v-9.64a1.33,1.33,0,0,1,.16-0.8,0.88,0.88,0,0,1,1.44,0,1.33,1.33,0,0,1,.16.8v0.22a4.3,4.3,0,0,1,3.33-1.44,3.89,3.89,0,0,1,3.62,2,4.52,4.52,0,0,1,3.89-2,4.3,4.3,0,0,1,3,1.1,4.36,4.36,0,0,1,1.3,3.29v6.48a1.33,1.33,0,0,1-.16.8,0.88,0.88,0,0,1-1.44,0,1.33,1.33,0,0,1-.16-0.8v-6.19c0-2.08-1.13-3.12-2.9-3.12a2.74,2.74,0,0,0-2.94,2.93v6.38a1.33,1.33,0,0,1-.16.8,0.88,0.88,0,0,1-1.44,0,1.33,1.33,0,0,1-.16-0.8v-6.19C392.68,833.6,391.56,832.56,389.79,832.56Z"
          style="fill:#fff"/>
    <path d="M413,832a4.07,4.07,0,0,1,2.88-1,3.82,3.82,0,0,1,3.33,1.51v-5.57a1.32,1.32,0,0,1,.16-0.8,0.88,0.88,0,0,1,1.44,0,1.33,1.33,0,0,1,.16.8v14.92a1.33,1.33,0,0,1-.16.8,0.88,0.88,0,0,1-1.44,0,1.32,1.32,0,0,1-.16-0.8v-0.34a3.78,3.78,0,0,1-3.33,1.56,4.07,4.07,0,0,1-2.88-1c-1.2-1.2-1.46-3.12-1.46-5S411.84,833.23,413,832Zm3.25,9.5c2.58,0,3-2.18,3-4.49s-0.38-4.49-3-4.49-3,2.18-3,4.49S413.71,841.53,416.29,841.53Z"
          style="fill:#fff"/>
    <path d="M433,832.34c1.22,1.25,1.45,2.88,1.45,4.7s-0.23,3.45-1.45,4.7a5,5,0,0,1-6.79,0c-1.22-1.25-1.45-2.89-1.45-4.7s0.23-3.45,1.45-4.7A5,5,0,0,1,433,832.34Zm-1.26,8.33c0.83-.83,1-2.27,1-3.63s-0.13-2.79-1-3.62a3.07,3.07,0,0,0-4.27,0c-0.83.83-1,2.25-1,3.62s0.13,2.81,1,3.63A3.1,3.1,0,0,0,431.7,840.68Z"
          style="fill:#fff"/>
    <path d="M442.82,832.56a2.78,2.78,0,0,0-2.95,3.12v6.19a1.33,1.33,0,0,1-.16.8,0.88,0.88,0,0,1-1.44,0,1.33,1.33,0,0,1-.16-0.8v-9.64a1.33,1.33,0,0,1,.16-0.8,0.88,0.88,0,0,1,1.44,0,1.33,1.33,0,0,1,.16.8v0.22a4.3,4.3,0,0,1,3.33-1.44,3.89,3.89,0,0,1,3.62,2,4.52,4.52,0,0,1,3.89-2,4.3,4.3,0,0,1,3,1.1,4.36,4.36,0,0,1,1.3,3.29v6.48a1.33,1.33,0,0,1-.16.8,0.88,0.88,0,0,1-1.44,0,1.33,1.33,0,0,1-.16-0.8v-6.19c0-2.08-1.13-3.12-2.9-3.12a2.74,2.74,0,0,0-2.94,2.93v6.38a1.33,1.33,0,0,1-.16.8,0.88,0.88,0,0,1-1.44,0,1.33,1.33,0,0,1-.16-0.8v-6.19C445.71,833.6,444.6,832.56,442.82,832.56Z"
          style="fill:#fff"/>
    <path d="M462.37,836.18h3.57v-1c0-1.8-.84-2.72-2.9-2.72a3.49,3.49,0,0,0-2.67,1,1.11,1.11,0,0,1-.73.31,0.72,0.72,0,0,1-.53-0.22,0.77,0.77,0,0,1-.22-0.55,2,2,0,0,1,1.13-1.32,5.33,5.33,0,0,1,3-.77c3,0,4.63,1.37,4.63,3.95v6.92a1.33,1.33,0,0,1-.16.8,0.88,0.88,0,0,1-1.44,0,1.33,1.33,0,0,1-.16-0.8v0a4.23,4.23,0,0,1-3.38,1.25A4.3,4.3,0,0,1,459.2,842a3.47,3.47,0,0,1-.9-2.41C458.29,837.52,459.81,836.18,462.37,836.18Zm0.36,5.43a3.44,3.44,0,0,0,2.6-.8,2.74,2.74,0,0,0,.61-2.05V837.5h-3.38c-1.69,0-2.55.73-2.55,2.09S460.9,841.61,462.73,841.61Z"
          style="fill:#fff"/>
    <path d="M472.85,825.53a1.19,1.19,0,1,1-1.19,1.19A1.18,1.18,0,0,1,472.85,825.53Zm0.88,16.33a1.33,1.33,0,0,1-.16.8,0.88,0.88,0,0,1-1.44,0,1.32,1.32,0,0,1-.16-0.8v-9.64a1.32,1.32,0,0,1,.16-0.8,0.88,0.88,0,0,1,1.44,0,1.33,1.33,0,0,1,.16.8v9.64Z"
          style="fill:#fff"/>
    <path d="M487.47,841.87a1.37,1.37,0,0,1-.16.8,0.85,0.85,0,0,1-.72.37,0.83,0.83,0,0,1-.72-0.37,1.37,1.37,0,0,1-.16-0.8V835.7c0-2.1-1.09-3.14-2.89-3.14s-3,1.07-3,3.14v6.17a1.37,1.37,0,0,1-.16.8,0.88,0.88,0,0,1-1.44,0,1.37,1.37,0,0,1-.16-0.8v-9.64a1.33,1.33,0,0,1,.16-0.8,0.88,0.88,0,0,1,1.44,0,1.33,1.33,0,0,1,.16.8v0.22a4.33,4.33,0,0,1,3.31-1.44,4.23,4.23,0,0,1,3.06,1.1,4.39,4.39,0,0,1,1.22,3.3v6.46Z"
          style="fill:#fff"/>
    <path d="M507,841.87a1.38,1.38,0,0,1-.16.8,0.85,0.85,0,0,1-.72.37,0.83,0.83,0,0,1-.72-0.37,1.37,1.37,0,0,1-.16-0.8V835.7c0-2.1-1.09-3.14-2.89-3.14s-3,1.07-3,3.14v6.17a1.38,1.38,0,0,1-.16.8,0.88,0.88,0,0,1-1.44,0,1.36,1.36,0,0,1-.16-0.8v-9.64a1.32,1.32,0,0,1,.16-0.8,0.88,0.88,0,0,1,1.44,0,1.33,1.33,0,0,1,.16.8v0.22a4.33,4.33,0,0,1,3.31-1.44,4.22,4.22,0,0,1,3.06,1.1,4.39,4.39,0,0,1,1.22,3.3v6.46Z"
          style="fill:#fff"/>
    <path d="M514.32,836.18h3.57v-1c0-1.8-.84-2.72-2.9-2.72a3.49,3.49,0,0,0-2.67,1,1.11,1.11,0,0,1-.73.31,0.73,0.73,0,0,1-.53-0.22,0.77,0.77,0,0,1-.22-0.55,2,2,0,0,1,1.13-1.32,5.34,5.34,0,0,1,3-.77c3,0,4.63,1.37,4.63,3.95v6.92a1.32,1.32,0,0,1-.16.8,0.88,0.88,0,0,1-1.44,0,1.33,1.33,0,0,1-.16-0.8v0a4.23,4.23,0,0,1-3.38,1.25,4.31,4.31,0,0,1-3.36-1.08,3.47,3.47,0,0,1-.9-2.41C510.24,837.52,511.75,836.18,514.32,836.18Zm0.36,5.43a3.43,3.43,0,0,0,2.6-.8,2.74,2.74,0,0,0,.61-2.05V837.5h-3.38c-1.69,0-2.55.73-2.55,2.09S512.84,841.61,514.68,841.61Z"
          style="fill:#fff"/>
    <path d="M528.56,832.56a2.78,2.78,0,0,0-3,3.12v6.19a1.33,1.33,0,0,1-.16.8,0.88,0.88,0,0,1-1.44,0,1.32,1.32,0,0,1-.16-0.8v-9.64a1.32,1.32,0,0,1,.16-0.8,0.88,0.88,0,0,1,1.44,0,1.33,1.33,0,0,1,.16.8v0.22a4.3,4.3,0,0,1,3.33-1.44,3.89,3.89,0,0,1,3.62,2,4.52,4.52,0,0,1,3.89-2,4.3,4.3,0,0,1,3,1.1,4.36,4.36,0,0,1,1.3,3.29v6.48a1.33,1.33,0,0,1-.16.8,0.88,0.88,0,0,1-1.44,0,1.32,1.32,0,0,1-.16-0.8v-6.19c0-2.08-1.13-3.12-2.9-3.12a2.74,2.74,0,0,0-2.94,2.93v6.38a1.33,1.33,0,0,1-.16.8,0.88,0.88,0,0,1-1.44,0,1.32,1.32,0,0,1-.16-0.8v-6.19C531.45,833.6,530.34,832.56,528.56,832.56Z"
          style="fill:#fff"/>
    <path d="M546.1,837.49c0,2.58,1.22,4.09,3.5,4.09a3.87,3.87,0,0,0,2.53-.85,1.23,1.23,0,0,1,.82-0.42,0.79,0.79,0,0,1,.74.76,2.26,2.26,0,0,1-1.22,1.34,5.85,5.85,0,0,1-2.94.68c-3.13,0-5.17-1.87-5.17-6,0-3.9,1.89-6,4.87-6s4.82,2.18,4.85,5.47a1.07,1.07,0,0,1-.24.79,1,1,0,0,1-.77.23h-7Zm6.26-1.32a5,5,0,0,0-.37-1.92,3,3,0,0,0-5.52,0,5,5,0,0,0-.37,1.92h6.26Z"
          style="fill:#fff"/>
    <path d="M131.49,734.42q0,1.32,0,2.24a10.83,10.83,0,0,0,.16,1.58,4.2,4.2,0,0,0,.37,1.13,3.65,3.65,0,0,0,.64.88,4,4,0,0,0,3,1.22,4.38,4.38,0,0,0,1.61-.29,3.91,3.91,0,0,0,1.35-.89,3.86,3.86,0,0,0,.59-0.79,3.6,3.6,0,0,0,.36-0.94,7.56,7.56,0,0,0,.17-1.22q0-.69,0-1.6h-3.16a3,3,0,0,1-.5,0,0.8,0.8,0,0,1-.29-0.11,0.82,0.82,0,0,1,0-1.34,0.83,0.83,0,0,1,.29-0.11,3,3,0,0,1,.5,0h3.83l0.44,0a0.81,0.81,0,0,1,.64.64,3.47,3.47,0,0,1,0,.44v0.31q0,1.18-.07,2a8.21,8.21,0,0,1-.25,1.54,4.83,4.83,0,0,1-.52,1.22,6,6,0,0,1-2.72,2.33,6.1,6.1,0,0,1-2.37.44,6.19,6.19,0,0,1-2.41-.44,6,6,0,0,1-2.81-2.47,5.08,5.08,0,0,1-.52-1.41,10.62,10.62,0,0,1-.22-1.84q0-1.05,0-2.53t0-2.53a10.62,10.62,0,0,1,.22-1.84,5.07,5.07,0,0,1,.52-1.41,5.75,5.75,0,0,1,1-1.23,5.68,5.68,0,0,1,1.86-1.24,6.17,6.17,0,0,1,2.39-.44,6.84,6.84,0,0,1,1.51.16,5.86,5.86,0,0,1,1.24.43,5,5,0,0,1,1,.65,5.9,5.9,0,0,1,.82.82,5.57,5.57,0,0,1,.47.68,5,5,0,0,1,.34.68,4.76,4.76,0,0,1,.2.62,2.17,2.17,0,0,1,.07.5,0.91,0.91,0,0,1-.24.67,0.83,0.83,0,0,1-.61.24,0.82,0.82,0,0,1-.56-0.19,1.17,1.17,0,0,1-.25-0.33,3.38,3.38,0,0,1-.19-0.44,4.26,4.26,0,0,0-1.43-2.11,3.86,3.86,0,0,0-2.41-.74,3.92,3.92,0,0,0-2.93,1.22,3.66,3.66,0,0,0-.65.89,4.16,4.16,0,0,0-.36,1.14,11.68,11.68,0,0,0-.16,1.58Q131.49,733.13,131.49,734.42Z"
          style="fill:#fff"/>
    <path d="M146.68,737.51a4.59,4.59,0,0,0,.89,3,3.2,3.2,0,0,0,2.61,1.07,4.56,4.56,0,0,0,1.34-.2,3.33,3.33,0,0,0,1.19-.65,2.63,2.63,0,0,1,.44-0.33,0.77,0.77,0,0,1,.37-0.09,0.66,0.66,0,0,1,.28.06,0.74,0.74,0,0,1,.23.17,1,1,0,0,1,.17.25,0.65,0.65,0,0,1,.07.28,0.71,0.71,0,0,1-.13.4,2,2,0,0,1-.31.37,3.79,3.79,0,0,1-.4.32l-0.39.26a5,5,0,0,1-1.28.5,6.84,6.84,0,0,1-1.66.19,6,6,0,0,1-2.13-.36,4.23,4.23,0,0,1-1.64-1.1,5,5,0,0,1-1.05-1.88,10.05,10.05,0,0,1,0-5.3,5.37,5.37,0,0,1,1-1.9,4.15,4.15,0,0,1,1.54-1.16,4.94,4.94,0,0,1,2-.4,5,5,0,0,1,2,.39,4.21,4.21,0,0,1,1.52,1.11,5,5,0,0,1,1,1.73,7.3,7.3,0,0,1,.35,2.24,2.54,2.54,0,0,1,0,.4,0.7,0.7,0,0,1-.2.39,0.65,0.65,0,0,1-.37.2,2.62,2.62,0,0,1-.4,0h-7Zm6.26-1.32q0-.31,0-0.56c0-.17,0-0.32-0.07-0.47a4.24,4.24,0,0,0-.11-0.43q-0.07-.22-0.16-0.46a2.76,2.76,0,0,0-1.06-1.29,3.27,3.27,0,0,0-3.4,0,2.72,2.72,0,0,0-1.06,1.28q-0.1.24-.16,0.46a4.24,4.24,0,0,0-.11.43c0,0.14-.05.3-0.07,0.47s0,0.36,0,.56h6.26Z"
          style="fill:#fff"/>
    <path d="M167.63,741.89a3,3,0,0,1,0,.49,0.94,0.94,0,0,1-.13.32,0.7,0.7,0,0,1-.29.27,1,1,0,0,1-.86,0,0.7,0.7,0,0,1-.29-0.27,0.93,0.93,0,0,1-.13-0.32,2.91,2.91,0,0,1,0-.49v-6.17a3.25,3.25,0,0,0-.77-2.36,2.85,2.85,0,0,0-2.12-.78,3.55,3.55,0,0,0-1.22.2,2.43,2.43,0,0,0-.93.59,2.69,2.69,0,0,0-.59,1,4.08,4.08,0,0,0-.21,1.37v6.17a2.91,2.91,0,0,1,0,.49,0.93,0.93,0,0,1-.13.32,0.7,0.7,0,0,1-.29.27,1,1,0,0,1-.86,0,0.7,0.7,0,0,1-.29-0.27,0.91,0.91,0,0,1-.13-0.32,2.9,2.9,0,0,1,0-.49v-9.65a2.8,2.8,0,0,1,0-.47,1,1,0,0,1,.13-0.33,0.7,0.7,0,0,1,.29-0.27,1,1,0,0,1,.86,0,0.7,0.7,0,0,1,.29.27,1.06,1.06,0,0,1,.13.33,2.81,2.81,0,0,1,0,.47v0.22a4.23,4.23,0,0,1,1.49-1.08,4.58,4.58,0,0,1,1.82-.36,5,5,0,0,1,1.74.28,3.75,3.75,0,0,1,2.25,2.26,5.54,5.54,0,0,1,.29,1.86v6.47Z"
          style="fill:#fff"/>
    <path d="M172.94,737.51a4.59,4.59,0,0,0,.89,3,3.2,3.2,0,0,0,2.61,1.07,4.56,4.56,0,0,0,1.34-.2,3.33,3.33,0,0,0,1.19-.65,2.63,2.63,0,0,1,.44-0.33,0.77,0.77,0,0,1,.37-0.09,0.66,0.66,0,0,1,.28.06,0.74,0.74,0,0,1,.23.17,1,1,0,0,1,.17.25,0.65,0.65,0,0,1,.07.28,0.71,0.71,0,0,1-.13.4,2,2,0,0,1-.31.37,3.79,3.79,0,0,1-.4.32l-0.39.26a5,5,0,0,1-1.28.5,6.84,6.84,0,0,1-1.66.19,6,6,0,0,1-2.13-.36,4.23,4.23,0,0,1-1.64-1.1,5,5,0,0,1-1.05-1.88,10.05,10.05,0,0,1,0-5.3,5.37,5.37,0,0,1,1-1.9,4.15,4.15,0,0,1,1.54-1.16,4.94,4.94,0,0,1,2-.4,5,5,0,0,1,2,.39,4.21,4.21,0,0,1,1.52,1.11,5,5,0,0,1,1,1.73,7.3,7.3,0,0,1,.35,2.24,2.54,2.54,0,0,1,0,.4,0.7,0.7,0,0,1-.2.39,0.65,0.65,0,0,1-.37.2,2.62,2.62,0,0,1-.4,0h-7Zm6.26-1.32q0-.31,0-0.56c0-.17,0-0.32-0.07-0.47a4.24,4.24,0,0,0-.11-0.43q-0.07-.22-0.16-0.46a2.76,2.76,0,0,0-1.06-1.29,3.27,3.27,0,0,0-3.4,0,2.72,2.72,0,0,0-1.06,1.28q-0.1.24-.16,0.46a4.24,4.24,0,0,0-.11.43c0,0.14-.05.3-0.07,0.47s0,0.36,0,.56h6.26Z"
          style="fill:#fff"/>
    <path d="M186.29,732.58a3.29,3.29,0,0,1,.6-0.65,3.76,3.76,0,0,1,.77-0.49,4.3,4.3,0,0,1,1.85-.42,4.51,4.51,0,0,1,1.14.13,3.57,3.57,0,0,1,1,.43,2,2,0,0,1,.47.38,0.73,0.73,0,0,1,.19.5,0.84,0.84,0,0,1-.07.34,0.87,0.87,0,0,1-.18.28,0.82,0.82,0,0,1-.6.25,0.87,0.87,0,0,1-.33-0.07,4.3,4.3,0,0,1-.5-0.26,3,3,0,0,0-.7-0.31,2.72,2.72,0,0,0-.77-0.11,2.85,2.85,0,0,0-1.19.24,2.66,2.66,0,0,0-.9.66,2.9,2.9,0,0,0-.57,1,4,4,0,0,0-.2,1.28v6.13a2.79,2.79,0,0,1,0,.47,1,1,0,0,1-.13.33,0.7,0.7,0,0,1-.29.27,1,1,0,0,1-.86,0,0.7,0.7,0,0,1-.29-0.27,1,1,0,0,1-.13-0.33,2.78,2.78,0,0,1,0-.47v-9.66a2.78,2.78,0,0,1,0-.47,1,1,0,0,1,.13-0.33,0.7,0.7,0,0,1,.29-0.27,1,1,0,0,1,.86,0,0.7,0.7,0,0,1,.29.27,1.05,1.05,0,0,1,.13.33,2.79,2.79,0,0,1,0,.47v0.35Z"
          style="fill:#fff"/>
    <path d="M193.45,739.62a3.48,3.48,0,0,1,.28-1.41,3,3,0,0,1,.8-1.08,3.59,3.59,0,0,1,1.28-.69,5.75,5.75,0,0,1,1.72-.24h3.58v-1a2.79,2.79,0,0,0-.68-2,3,3,0,0,0-2.23-.69,5,5,0,0,0-.82.06,3.05,3.05,0,0,0-1.28.52,6.7,6.7,0,0,0-.58.46,1.21,1.21,0,0,1-.4.25,1.06,1.06,0,0,1-.34.07,0.81,0.81,0,0,1-.29-0.05,0.59,0.59,0,0,1-.24-0.16,1.34,1.34,0,0,1-.16-0.24,0.7,0.7,0,0,1-.06-0.31,1,1,0,0,1,.3-0.65,4.52,4.52,0,0,1,.83-0.67,4.69,4.69,0,0,1,1.37-.59,7,7,0,0,1,1.67-.18,5.21,5.21,0,0,1,3.47,1,3.67,3.67,0,0,1,1.17,2.95v6.92a2.78,2.78,0,0,1,0,.47,1,1,0,0,1-.13.33,0.7,0.7,0,0,1-.29.27,1,1,0,0,1-.87,0,0.71,0.71,0,0,1-.29-0.27,1,1,0,0,1-.13-0.33,2.79,2.79,0,0,1,0-.47v0a5.2,5.2,0,0,1-.72.59,3.48,3.48,0,0,1-.76.38,4.44,4.44,0,0,1-.87.21,7.42,7.42,0,0,1-1,.07,6.65,6.65,0,0,1-2-.26,3.26,3.26,0,0,1-1.35-.82,3.2,3.2,0,0,1-.66-1.07A3.71,3.71,0,0,1,193.45,739.62Zm1.72,0q0,2,2.72,2l0.72,0a3.8,3.8,0,0,0,.68-0.11,2.65,2.65,0,0,0,1.21-.67A1.8,1.8,0,0,0,201,740a4.42,4.42,0,0,0,.15-1.25v-1.26h-3.38a2.94,2.94,0,0,0-1.91.53A1.91,1.91,0,0,0,195.16,739.61Z"
          style="fill:#fff"/>
    <path d="M209.18,739.74a1.91,1.91,0,0,0,.38,1.27,1.46,1.46,0,0,0,1.18.45,2.52,2.52,0,0,1,.48,0,0.93,0.93,0,0,1,.3.11,0.74,0.74,0,0,1,0,1.22,0.93,0.93,0,0,1-.3.11,2.52,2.52,0,0,1-.48,0h-0.31a3.24,3.24,0,0,1-1.31-.25,2.64,2.64,0,0,1-.94-0.68,2.83,2.83,0,0,1-.56-1,4,4,0,0,1-.19-1.24v-7.3H206.6a2.36,2.36,0,0,1-.38,0,0.64,0.64,0,0,1-.25-0.1,0.67,0.67,0,0,1,0-1.1,0.65,0.65,0,0,1,.25-0.1l0.38,0h0.83v-2.53a2.81,2.81,0,0,1,0-.47,1,1,0,0,1,.13-0.33,0.7,0.7,0,0,1,.29-0.27,1,1,0,0,1,.86,0,0.7,0.7,0,0,1,.29.27,1,1,0,0,1,.13.33,2.8,2.8,0,0,1,0,.47v2.53h1.74l0.38,0a0.65,0.65,0,0,1,.25.1,0.67,0.67,0,0,1,0,1.1,0.64,0.64,0,0,1-.25.1,2.36,2.36,0,0,1-.38,0h-1.74v7.24Z"
          style="fill:#fff"/>
    <path d="M216.1,737.51a4.59,4.59,0,0,0,.89,3,3.2,3.2,0,0,0,2.61,1.07,4.56,4.56,0,0,0,1.34-.2,3.33,3.33,0,0,0,1.19-.65,2.63,2.63,0,0,1,.44-0.33,0.77,0.77,0,0,1,.37-0.09,0.66,0.66,0,0,1,.28.06,0.74,0.74,0,0,1,.23.17,1,1,0,0,1,.17.25,0.65,0.65,0,0,1,.07.28,0.71,0.71,0,0,1-.13.4,2,2,0,0,1-.31.37,3.79,3.79,0,0,1-.4.32l-0.39.26a5,5,0,0,1-1.28.5,6.84,6.84,0,0,1-1.66.19,6,6,0,0,1-2.13-.36,4.23,4.23,0,0,1-1.64-1.1,5,5,0,0,1-1.05-1.88,10.05,10.05,0,0,1,0-5.3,5.37,5.37,0,0,1,1-1.9,4.15,4.15,0,0,1,1.54-1.16,4.94,4.94,0,0,1,2-.4,5,5,0,0,1,2,.39,4.21,4.21,0,0,1,1.52,1.11,5,5,0,0,1,1,1.73,7.3,7.3,0,0,1,.35,2.24,2.54,2.54,0,0,1,0,.4,0.7,0.7,0,0,1-.2.39,0.65,0.65,0,0,1-.37.2,2.62,2.62,0,0,1-.4,0h-7Zm6.26-1.32q0-.31,0-0.56c0-.17,0-0.32-0.07-0.47a4.24,4.24,0,0,0-.11-0.43q-0.07-.22-0.16-0.46a2.76,2.76,0,0,0-1.06-1.29,3.27,3.27,0,0,0-3.4,0,2.72,2.72,0,0,0-1.06,1.28q-0.1.24-.16,0.46a4.24,4.24,0,0,0-.11.43c0,0.14-.05.3-0.07,0.47s0,0.36,0,.56h6.26Z"
          style="fill:#fff"/>
    <path d="M232.7,739.62a3.48,3.48,0,0,1,.28-1.41,3,3,0,0,1,.8-1.08,3.59,3.59,0,0,1,1.28-.69,5.75,5.75,0,0,1,1.72-.24h3.58v-1a2.79,2.79,0,0,0-.68-2,3,3,0,0,0-2.23-.69,5,5,0,0,0-.82.06,3.05,3.05,0,0,0-1.28.52,6.7,6.7,0,0,0-.58.46,1.21,1.21,0,0,1-.4.25,1.06,1.06,0,0,1-.34.07,0.81,0.81,0,0,1-.29-0.05,0.59,0.59,0,0,1-.24-0.16,1.34,1.34,0,0,1-.16-0.24,0.7,0.7,0,0,1-.06-0.31,1,1,0,0,1,.3-0.65,4.52,4.52,0,0,1,.83-0.67,4.69,4.69,0,0,1,1.37-.59,7,7,0,0,1,1.67-.18,5.21,5.21,0,0,1,3.47,1A3.67,3.67,0,0,1,242.1,735v6.92a2.78,2.78,0,0,1,0,.47,1,1,0,0,1-.13.33,0.7,0.7,0,0,1-.29.27,1,1,0,0,1-.87,0,0.71,0.71,0,0,1-.29-0.27,1,1,0,0,1-.13-0.33,2.79,2.79,0,0,1,0-.47v0a5.2,5.2,0,0,1-.72.59,3.48,3.48,0,0,1-.76.38,4.44,4.44,0,0,1-.87.21,7.42,7.42,0,0,1-1,.07,6.65,6.65,0,0,1-2-.26,3.26,3.26,0,0,1-1.35-.82,3.2,3.2,0,0,1-.66-1.07A3.71,3.71,0,0,1,232.7,739.62Zm1.72,0q0,2,2.72,2l0.72,0a3.8,3.8,0,0,0,.68-0.11,2.65,2.65,0,0,0,1.21-.67,1.8,1.8,0,0,0,.46-0.8,4.42,4.42,0,0,0,.15-1.25v-1.26H237a2.94,2.94,0,0,0-1.91.53A1.91,1.91,0,0,0,234.41,739.61Z"
          style="fill:#fff"/>
    <path d="M256.26,741.77a5,5,0,0,1-.24.65,1.1,1.1,0,0,1-.3.4,1,1,0,0,1-.67.24,1,1,0,0,1-.68-0.24,1.1,1.1,0,0,1-.3-0.4,5,5,0,0,1-.24-0.65L251,732.43a2.8,2.8,0,0,1-.1-0.46,0.9,0.9,0,0,1,0-.34,0.75,0.75,0,0,1,.3-0.4,0.85,0.85,0,0,1,.5-0.16,0.76,0.76,0,0,1,.55.24,0.86,0.86,0,0,1,.17.26,3.25,3.25,0,0,1,.14.41l2.46,8.59,2.47-8.26a5.59,5.59,0,0,1,.23-0.64,1.05,1.05,0,0,1,.29-0.4,1,1,0,0,1,1.3,0,1.06,1.06,0,0,1,.29.4,5.68,5.68,0,0,1,.23.64l2.47,8.26,2.46-8.59a3.32,3.32,0,0,1,.14-0.41,0.87,0.87,0,0,1,.17-0.26,0.76,0.76,0,0,1,.55-0.24,0.85,0.85,0,0,1,.5.16,0.75,0.75,0,0,1,.3.4,0.9,0.9,0,0,1,0,.34,2.8,2.8,0,0,1-.1.46l-2.78,9.34a5.11,5.11,0,0,1-.24.65,1.1,1.1,0,0,1-.3.4,1,1,0,0,1-.68.24,1,1,0,0,1-.67-0.24,1.1,1.1,0,0,1-.3-0.4,5,5,0,0,1-.24-0.65l-2.48-8.15Z"
          style="fill:#fff"/>
    <path d="M270.42,737.51a4.59,4.59,0,0,0,.89,3,3.2,3.2,0,0,0,2.61,1.07,4.56,4.56,0,0,0,1.34-.2,3.33,3.33,0,0,0,1.19-.65,2.63,2.63,0,0,1,.44-0.33,0.77,0.77,0,0,1,.37-0.09,0.66,0.66,0,0,1,.28.06,0.74,0.74,0,0,1,.23.17,1,1,0,0,1,.17.25,0.65,0.65,0,0,1,.07.28,0.71,0.71,0,0,1-.13.4,2,2,0,0,1-.31.37,3.79,3.79,0,0,1-.4.32l-0.39.26a5,5,0,0,1-1.28.5,6.84,6.84,0,0,1-1.66.19,6,6,0,0,1-2.13-.36,4.23,4.23,0,0,1-1.64-1.1,5,5,0,0,1-1.05-1.88,10.05,10.05,0,0,1,0-5.3,5.37,5.37,0,0,1,1-1.9,4.15,4.15,0,0,1,1.54-1.16,4.94,4.94,0,0,1,2-.4,5,5,0,0,1,2,.39,4.21,4.21,0,0,1,1.52,1.11,5,5,0,0,1,1,1.73,7.3,7.3,0,0,1,.35,2.24,2.54,2.54,0,0,1,0,.4,0.7,0.7,0,0,1-.2.39,0.65,0.65,0,0,1-.37.2,2.62,2.62,0,0,1-.4,0h-7Zm6.26-1.32q0-.31,0-0.56c0-.17,0-0.32-0.07-0.47a4.24,4.24,0,0,0-.11-0.43q-0.07-.22-0.16-0.46a2.76,2.76,0,0,0-1.06-1.29,3.27,3.27,0,0,0-3.4,0,2.72,2.72,0,0,0-1.06,1.28q-0.1.24-.16,0.46a4.24,4.24,0,0,0-.11.43c0,0.14-.05.3-0.07,0.47s0,0.36,0,.56h6.26Z"
          style="fill:#fff"/>
    <path d="M291.46,737.06q0,0.71-.06,1.42a8.53,8.53,0,0,1-.22,1.36,6,6,0,0,1-.45,1.22,3.9,3.9,0,0,1-.73,1,3.39,3.39,0,0,1-1.21.75,4.69,4.69,0,0,1-1.67.28,6.37,6.37,0,0,1-.94-0.07,3.39,3.39,0,0,1-.86-0.25,3.55,3.55,0,0,1-.79-0.48,4.69,4.69,0,0,1-.75-0.77v0.34a2.79,2.79,0,0,1,0,.47,1,1,0,0,1-.13.33,0.7,0.7,0,0,1-.29.27,1,1,0,0,1-.86,0,0.7,0.7,0,0,1-.29-0.27,1,1,0,0,1-.13-0.33,2.78,2.78,0,0,1,0-.47V727a2.8,2.8,0,0,1,0-.47,1,1,0,0,1,.13-0.33,0.7,0.7,0,0,1,.29-0.27,1,1,0,0,1,.86,0,0.7,0.7,0,0,1,.29.27,1,1,0,0,1,.13.33,2.81,2.81,0,0,1,0,.47v5.57a4.61,4.61,0,0,1,.76-0.75,3.47,3.47,0,0,1,.8-0.46,3.77,3.77,0,0,1,.85-0.23,6.24,6.24,0,0,1,.93-0.07,4.69,4.69,0,0,1,1.67.28A3.37,3.37,0,0,1,290,732a4.13,4.13,0,0,1,.73,1,5.81,5.81,0,0,1,.45,1.22,8.52,8.52,0,0,1,.22,1.36Q291.46,736.36,291.46,737.06Zm-1.75,0a13.41,13.41,0,0,0-.1-1.67,4.42,4.42,0,0,0-.41-1.43,2.51,2.51,0,0,0-.89-1,3.38,3.38,0,0,0-3.11,0,2.51,2.51,0,0,0-.89,1,4.42,4.42,0,0,0-.41,1.43,13.78,13.78,0,0,0,0,3.35,4.42,4.42,0,0,0,.41,1.43,2.51,2.51,0,0,0,.89,1,3.38,3.38,0,0,0,3.11,0,2.51,2.51,0,0,0,.89-1,4.42,4.42,0,0,0,.41-1.43A13.4,13.4,0,0,0,289.71,737.06Z"
          style="fill:#fff"/>
    <path d="M294.74,742a1.75,1.75,0,0,1-.41-0.37,0.69,0.69,0,0,1-.16-0.44,0.74,0.74,0,0,1,.07-0.31,1,1,0,0,1,.2-0.29,0.71,0.71,0,0,1,.5-0.18,1.42,1.42,0,0,1,.79.34,4.65,4.65,0,0,0,1.39.67,6.13,6.13,0,0,0,1.72.22,4.4,4.4,0,0,0,2.33-.51,1.72,1.72,0,0,0,.82-1.57,1.51,1.51,0,0,0-.47-1.21,2.63,2.63,0,0,0-1.49-.51l-1.94-.18a4.58,4.58,0,0,1-2.63-.93,2.79,2.79,0,0,1-.9-2.24,3.16,3.16,0,0,1,.32-1.45,3.2,3.2,0,0,1,.9-1.09,4.15,4.15,0,0,1,1.37-.69,6,6,0,0,1,1.75-.24,7.5,7.5,0,0,1,1.8.2,7.14,7.14,0,0,1,1.5.55,2.37,2.37,0,0,1,.37.22,1.2,1.2,0,0,1,.22.21,0.68,0.68,0,0,1,.11.22,1,1,0,0,1,0,.23,0.65,0.65,0,0,1-.05.24,0.81,0.81,0,0,1-.14.23,0.74,0.74,0,0,1-.55.25,0.86,0.86,0,0,1-.29-0.05,2.6,2.6,0,0,1-.37-0.17,5.46,5.46,0,0,0-1.24-.47,5.81,5.81,0,0,0-1.4-.16,3.26,3.26,0,0,0-2,.5,1.68,1.68,0,0,0-.68,1.44,1.45,1.45,0,0,0,.5,1.21,3,3,0,0,0,1.57.5l1.9,0.18a7,7,0,0,1,1.42.27,3.21,3.21,0,0,1,1.1.57,2.5,2.5,0,0,1,.71.95,3.53,3.53,0,0,1,.25,1.42,3.27,3.27,0,0,1-.35,1.52,3.21,3.21,0,0,1-1,1.13,4.63,4.63,0,0,1-1.52.7,7.52,7.52,0,0,1-2,.24,8.58,8.58,0,0,1-2.34-.28A5.92,5.92,0,0,1,294.74,742Z"
          style="fill:#fff"/>
    <path d="M306.82,726.73a1.17,1.17,0,1,1,.34.85A1.15,1.15,0,0,1,306.82,726.73Zm2.06,15.16a2.84,2.84,0,0,1,0,.47,1,1,0,0,1-.13.33,0.7,0.7,0,0,1-.29.27,1,1,0,0,1-.86,0,0.7,0.7,0,0,1-.29-0.27,1,1,0,0,1-.13-0.33,2.73,2.73,0,0,1,0-.47v-9.65a2.75,2.75,0,0,1,0-.47,1,1,0,0,1,.13-0.33,0.7,0.7,0,0,1,.29-0.27,1,1,0,0,1,.86,0,0.7,0.7,0,0,1,.29.27,1.06,1.06,0,0,1,.13.33,2.86,2.86,0,0,1,0,.47v9.65Z"
          style="fill:#fff"/>
    <path d="M315.4,739.74a1.91,1.91,0,0,0,.38,1.27,1.46,1.46,0,0,0,1.18.45,2.52,2.52,0,0,1,.48,0,0.93,0.93,0,0,1,.3.11,0.74,0.74,0,0,1,0,1.22,0.93,0.93,0,0,1-.3.11,2.52,2.52,0,0,1-.48,0h-0.31a3.24,3.24,0,0,1-1.31-.25,2.64,2.64,0,0,1-.94-0.68,2.83,2.83,0,0,1-.56-1,4,4,0,0,1-.19-1.24v-7.3h-0.83a2.36,2.36,0,0,1-.38,0,0.64,0.64,0,0,1-.25-0.1,0.67,0.67,0,0,1,0-1.1,0.65,0.65,0,0,1,.25-0.1l0.38,0h0.83v-2.53a2.81,2.81,0,0,1,0-.47,1,1,0,0,1,.13-0.33,0.7,0.7,0,0,1,.29-0.27,1,1,0,0,1,.86,0,0.7,0.7,0,0,1,.29.27,1,1,0,0,1,.13.33,2.8,2.8,0,0,1,0,.47v2.53h1.74l0.38,0a0.65,0.65,0,0,1,.25.1,0.67,0.67,0,0,1,0,1.1,0.64,0.64,0,0,1-.25.1,2.36,2.36,0,0,1-.38,0H315.4v7.24Z"
          style="fill:#fff"/>
    <path d="M322.32,737.51a4.59,4.59,0,0,0,.89,3,3.2,3.2,0,0,0,2.61,1.07,4.56,4.56,0,0,0,1.34-.2,3.33,3.33,0,0,0,1.19-.65,2.63,2.63,0,0,1,.44-0.33,0.77,0.77,0,0,1,.37-0.09,0.66,0.66,0,0,1,.28.06,0.74,0.74,0,0,1,.23.17,1,1,0,0,1,.17.25,0.65,0.65,0,0,1,.07.28,0.71,0.71,0,0,1-.13.4,2,2,0,0,1-.31.37,3.79,3.79,0,0,1-.4.32l-0.39.26a5,5,0,0,1-1.28.5,6.84,6.84,0,0,1-1.66.19,6,6,0,0,1-2.13-.36,4.23,4.23,0,0,1-1.64-1.1,5,5,0,0,1-1.05-1.88,10.05,10.05,0,0,1,0-5.3,5.37,5.37,0,0,1,1-1.9,4.15,4.15,0,0,1,1.54-1.16,4.94,4.94,0,0,1,2-.4,5,5,0,0,1,2,.39,4.21,4.21,0,0,1,1.52,1.11,5,5,0,0,1,1,1.73,7.3,7.3,0,0,1,.35,2.24,2.54,2.54,0,0,1,0,.4,0.7,0.7,0,0,1-.2.39,0.65,0.65,0,0,1-.37.2,2.62,2.62,0,0,1-.4,0h-7Zm6.26-1.32q0-.31,0-0.56c0-.17,0-0.32-0.07-0.47a4.24,4.24,0,0,0-.11-0.43q-0.07-.22-0.16-0.46a2.76,2.76,0,0,0-1.06-1.29,3.27,3.27,0,0,0-3.4,0,2.72,2.72,0,0,0-1.06,1.28q-0.1.24-.16,0.46a4.24,4.24,0,0,0-.11.43c0,0.14-.05.3-0.07,0.47s0,0.36,0,.56h6.26Z"
          style="fill:#fff"/>
    <path d="M131.59,792.95a3.31,3.31,0,0,1-.44,0,0.81,0.81,0,0,1-.64-0.64,3.4,3.4,0,0,1,0-.44V777a3.4,3.4,0,0,1,0-.44,0.81,0.81,0,0,1,.64-0.64,3.31,3.31,0,0,1,.44,0h4.76a6.89,6.89,0,0,1,2.54.43,5.41,5.41,0,0,1,2,1.37,4.48,4.48,0,0,1,.87,1.37,7.78,7.78,0,0,1,.45,1.63,13.1,13.1,0,0,1,.17,1.81q0,0.95,0,1.93t0,1.93a13.08,13.08,0,0,1-.17,1.81,7.78,7.78,0,0,1-.45,1.63,4.48,4.48,0,0,1-.87,1.37,5.41,5.41,0,0,1-2,1.37,6.89,6.89,0,0,1-2.54.43h-4.76Zm0.73-15.46v13.82H136a6.2,6.2,0,0,0,1.85-.27,3.36,3.36,0,0,0,1.52-1A3.12,3.12,0,0,0,140,789a6.76,6.76,0,0,0,.33-1.33,13.23,13.23,0,0,0,.13-1.55q0-.83,0-1.72t0-1.72a13.27,13.27,0,0,0-.13-1.55,6.8,6.8,0,0,0-.33-1.33,3.12,3.12,0,0,0-.63-1,3.36,3.36,0,0,0-1.52-1,6.2,6.2,0,0,0-1.85-.27h-3.72Z"
          style="fill:#fff"/>
    <path d="M147.46,787.49a4.59,4.59,0,0,0,.89,3,3.2,3.2,0,0,0,2.61,1.07,4.56,4.56,0,0,0,1.34-.2,3.33,3.33,0,0,0,1.19-.65,2.63,2.63,0,0,1,.44-0.33,0.77,0.77,0,0,1,.37-0.09,0.66,0.66,0,0,1,.28.06,0.74,0.74,0,0,1,.23.17,1,1,0,0,1,.17.25,0.65,0.65,0,0,1,.07.28,0.71,0.71,0,0,1-.13.4,2,2,0,0,1-.31.37,3.79,3.79,0,0,1-.4.32l-0.39.26a5,5,0,0,1-1.28.5,6.84,6.84,0,0,1-1.66.19,6,6,0,0,1-2.13-.36,4.23,4.23,0,0,1-1.64-1.1,5,5,0,0,1-1.05-1.88,10.05,10.05,0,0,1,0-5.3,5.37,5.37,0,0,1,1-1.9,4.15,4.15,0,0,1,1.54-1.16,4.94,4.94,0,0,1,2-.4,5,5,0,0,1,2,.39,4.21,4.21,0,0,1,1.52,1.11,5,5,0,0,1,1,1.73,7.3,7.3,0,0,1,.35,2.24,2.54,2.54,0,0,1,0,.4,0.7,0.7,0,0,1-.2.39,0.65,0.65,0,0,1-.37.2,2.62,2.62,0,0,1-.4,0h-7Zm6.26-1.32q0-.31,0-0.56c0-.17,0-0.32-0.07-0.47a4.24,4.24,0,0,0-.11-0.43q-0.07-.22-0.16-0.46a2.76,2.76,0,0,0-1.06-1.29,3.27,3.27,0,0,0-3.4,0,2.72,2.72,0,0,0-1.06,1.28q-0.1.24-.16,0.46a4.24,4.24,0,0,0-.11.43c0,0.14-.05.3-0.07,0.47s0,0.36,0,.56h6.26Z"
          style="fill:#fff"/>
    <path d="M168.5,787q0,0.71-.06,1.42a8.53,8.53,0,0,1-.22,1.36,6,6,0,0,1-.45,1.22,3.9,3.9,0,0,1-.73,1,3.39,3.39,0,0,1-1.21.75,4.69,4.69,0,0,1-1.67.28,6.25,6.25,0,0,1-.93-0.07,3.72,3.72,0,0,1-.85-0.23,3.4,3.4,0,0,1-.8-0.46,4.53,4.53,0,0,1-.76-0.75v5.57a2.79,2.79,0,0,1,0,.47,1.05,1.05,0,0,1-.13.33,0.7,0.7,0,0,1-.29.27,1,1,0,0,1-.86,0,0.7,0.7,0,0,1-.29-0.27,1,1,0,0,1-.13-0.33,2.78,2.78,0,0,1,0-.47V782.22a2.8,2.8,0,0,1,0-.47,1,1,0,0,1,.13-0.33,0.7,0.7,0,0,1,.29-0.27,1,1,0,0,1,.86,0,0.7,0.7,0,0,1,.29.27,1.06,1.06,0,0,1,.13.33,2.81,2.81,0,0,1,0,.47v0.34a4.73,4.73,0,0,1,.75-0.77,3.55,3.55,0,0,1,.79-0.48,3.39,3.39,0,0,1,.86-0.25,6.36,6.36,0,0,1,.94-0.07,4.69,4.69,0,0,1,1.67.28A3.37,3.37,0,0,1,167,782a4.13,4.13,0,0,1,.73,1,5.81,5.81,0,0,1,.45,1.22,8.52,8.52,0,0,1,.22,1.36Q168.5,786.33,168.5,787Zm-7.68,0a13.4,13.4,0,0,0,.1,1.67,4.42,4.42,0,0,0,.41,1.43,2.51,2.51,0,0,0,.89,1,3.38,3.38,0,0,0,3.11,0,2.51,2.51,0,0,0,.89-1,4.42,4.42,0,0,0,.41-1.43,13.78,13.78,0,0,0,0-3.35,4.42,4.42,0,0,0-.41-1.43,2.51,2.51,0,0,0-.89-1,3.38,3.38,0,0,0-3.11,0,2.51,2.51,0,0,0-.89,1,4.42,4.42,0,0,0-.41,1.43A13.41,13.41,0,0,0,160.82,787Z"
          style="fill:#fff"/>
    <path d="M173.9,789.72a1.91,1.91,0,0,0,.38,1.27,1.46,1.46,0,0,0,1.18.45,2.51,2.51,0,0,1,.48,0,0.93,0.93,0,0,1,.3.11,0.74,0.74,0,0,1,0,1.22,0.93,0.93,0,0,1-.3.11,2.51,2.51,0,0,1-.48,0h-0.31a3.24,3.24,0,0,1-1.31-.25,2.64,2.64,0,0,1-.94-0.68,2.84,2.84,0,0,1-.56-1,4,4,0,0,1-.19-1.24V776.94a2.8,2.8,0,0,1,0-.47,1,1,0,0,1,.13-0.33,0.7,0.7,0,0,1,.29-0.27,1,1,0,0,1,.86,0,0.7,0.7,0,0,1,.29.27,1,1,0,0,1,.13.33,2.81,2.81,0,0,1,0,.47v12.78Z"
          style="fill:#fff"/>
    <path d="M183.26,781a4.84,4.84,0,0,1,1.94.37,4.65,4.65,0,0,1,1.46,1,4.43,4.43,0,0,1,.74,1,5.2,5.2,0,0,1,.44,1.13,7.25,7.25,0,0,1,.21,1.24q0.05,0.64.05,1.33t-0.05,1.33a7.28,7.28,0,0,1-.21,1.24,5.24,5.24,0,0,1-.44,1.13,4.4,4.4,0,0,1-.74,1,4.64,4.64,0,0,1-1.46,1,5.32,5.32,0,0,1-3.88,0,4.65,4.65,0,0,1-1.46-1,4.42,4.42,0,0,1-.74-1,5.21,5.21,0,0,1-.44-1.13,7.28,7.28,0,0,1-.21-1.24q-0.05-.64-0.05-1.33t0.05-1.33a7.25,7.25,0,0,1,.21-1.24,5.18,5.18,0,0,1,.44-1.13,4.44,4.44,0,0,1,.74-1,4.66,4.66,0,0,1,1.46-1A4.84,4.84,0,0,1,183.26,781Zm0,10.54a2.9,2.9,0,0,0,2.14-.85,2.42,2.42,0,0,0,.5-0.73,4.44,4.44,0,0,0,.29-0.89,7.05,7.05,0,0,0,.14-1q0-.52,0-1t0-1a7,7,0,0,0-.14-1,4.46,4.46,0,0,0-.29-0.89,2.42,2.42,0,0,0-.5-0.73,2.92,2.92,0,0,0-1-.65,3.34,3.34,0,0,0-2.36,0,2.92,2.92,0,0,0-1,.65,2.42,2.42,0,0,0-.5.73,4.43,4.43,0,0,0-.29.89,7,7,0,0,0-.14,1q0,0.51,0,1t0,1a7.05,7.05,0,0,0,.14,1,4.41,4.41,0,0,0,.29.89,2.42,2.42,0,0,0,.5.73A2.9,2.9,0,0,0,183.26,791.53Z"
          style="fill:#fff"/>
    <path d="M197.5,781.88a2.22,2.22,0,0,1,.3-0.59,0.65,0.65,0,0,1,.56-0.25,0.88,0.88,0,0,1,.48.14,0.74,0.74,0,0,1,.31.37,0.92,0.92,0,0,1,0,.38,2,2,0,0,1-.11.47l-4.63,13.38a4.52,4.52,0,0,1-.35.79,2.77,2.77,0,0,1-.49.63,2.59,2.59,0,0,1-1,.62,3.73,3.73,0,0,1-1.16.18,1.36,1.36,0,0,1-.82-0.18,0.72,0.72,0,0,1-.2-0.25,0.82,0.82,0,0,1-.07-0.35,0.71,0.71,0,0,1,.28-0.61,0.76,0.76,0,0,1,.25-0.13,1.41,1.41,0,0,1,.38,0,1.82,1.82,0,0,0,1.08-.31,2.21,2.21,0,0,0,.71-1.15l0.74-2.23-3.61-10.36a2,2,0,0,1-.11-0.47,0.91,0.91,0,0,1,0-.38,0.73,0.73,0,0,1,.31-0.37,0.88,0.88,0,0,1,.48-0.14,0.65,0.65,0,0,1,.56.25,2.25,2.25,0,0,1,.3.59l2.86,8.72Z"
          style="fill:#fff"/>
    <path d="M207.78,776.71a1.17,1.17,0,1,1,.34.85A1.15,1.15,0,0,1,207.78,776.71Zm2.06,15.16a2.84,2.84,0,0,1,0,.47,1,1,0,0,1-.13.33,0.7,0.7,0,0,1-.29.27,1,1,0,0,1-.86,0,0.7,0.7,0,0,1-.29-0.27,1,1,0,0,1-.13-0.33,2.73,2.73,0,0,1,0-.47v-9.65a2.75,2.75,0,0,1,0-.47,1,1,0,0,1,.13-0.33,0.7,0.7,0,0,1,.29-0.27,1,1,0,0,1,.86,0,0.7,0.7,0,0,1,.29.27,1.06,1.06,0,0,1,.13.33,2.86,2.86,0,0,1,0,.47v9.65Z"
          style="fill:#fff"/>
    <path d="M216.36,789.72a1.91,1.91,0,0,0,.38,1.27,1.46,1.46,0,0,0,1.18.45,2.52,2.52,0,0,1,.48,0,0.93,0.93,0,0,1,.3.11,0.74,0.74,0,0,1,0,1.22,0.93,0.93,0,0,1-.3.11,2.52,2.52,0,0,1-.48,0H217.6a3.24,3.24,0,0,1-1.31-.25,2.64,2.64,0,0,1-.94-0.68,2.83,2.83,0,0,1-.56-1,4,4,0,0,1-.19-1.24v-7.3h-0.83a2.36,2.36,0,0,1-.38,0,0.64,0.64,0,0,1-.25-0.1,0.67,0.67,0,0,1,0-1.1,0.65,0.65,0,0,1,.25-0.1l0.38,0h0.83v-2.53a2.81,2.81,0,0,1,0-.47,1,1,0,0,1,.13-0.33,0.7,0.7,0,0,1,.29-0.27,1,1,0,0,1,.86,0,0.7,0.7,0,0,1,.29.27,1,1,0,0,1,.13.33,2.8,2.8,0,0,1,0,.47v2.53h1.74l0.38,0a0.65,0.65,0,0,1,.25.1,0.67,0.67,0,0,1,0,1.1,0.64,0.64,0,0,1-.25.1,2.36,2.36,0,0,1-.38,0h-1.74v7.24Z"
          style="fill:#fff"/>
    <path d="M230.39,789.72a1.91,1.91,0,0,0,.38,1.27,1.46,1.46,0,0,0,1.18.45,2.52,2.52,0,0,1,.48,0,0.93,0.93,0,0,1,.3.11,0.74,0.74,0,0,1,0,1.22,0.93,0.93,0,0,1-.3.11,2.52,2.52,0,0,1-.48,0h-0.31a3.24,3.24,0,0,1-1.31-.25,2.64,2.64,0,0,1-.94-0.68,2.83,2.83,0,0,1-.56-1,4,4,0,0,1-.19-1.24v-7.3h-0.83a2.36,2.36,0,0,1-.38,0,0.64,0.64,0,0,1-.25-0.1,0.67,0.67,0,0,1,0-1.1,0.65,0.65,0,0,1,.25-0.1l0.38,0h0.83v-2.53a2.81,2.81,0,0,1,0-.47,1,1,0,0,1,.13-0.33,0.7,0.7,0,0,1,.29-0.27,1,1,0,0,1,.86,0,0.7,0.7,0,0,1,.29.27,1,1,0,0,1,.13.33,2.8,2.8,0,0,1,0,.47v2.53h1.74l0.38,0a0.65,0.65,0,0,1,.25.1,0.67,0.67,0,0,1,0,1.1,0.64,0.64,0,0,1-.25.1,2.36,2.36,0,0,1-.38,0h-1.74v7.24Z"
          style="fill:#fff"/>
    <path d="M240.44,781a4.84,4.84,0,0,1,1.94.37,4.65,4.65,0,0,1,1.46,1,4.43,4.43,0,0,1,.74,1,5.2,5.2,0,0,1,.44,1.13,7.25,7.25,0,0,1,.21,1.24q0.05,0.64.05,1.33t-0.05,1.33a7.28,7.28,0,0,1-.21,1.24,5.24,5.24,0,0,1-.44,1.13,4.4,4.4,0,0,1-.74,1,4.64,4.64,0,0,1-1.46,1,5.32,5.32,0,0,1-3.88,0,4.65,4.65,0,0,1-1.46-1,4.42,4.42,0,0,1-.74-1,5.21,5.21,0,0,1-.44-1.13,7.28,7.28,0,0,1-.21-1.24q-0.05-.64-0.05-1.33t0.05-1.33a7.25,7.25,0,0,1,.21-1.24,5.18,5.18,0,0,1,.44-1.13,4.44,4.44,0,0,1,.74-1,4.66,4.66,0,0,1,1.46-1A4.84,4.84,0,0,1,240.44,781Zm0,10.54a2.9,2.9,0,0,0,2.14-.85,2.42,2.42,0,0,0,.5-0.73,4.44,4.44,0,0,0,.29-0.89,7.05,7.05,0,0,0,.14-1q0-.52,0-1t0-1a7,7,0,0,0-.14-1,4.46,4.46,0,0,0-.29-0.89,2.42,2.42,0,0,0-.5-0.73,2.92,2.92,0,0,0-1-.65,3.34,3.34,0,0,0-2.36,0,2.92,2.92,0,0,0-1,.65,2.42,2.42,0,0,0-.5.73,4.43,4.43,0,0,0-.29.89,7,7,0,0,0-.14,1q0,0.51,0,1t0,1a7.05,7.05,0,0,0,.14,1,4.41,4.41,0,0,0,.29.89,2.42,2.42,0,0,0,.5.73A2.9,2.9,0,0,0,240.44,791.53Z"
          style="fill:#fff"/>
    <path d="M257.08,789.72a1.91,1.91,0,0,0,.38,1.27,1.46,1.46,0,0,0,1.18.45,2.52,2.52,0,0,1,.48,0,0.93,0.93,0,0,1,.3.11,0.74,0.74,0,0,1,0,1.22,0.93,0.93,0,0,1-.3.11,2.52,2.52,0,0,1-.48,0h-0.31a3.24,3.24,0,0,1-1.31-.25,2.64,2.64,0,0,1-.94-0.68,2.83,2.83,0,0,1-.56-1,4,4,0,0,1-.19-1.24v-7.3H254.5a2.36,2.36,0,0,1-.38,0,0.64,0.64,0,0,1-.25-0.1,0.67,0.67,0,0,1,0-1.1,0.65,0.65,0,0,1,.25-0.1l0.38,0h0.83v-2.53a2.81,2.81,0,0,1,0-.47,1,1,0,0,1,.13-0.33,0.7,0.7,0,0,1,.29-0.27,1,1,0,0,1,.86,0,0.7,0.7,0,0,1,.29.27,1,1,0,0,1,.13.33,2.8,2.8,0,0,1,0,.47v2.53h1.74l0.38,0a0.65,0.65,0,0,1,.25.1,0.67,0.67,0,0,1,0,1.1,0.64,0.64,0,0,1-.25.1,2.36,2.36,0,0,1-.38,0h-1.74v7.24Z"
          style="fill:#fff"/>
    <path d="M264.76,792.34a1,1,0,0,1-.13.33,0.7,0.7,0,0,1-.29.27,1,1,0,0,1-.86,0,0.7,0.7,0,0,1-.29-0.27,1,1,0,0,1-.13-0.33,2.78,2.78,0,0,1,0-.47V776.94a2.8,2.8,0,0,1,0-.47,1,1,0,0,1,.13-0.33,0.7,0.7,0,0,1,.29-0.27,1,1,0,0,1,.86,0,0.7,0.7,0,0,1,.29.27,1,1,0,0,1,.13.33,2.81,2.81,0,0,1,0,.47v5.5A4.26,4.26,0,0,1,268.1,781a5,5,0,0,1,1.81.31,3.64,3.64,0,0,1,1.34.88,3.82,3.82,0,0,1,.83,1.38,5.36,5.36,0,0,1,.29,1.81v6.5a2.79,2.79,0,0,1,0,.47,1,1,0,0,1-.13.33,0.7,0.7,0,0,1-.29.27,1,1,0,0,1-.86,0,0.7,0.7,0,0,1-.29-0.27,1,1,0,0,1-.13-0.33,2.78,2.78,0,0,1,0-.47v-6.22a3.16,3.16,0,0,0-.77-2.33,2.85,2.85,0,0,0-2.11-.77,3.65,3.65,0,0,0-1.22.19,2.44,2.44,0,0,0-.93.58,2.58,2.58,0,0,0-.59,1,4,4,0,0,0-.21,1.36v6.22A2.79,2.79,0,0,1,264.76,792.34Z"
          style="fill:#fff"/>
    <path d="M277.67,787.49a4.59,4.59,0,0,0,.89,3,3.2,3.2,0,0,0,2.61,1.07,4.56,4.56,0,0,0,1.34-.2,3.33,3.33,0,0,0,1.19-.65,2.63,2.63,0,0,1,.44-0.33,0.77,0.77,0,0,1,.37-0.09,0.66,0.66,0,0,1,.28.06,0.74,0.74,0,0,1,.23.17,1,1,0,0,1,.17.25,0.65,0.65,0,0,1,.07.28,0.71,0.71,0,0,1-.13.4,2,2,0,0,1-.31.37,3.79,3.79,0,0,1-.4.32l-0.39.26a5,5,0,0,1-1.28.5,6.84,6.84,0,0,1-1.66.19,6,6,0,0,1-2.13-.36,4.23,4.23,0,0,1-1.64-1.1,5,5,0,0,1-1.05-1.88,10.05,10.05,0,0,1,0-5.3,5.37,5.37,0,0,1,1-1.9,4.15,4.15,0,0,1,1.54-1.16,4.94,4.94,0,0,1,2-.4,5,5,0,0,1,2,.39,4.21,4.21,0,0,1,1.52,1.11,5,5,0,0,1,1,1.73,7.3,7.3,0,0,1,.35,2.24,2.54,2.54,0,0,1,0,.4,0.7,0.7,0,0,1-.2.39,0.65,0.65,0,0,1-.37.2,2.62,2.62,0,0,1-.4,0h-7Zm6.26-1.32q0-.31,0-0.56c0-.17,0-0.32-0.07-0.47a4.24,4.24,0,0,0-.11-0.43q-0.07-.22-0.16-0.46A2.76,2.76,0,0,0,282.5,783a3.27,3.27,0,0,0-3.4,0,2.72,2.72,0,0,0-1.06,1.28q-0.1.24-.16,0.46a4.24,4.24,0,0,0-.11.43c0,0.14-.05.3-0.07,0.47s0,0.36,0,.56h6.26Z"
          style="fill:#fff"/>
    <path d="M297.4,791.79a3.33,3.33,0,0,1,0,.53,0.92,0.92,0,0,1-.14.34,0.82,0.82,0,0,1-.31.28,1,1,0,0,1-.9,0,0.82,0.82,0,0,1-.31-0.28,0.92,0.92,0,0,1-.14-0.34,3.33,3.33,0,0,1,0-.53V777a3.33,3.33,0,0,1,0-.53,0.92,0.92,0,0,1,.14-0.34,0.82,0.82,0,0,1,.31-0.28,1,1,0,0,1,.9,0,0.82,0.82,0,0,1,.31.28,0.92,0.92,0,0,1,.14.34,3.33,3.33,0,0,1,0,.53v14.78Z"
          style="fill:#fff"/>
    <path d="M311.39,791.87a3,3,0,0,1,0,.49,0.94,0.94,0,0,1-.13.32,0.7,0.7,0,0,1-.29.27,1,1,0,0,1-.86,0,0.7,0.7,0,0,1-.29-0.27,0.93,0.93,0,0,1-.13-0.32,2.91,2.91,0,0,1,0-.49V785.7a3.25,3.25,0,0,0-.77-2.36,2.85,2.85,0,0,0-2.12-.78,3.55,3.55,0,0,0-1.22.2,2.43,2.43,0,0,0-.93.59,2.69,2.69,0,0,0-.59,1,4.08,4.08,0,0,0-.21,1.37v6.17a2.91,2.91,0,0,1,0,.49,0.93,0.93,0,0,1-.13.32,0.7,0.7,0,0,1-.29.27,1,1,0,0,1-.86,0,0.7,0.7,0,0,1-.29-0.27,0.91,0.91,0,0,1-.13-0.32,2.9,2.9,0,0,1,0-.49v-9.65a2.8,2.8,0,0,1,0-.47,1,1,0,0,1,.13-0.33,0.7,0.7,0,0,1,.29-0.27,1,1,0,0,1,.86,0,0.7,0.7,0,0,1,.29.27,1.06,1.06,0,0,1,.13.33,2.81,2.81,0,0,1,0,.47v0.22a4.23,4.23,0,0,1,1.49-1.08,4.58,4.58,0,0,1,1.82-.36,5,5,0,0,1,1.74.28,3.75,3.75,0,0,1,2.25,2.26,5.54,5.54,0,0,1,.29,1.86v6.47Z"
          style="fill:#fff"/>
    <path d="M317.72,789.72a1.91,1.91,0,0,0,.38,1.27,1.46,1.46,0,0,0,1.18.45,2.52,2.52,0,0,1,.48,0,0.93,0.93,0,0,1,.3.11,0.74,0.74,0,0,1,0,1.22,0.93,0.93,0,0,1-.3.11,2.52,2.52,0,0,1-.48,0H319a3.24,3.24,0,0,1-1.31-.25,2.64,2.64,0,0,1-.94-0.68,2.83,2.83,0,0,1-.56-1,4,4,0,0,1-.19-1.24v-7.3h-0.83a2.36,2.36,0,0,1-.38,0,0.64,0.64,0,0,1-.25-0.1,0.67,0.67,0,0,1,0-1.1,0.65,0.65,0,0,1,.25-0.1l0.38,0H316v-2.53a2.81,2.81,0,0,1,0-.47,1,1,0,0,1,.13-0.33,0.7,0.7,0,0,1,.29-0.27,1,1,0,0,1,.86,0,0.7,0.7,0,0,1,.29.27,1,1,0,0,1,.13.33,2.8,2.8,0,0,1,0,.47v2.53h1.74l0.38,0a0.65,0.65,0,0,1,.25.1,0.67,0.67,0,0,1,0,1.1,0.64,0.64,0,0,1-.25.1,2.36,2.36,0,0,1-.38,0h-1.74v7.24Z"
          style="fill:#fff"/>
    <path d="M324.64,787.49a4.59,4.59,0,0,0,.89,3,3.2,3.2,0,0,0,2.61,1.07,4.56,4.56,0,0,0,1.34-.2,3.33,3.33,0,0,0,1.19-.65,2.63,2.63,0,0,1,.44-0.33,0.77,0.77,0,0,1,.37-0.09,0.66,0.66,0,0,1,.28.06,0.74,0.74,0,0,1,.23.17,1,1,0,0,1,.17.25,0.65,0.65,0,0,1,.07.28,0.71,0.71,0,0,1-.13.4,2,2,0,0,1-.31.37,3.79,3.79,0,0,1-.4.32l-0.39.26a5,5,0,0,1-1.28.5,6.84,6.84,0,0,1-1.66.19,6,6,0,0,1-2.13-.36,4.23,4.23,0,0,1-1.64-1.1,5,5,0,0,1-1.05-1.88,10.05,10.05,0,0,1,0-5.3,5.37,5.37,0,0,1,1-1.9,4.15,4.15,0,0,1,1.54-1.16,4.94,4.94,0,0,1,2-.4,5,5,0,0,1,2,.39,4.21,4.21,0,0,1,1.52,1.11,5,5,0,0,1,1,1.73,7.3,7.3,0,0,1,.35,2.24,2.54,2.54,0,0,1,0,.4,0.7,0.7,0,0,1-.2.39,0.65,0.65,0,0,1-.37.2,2.62,2.62,0,0,1-.4,0h-7Zm6.26-1.32q0-.31,0-0.56c0-.17,0-0.32-0.07-0.47a4.24,4.24,0,0,0-.11-0.43q-0.07-.22-0.16-0.46a2.76,2.76,0,0,0-1.06-1.29,3.27,3.27,0,0,0-3.4,0,2.72,2.72,0,0,0-1.06,1.28q-0.1.24-.16,0.46a4.24,4.24,0,0,0-.11.43c0,0.14-.05.3-0.07,0.47s0,0.36,0,.56h6.26Z"
          style="fill:#fff"/>
    <path d="M338,782.55a3.29,3.29,0,0,1,.6-0.65,3.76,3.76,0,0,1,.77-0.49,4.3,4.3,0,0,1,1.85-.42,4.51,4.51,0,0,1,1.14.13,3.57,3.57,0,0,1,1,.43,2,2,0,0,1,.47.38,0.73,0.73,0,0,1,.19.5,0.84,0.84,0,0,1-.07.34,0.87,0.87,0,0,1-.18.28,0.82,0.82,0,0,1-.6.25,0.87,0.87,0,0,1-.33-0.07,4.3,4.3,0,0,1-.5-0.26,3,3,0,0,0-.7-0.31,2.72,2.72,0,0,0-.77-0.11,2.85,2.85,0,0,0-1.19.24,2.66,2.66,0,0,0-.9.66,2.9,2.9,0,0,0-.57,1,4,4,0,0,0-.2,1.28v6.13a2.79,2.79,0,0,1,0,.47,1,1,0,0,1-.13.33,0.7,0.7,0,0,1-.29.27,1,1,0,0,1-.86,0,0.7,0.7,0,0,1-.29-0.27,1,1,0,0,1-.13-0.33,2.78,2.78,0,0,1,0-.47v-9.66a2.78,2.78,0,0,1,0-.47,1,1,0,0,1,.13-0.33,0.7,0.7,0,0,1,.29-0.27,1,1,0,0,1,.86,0,0.7,0.7,0,0,1,.29.27,1.05,1.05,0,0,1,.13.33,2.79,2.79,0,0,1,0,.47v0.35Z"
          style="fill:#fff"/>
    <path d="M355.72,791.87a3,3,0,0,1,0,.49,0.94,0.94,0,0,1-.13.32,0.7,0.7,0,0,1-.29.27,1,1,0,0,1-.86,0,0.7,0.7,0,0,1-.29-0.27,0.93,0.93,0,0,1-.13-0.32,2.91,2.91,0,0,1,0-.49V785.7a3.25,3.25,0,0,0-.77-2.36,2.85,2.85,0,0,0-2.12-.78,3.55,3.55,0,0,0-1.22.2,2.43,2.43,0,0,0-.93.59,2.69,2.69,0,0,0-.59,1,4.08,4.08,0,0,0-.21,1.37v6.17a2.91,2.91,0,0,1,0,.49,0.93,0.93,0,0,1-.13.32,0.7,0.7,0,0,1-.29.27,1,1,0,0,1-.86,0,0.7,0.7,0,0,1-.29-0.27,0.91,0.91,0,0,1-.13-0.32,2.9,2.9,0,0,1,0-.49v-9.65a2.8,2.8,0,0,1,0-.47,1,1,0,0,1,.13-0.33,0.7,0.7,0,0,1,.29-0.27,1,1,0,0,1,.86,0,0.7,0.7,0,0,1,.29.27,1.06,1.06,0,0,1,.13.33,2.81,2.81,0,0,1,0,.47v0.22a4.23,4.23,0,0,1,1.49-1.08,4.58,4.58,0,0,1,1.82-.36,5,5,0,0,1,1.74.28,3.75,3.75,0,0,1,2.25,2.26,5.54,5.54,0,0,1,.29,1.86v6.47Z"
          style="fill:#fff"/>
    <path d="M361,787.49a4.59,4.59,0,0,0,.89,3,3.2,3.2,0,0,0,2.61,1.07,4.56,4.56,0,0,0,1.34-.2,3.33,3.33,0,0,0,1.19-.65,2.63,2.63,0,0,1,.44-0.33,0.77,0.77,0,0,1,.37-0.09,0.66,0.66,0,0,1,.28.06,0.74,0.74,0,0,1,.23.17,1,1,0,0,1,.17.25,0.65,0.65,0,0,1,.07.28,0.71,0.71,0,0,1-.13.4,2,2,0,0,1-.31.37,3.79,3.79,0,0,1-.4.32l-0.39.26a5,5,0,0,1-1.28.5,6.84,6.84,0,0,1-1.66.19,6,6,0,0,1-2.13-.36,4.23,4.23,0,0,1-1.64-1.1,5,5,0,0,1-1.05-1.88,10.05,10.05,0,0,1,0-5.3,5.37,5.37,0,0,1,1-1.9,4.15,4.15,0,0,1,1.54-1.16,4.94,4.94,0,0,1,2-.4,5,5,0,0,1,2,.39,4.21,4.21,0,0,1,1.52,1.11,5,5,0,0,1,1,1.73,7.3,7.3,0,0,1,.35,2.24,2.54,2.54,0,0,1,0,.4,0.7,0.7,0,0,1-.2.39,0.65,0.65,0,0,1-.37.2,2.62,2.62,0,0,1-.4,0h-7Zm6.26-1.32q0-.31,0-0.56c0-.17,0-0.32-0.07-0.47a4.24,4.24,0,0,0-.11-0.43q-0.07-.22-0.16-0.46a2.76,2.76,0,0,0-1.06-1.29,3.27,3.27,0,0,0-3.4,0,2.72,2.72,0,0,0-1.06,1.28q-0.1.24-.16,0.46a4.24,4.24,0,0,0-.11.43c0,0.14-.05.3-0.07,0.47s0,0.36,0,.56h6.26Z"
          style="fill:#fff"/>
    <path d="M374.74,789.72a1.91,1.91,0,0,0,.38,1.27,1.46,1.46,0,0,0,1.18.45,2.52,2.52,0,0,1,.48,0,0.93,0.93,0,0,1,.3.11,0.74,0.74,0,0,1,0,1.22,0.93,0.93,0,0,1-.3.11,2.52,2.52,0,0,1-.48,0H376a3.24,3.24,0,0,1-1.31-.25,2.64,2.64,0,0,1-.94-0.68,2.83,2.83,0,0,1-.56-1,4,4,0,0,1-.19-1.24v-7.3h-0.83a2.36,2.36,0,0,1-.38,0,0.64,0.64,0,0,1-.25-0.1,0.67,0.67,0,0,1,0-1.1,0.65,0.65,0,0,1,.25-0.1l0.38,0H373v-2.53a2.81,2.81,0,0,1,0-.47,1,1,0,0,1,.13-0.33,0.7,0.7,0,0,1,.29-0.27,1,1,0,0,1,.86,0,0.7,0.7,0,0,1,.29.27,1,1,0,0,1,.13.33,2.8,2.8,0,0,1,0,.47v2.53h1.74l0.38,0a0.65,0.65,0,0,1,.25.1,0.67,0.67,0,0,1,0,1.1,0.64,0.64,0,0,1-.25.1,2.36,2.36,0,0,1-.38,0h-1.74v7.24Z"
          style="fill:#fff"/>
    <path d="M101.18,730.37a3.51,3.51,0,0,1-.33.29,0.64,0.64,0,0,1-.4.13,0.81,0.81,0,0,1-.59-0.25,0.77,0.77,0,0,1-.24-0.56,0.69,0.69,0,0,1,.1-0.38,2.68,2.68,0,0,1,.37-0.43l2.93-2.93a2,2,0,0,1,.47-0.36,1.1,1.1,0,0,1,.51-0.12,1,1,0,0,1,.68.26,0.73,0.73,0,0,1,.22.41,3.13,3.13,0,0,1,0,.58v14.86a2.81,2.81,0,0,1,0,.47,1.06,1.06,0,0,1-.13.33,0.7,0.7,0,0,1-.29.27,1,1,0,0,1-.86,0,0.7,0.7,0,0,1-.29-0.27,1,1,0,0,1-.13-0.33,2.8,2.8,0,0,1,0-.47v-13.5Z"
          style="fill:#4e768d"/>
    <path d="M98.51,792.11a1,1,0,0,1,.13-0.47A4.15,4.15,0,0,1,99,791l6.13-7.93a5.91,5.91,0,0,0,.85-1.42,4.22,4.22,0,0,0,.28-1.6,3.29,3.29,0,0,0-.19-1.15,2.43,2.43,0,0,0-.56-0.89,2.61,2.61,0,0,0-.92-0.58,3.45,3.45,0,0,0-1.24-.21,3.79,3.79,0,0,0-1,.13,2.8,2.8,0,0,0-.87.4,2.51,2.51,0,0,0-.68.71,3.07,3.07,0,0,0-.42,1.06,1.81,1.81,0,0,1-.35.79,0.65,0.65,0,0,1-.23.18,0.79,0.79,0,0,1-.36.07,0.73,0.73,0,0,1-.62-0.29,0.87,0.87,0,0,1-.15-0.3,1.22,1.22,0,0,1,0-.32,2.74,2.74,0,0,1,.08-0.59,4.35,4.35,0,0,1,.23-0.71,4.74,4.74,0,0,1,.4-0.74,3.92,3.92,0,0,1,.58-0.7,4.47,4.47,0,0,1,1.46-.91,5.37,5.37,0,0,1,2-.32,5.93,5.93,0,0,1,1.92.29,4.09,4.09,0,0,1,1.48.86,3.84,3.84,0,0,1,.95,1.38,4.82,4.82,0,0,1,.34,1.85,5.75,5.75,0,0,1-.1,1.09,4.68,4.68,0,0,1-.29,1,6.2,6.2,0,0,1-.5.92c-0.2.31-.43,0.63-0.7,1l-5.68,7.34h6.29a2.45,2.45,0,0,1,.44,0,0.82,0.82,0,0,1,.29.11,0.69,0.69,0,0,1,.34.64,0.74,0.74,0,0,1-.34.65,1,1,0,0,1-.29.1,2.56,2.56,0,0,1-.44,0H99.87a6.48,6.48,0,0,1-.68,0,0.73,0.73,0,0,1-.46-0.23A0.78,0.78,0,0,1,98.51,792.11Z"
          style="fill:#4e768d"/>
    <path d="M102.08,834.19a0.72,0.72,0,0,1,.34-0.62,1.24,1.24,0,0,1,.64-0.13,2.89,2.89,0,0,0,2.24-.85,3.28,3.28,0,0,0,.74-2.26,3.41,3.41,0,0,0-.23-1.28,2.86,2.86,0,0,0-.62-1,2.6,2.6,0,0,0-.94-0.6,3.39,3.39,0,0,0-1.19-.2,3.16,3.16,0,0,0-1.88.5,2.68,2.68,0,0,0-1,1.66,1.88,1.88,0,0,1-.16.46,1,1,0,0,1-.22.29,0.61,0.61,0,0,1-.23.14,0.93,0.93,0,0,1-.31,0,0.71,0.71,0,0,1-.45-0.14,0.74,0.74,0,0,1-.26-0.38,1.48,1.48,0,0,1-.07-0.34,1.52,1.52,0,0,1,0-.36A3.36,3.36,0,0,1,98.9,828a3.84,3.84,0,0,1,.77-1,3.88,3.88,0,0,1,1.47-.92,5.91,5.91,0,0,1,1.91-.28,5.56,5.56,0,0,1,1.89.31,4.34,4.34,0,0,1,1.51.9,4.11,4.11,0,0,1,1,1.43,4.84,4.84,0,0,1,.36,1.91,4.43,4.43,0,0,1-.59,2.35,3.78,3.78,0,0,1-1.78,1.49,4.31,4.31,0,0,1,1.08.55,3.23,3.23,0,0,1,.83.86,4.23,4.23,0,0,1,.53,1.2,5.79,5.79,0,0,1,.19,1.56,4.72,4.72,0,0,1-.41,2,4.6,4.6,0,0,1-1.1,1.51,4.86,4.86,0,0,1-1.61,1,5.69,5.69,0,0,1-2,.34,8.69,8.69,0,0,1-1.22-.08,4.93,4.93,0,0,1-1-.24,4.36,4.36,0,0,1-.82-0.4,4.41,4.41,0,0,1-.71-0.56,3.73,3.73,0,0,1-.8-1.13,3.24,3.24,0,0,1-.31-1.4,1.6,1.6,0,0,1,.06-0.46,0.77,0.77,0,0,1,.19-0.34,0.78,0.78,0,0,1,.61-0.25,0.72,0.72,0,0,1,.53.19,0.94,0.94,0,0,1,.21.3,1.57,1.57,0,0,1,.13.41,2.66,2.66,0,0,0,1,1.84,3.6,3.6,0,0,0,2.11.55,3.67,3.67,0,0,0,1.3-.23,3,3,0,0,0,1.78-1.69,3.88,3.88,0,0,0-.56-3.8,3.25,3.25,0,0,0-2.44-.88,1.24,1.24,0,0,1-.64-0.13A0.72,0.72,0,0,1,102.08,834.19Z"
          style="fill:#4e768d"/>
    <path d="M257.83,114.52c0-.47,0-2,0-3.64-5.44,1.18-6.59-2.31-6.59-2.31a5.18,5.18,0,0,0-2.17-2.86c-1.77-1.21.13-1.19,0.13-1.19a4.11,4.11,0,0,1,3,2,4.16,4.16,0,0,0,5.69,1.63,4.17,4.17,0,0,1,1.24-2.62c-4.34-.49-8.91-2.17-8.91-9.67a7.57,7.57,0,0,1,2-5.25,7,7,0,0,1,.19-5.18s1.64-.53,5.38,2a18.54,18.54,0,0,1,9.8,0c3.73-2.53,5.37-2,5.37-2a7,7,0,0,1,.19,5.18,7.55,7.55,0,0,1,2,5.25c0,7.51-4.58,9.17-8.93,9.65a4.68,4.68,0,0,1,1.33,3.62c0,2.62,0,4.72,0,5.37l-5.16.42Z"
          style="fill:#e6e6e6;fill-rule:evenodd"/>
    <path d="M279.72,564.94c-5.67-1.23-10.85-2.47-8.39-7.15,7.65-14.8,2-22.69-6.17-22.69-8.39,0-14.06,8.14-6.16,22.44,2.71,4.93-3,5.92-8.39,7.15-5.67,1.23-5.18,4.19-5.18,9.62H284.9C284.9,569.14,285.4,566.18,279.72,564.94Z"
          style="fill:#4e768d"/>
    <circle cx="263.39" cy="558.71" r="45.45" style="fill:none;stroke:#ccc;stroke-miterlimit:10;stroke-dasharray:6"/>
    <line x1="263.53" y1="444.68" x2="264.14" y2="340.37" style="fill:none;stroke:#ccc;stroke-miterlimit:10"/>
    <polygon points="268.21 343.71 267.48 344.39 264.14 340.76 260.76 344.35 260.03 343.66 264.15 339.29 268.21 343.71"
             style="fill:#ccc"/>
    <ellipse cx="265.17" cy="287.6" rx="38.5" ry="11.98"
             style="fill:#4e768d;stroke:#fff;stroke-miterlimit:10;stroke-width:1.1218355161959px"/>
    <rect x="226.67" y="221.51" width="77" height="65.62" style="fill:#4e768d"/>
    <ellipse cx="265.17" cy="221.51" rx="38.5" ry="9.52" style="fill:#4e768d;stroke:#fff;stroke-miterlimit:10"/>
    <line x1="226.67" y1="221.51" x2="226.67" y2="287.13" style="fill:#4c6891;stroke:#fff;stroke-miterlimit:10"/>
    <line x1="303.67" y1="221.51" x2="303.67" y2="287.13" style="fill:#4c6891;stroke:#fff;stroke-miterlimit:10"/>
    <path d="M303.67,244.8c0,5.26-17.24,9.52-38.5,9.52s-38.5-4.26-38.5-9.52"
          style="fill:none;stroke:#fff;stroke-miterlimit:10"/>
    <path d="M303.67,267.62c0,5.26-17.24,9.52-38.5,9.52s-38.5-4.26-38.5-9.52"
          style="fill:none;stroke:#fff;stroke-miterlimit:10"/>
    <line x1="97" y1="673.35" x2="1096" y2="673.35" style="fill:none;stroke:#4e768d;stroke-miterlimit:10"/>
    <line x1="420.06" y1="253.81" x2="857.85" y2="139.87" style="fill:none;stroke:#ccc;stroke-miterlimit:10"/>
    <polygon points="855.67 144.66 854.82 144.13 857.47 139.97 853.13 137.63 853.61 136.75 858.89 139.6 855.67 144.66"
             style="fill:#ccc"/>
    <line x1="420.06" y1="264.7" x2="859.89" y2="264.7" style="fill:none;stroke:#ccc;stroke-miterlimit:10"/>
    <polygon points="856.58 268.79 855.9 268.06 859.51 264.7 855.9 261.34 856.58 260.61 860.98 264.7 856.58 268.79"
             style="fill:#ccc"/>
    <line x1="421" y1="275" x2="856.91" y2="394.58" style="fill:none;stroke:#ccc;stroke-miterlimit:10"/>
    <polygon points="852.63 397.64 852.17 396.76 856.54 394.48 853.94 390.28 854.79 389.76 857.95 394.87 852.63 397.64"
             style="fill:#ccc"/>
    <rect x="234.03" y="444.68" width="58" height="51.92" style="fill:#4e768d;stroke:#fff;stroke-miterlimit:10"/>
    <line x1="234.03" y1="467.18" x2="292.03" y2="467.18" style="fill:#4e768d;stroke:#fff;stroke-miterlimit:10"/>
    <line x1="240.46" y1="478.18" x2="283.08" y2="478.18" style="fill:#4e768d;stroke:#fff;stroke-miterlimit:10"/>
    <line x1="240.46" y1="482.43" x2="283.08" y2="482.43" style="fill:#4e768d;stroke:#fff;stroke-miterlimit:10"/>
    <line x1="240.46" y1="486.64" x2="270.8" y2="486.64" style="fill:#4e768d;stroke:#fff;stroke-miterlimit:10"/>
    <line x1="292.03" y1="467.03" x2="234.03" y2="445.35" style="fill:#4e768d;stroke:#fff;stroke-miterlimit:10"/>
    <line x1="291.3" y1="445.35" x2="234.03" y2="467.03" style="fill:#4e768d;stroke:#fff;stroke-miterlimit:10"/>
    <rect x="876.59" y="374.04" width="58" height="51.92" style="fill:#4e768d;stroke:#ccc;stroke-miterlimit:10"/>
    <line x1="876.59" y1="396.54" x2="934.59" y2="396.54" style="fill:#4e768d;stroke:#ccc;stroke-miterlimit:10"/>
    <line x1="883.02" y1="407.54" x2="925.64" y2="407.54" style="fill:#4e768d;stroke:#ccc;stroke-miterlimit:10"/>
    <line x1="883.02" y1="411.79" x2="925.64" y2="411.79" style="fill:#4e768d;stroke:#ccc;stroke-miterlimit:10"/>
    <line x1="883.02" y1="416" x2="913.36" y2="416" style="fill:#4e768d;stroke:#ccc;stroke-miterlimit:10"/>
    <line x1="934.59" y1="396.39" x2="876.59" y2="374.7" style="fill:#4e768d;stroke:#ccc;stroke-miterlimit:10"/>
    <line x1="933.86" y1="374.7" x2="876.59" y2="396.39" style="fill:#4e768d;stroke:#ccc;stroke-miterlimit:10"/>
    <rect x="876.59" y="241.66" width="58" height="51.92" style="fill:#4e768d;stroke:#ccc;stroke-miterlimit:10"/>
    <line x1="876.59" y1="264.16" x2="934.59" y2="264.16" style="fill:#4e768d;stroke:#ccc;stroke-miterlimit:10"/>
    <line x1="883.02" y1="275.16" x2="925.64" y2="275.16" style="fill:#4e768d;stroke:#ccc;stroke-miterlimit:10"/>
    <line x1="883.02" y1="279.41" x2="925.64" y2="279.41" style="fill:#4e768d;stroke:#ccc;stroke-miterlimit:10"/>
    <line x1="883.02" y1="283.62" x2="913.36" y2="283.62" style="fill:#4e768d;stroke:#ccc;stroke-miterlimit:10"/>
    <line x1="934.59" y1="264.01" x2="876.59" y2="242.33" style="fill:#4e768d;stroke:#ccc;stroke-miterlimit:10"/>
    <line x1="933.86" y1="242.33" x2="876.59" y2="264.01" style="fill:#4e768d;stroke:#ccc;stroke-miterlimit:10"/>
    <rect x="876.59" y="110.27" width="58" height="51.92" style="fill:#4e768d;stroke:#ccc;stroke-miterlimit:10"/>
    <line x1="876.59" y1="132.77" x2="934.59" y2="132.77" style="fill:#4e768d;stroke:#ccc;stroke-miterlimit:10"/>
    <line x1="883.02" y1="143.77" x2="925.64" y2="143.77" style="fill:#4e768d;stroke:#ccc;stroke-miterlimit:10"/>
    <line x1="883.02" y1="148.02" x2="925.64" y2="148.02" style="fill:#4e768d;stroke:#ccc;stroke-miterlimit:10"/>
    <line x1="883.02" y1="152.23" x2="913.36" y2="152.23" style="fill:#4e768d;stroke:#ccc;stroke-miterlimit:10"/>
    <line x1="934.59" y1="132.62" x2="876.59" y2="110.93" style="fill:#4e768d;stroke:#ccc;stroke-miterlimit:10"/>
    <line x1="933.86" y1="110.93" x2="876.59" y2="132.62" style="fill:#4e768d;stroke:#ccc;stroke-miterlimit:10"/>
    <path d="M173.26,468.05a5.34,5.34,0,0,1-.5.44,1,1,0,0,1-.6.19,1.21,1.21,0,0,1-.88-0.38,1.16,1.16,0,0,1-.36-0.85,1,1,0,0,1,.15-0.57,4.11,4.11,0,0,1,.55-0.64l4.39-4.39a2.91,2.91,0,0,1,.71-0.54,1.65,1.65,0,0,1,.77-0.18,1.47,1.47,0,0,1,1,.4,1.09,1.09,0,0,1,.32.61,4.66,4.66,0,0,1,.07.86V485.3a4.27,4.27,0,0,1,0,.71,1.57,1.57,0,0,1-.19.5,1,1,0,0,1-.43.41,1.45,1.45,0,0,1-1.3,0,1,1,0,0,1-.43-0.41,1.57,1.57,0,0,1-.19-0.5,4.17,4.17,0,0,1,0-.71V465Z"
          style="fill:#4e768d"/>
    <path d="M169.27,273.57a1.48,1.48,0,0,1,.19-0.71,6.31,6.31,0,0,1,.6-0.87l9.2-11.9a8.89,8.89,0,0,0,1.27-2.12,6.35,6.35,0,0,0,.42-2.39,5,5,0,0,0-.29-1.72,3.67,3.67,0,0,0-.85-1.34,3.92,3.92,0,0,0-1.38-.87,5.19,5.19,0,0,0-1.86-.31,5.68,5.68,0,0,0-1.47.19,4.22,4.22,0,0,0-1.31.59,3.78,3.78,0,0,0-1,1.06,4.62,4.62,0,0,0-.63,1.59,2.73,2.73,0,0,1-.52,1.19,1,1,0,0,1-.34.27,1.2,1.2,0,0,1-.54.11,1.1,1.1,0,0,1-.94-0.43,1.33,1.33,0,0,1-.22-0.45,1.87,1.87,0,0,1-.06-0.49,4.08,4.08,0,0,1,.12-0.89A6.51,6.51,0,0,1,170,253a7.11,7.11,0,0,1,.59-1.12,5.89,5.89,0,0,1,.86-1,6.67,6.67,0,0,1,2.19-1.37,8.07,8.07,0,0,1,2.92-.49,8.9,8.9,0,0,1,2.88.44,6.15,6.15,0,0,1,2.21,1.29,5.76,5.76,0,0,1,1.42,2.07,7.23,7.23,0,0,1,.5,2.77,8.54,8.54,0,0,1-.14,1.63,7,7,0,0,1-.44,1.44,9.25,9.25,0,0,1-.75,1.39q-0.45.69-1,1.47l-8.51,11h9.43a3.73,3.73,0,0,1,.67,0,1.24,1.24,0,0,1,.43.17,1,1,0,0,1,.5,1,1.1,1.1,0,0,1-.5,1,1.48,1.48,0,0,1-.43.15,3.73,3.73,0,0,1-.67,0H171.3a9.4,9.4,0,0,1-1,0,1.09,1.09,0,0,1-.69-0.35A1.17,1.17,0,0,1,169.27,273.57Z"
          style="fill:#4e768d"/>
    <path d="M388.61,261.69a1.07,1.07,0,0,1,.5-0.94,1.85,1.85,0,0,1,1-.2,4.33,4.33,0,0,0,3.37-1.27,4.91,4.91,0,0,0,1.12-3.39,5.12,5.12,0,0,0-.34-1.93,4.27,4.27,0,0,0-.94-1.44,3.9,3.9,0,0,0-1.41-.9,5.08,5.08,0,0,0-1.79-.31,4.74,4.74,0,0,0-2.82.76,4,4,0,0,0-1.45,2.48,2.82,2.82,0,0,1-.23.69,1.54,1.54,0,0,1-.32.44,0.93,0.93,0,0,1-.34.22,1.38,1.38,0,0,1-.47.07,1.07,1.07,0,0,1-.68-0.22,1.12,1.12,0,0,1-.39-0.58,2.52,2.52,0,0,1-.09-1,5,5,0,0,1,.56-1.81,5.75,5.75,0,0,1,1.15-1.56,5.81,5.81,0,0,1,2.21-1.38,8.84,8.84,0,0,1,2.87-.42,8.33,8.33,0,0,1,2.83.47,6.54,6.54,0,0,1,2.26,1.35,6.2,6.2,0,0,1,1.49,2.15,7.28,7.28,0,0,1,.54,2.87,6.63,6.63,0,0,1-.89,3.53,5.65,5.65,0,0,1-2.67,2.23,6.47,6.47,0,0,1,1.62.83,4.85,4.85,0,0,1,1.25,1.3,6.33,6.33,0,0,1,.8,1.8,8.66,8.66,0,0,1,.29,2.34,7.09,7.09,0,0,1-.61,3,6.9,6.9,0,0,1-1.65,2.27,7.27,7.27,0,0,1-2.42,1.44,8.52,8.52,0,0,1-2.93.5,13,13,0,0,1-1.83-.12,7.37,7.37,0,0,1-1.49-.36,6.38,6.38,0,0,1-1.22-.59,6.52,6.52,0,0,1-1.06-.84,5.62,5.62,0,0,1-1.21-1.69,4.88,4.88,0,0,1-.47-2.11,2.43,2.43,0,0,1,.09-0.68,1.22,1.22,0,0,1,1.21-.88,1.07,1.07,0,0,1,.79.29,1.38,1.38,0,0,1,.32.45,2.36,2.36,0,0,1,.19.61,4,4,0,0,0,1.5,2.75,5.4,5.4,0,0,0,3.16.83,5.53,5.53,0,0,0,1.94-.34,4.57,4.57,0,0,0,2.66-2.53,5.83,5.83,0,0,0-.84-5.7,4.88,4.88,0,0,0-3.66-1.31,1.85,1.85,0,0,1-1-.2A1.07,1.07,0,0,1,388.61,261.69Z"
          style="fill:#4e768d"/>
    <rect x="417.75" y="238.61" width="8.75" height="45.25" style="fill:#204056"/>
    <path d="M713.32,248.19a2.06,2.06,0,0,1,2-1.49q1.84,0,2.07,2.65,0,0.49,0,1.11v6.18H716v-6a5.87,5.87,0,0,0-.23-2.15,1,1,0,0,0-.42-0.49,1.2,1.2,0,0,0-.42-0.07,1.14,1.14,0,0,0-1.1.86,5.78,5.78,0,0,0-.21,1.86v6h-1.34v-5.88a4.56,4.56,0,0,0-.46-2.52,0.82,0.82,0,0,0-.68-0.3,1,1,0,0,0-.76.39,3,3,0,0,0-.59,2v6.34h-1.47V247h1.27l0.1,1.27a3.19,3.19,0,0,1,.7-1.11,1.51,1.51,0,0,1,1.12-.45,1.72,1.72,0,0,1,1.14.4A2.08,2.08,0,0,1,713.32,248.19Z"
          style="fill:#7a98a9"/>
    <path d="M723.91,254.8l2.55-7.81h1.75q-2.67,7.54-3.16,8.78l-0.66,1.69q-0.18.45-.4,0.92a4.61,4.61,0,0,1-.52.87,2.74,2.74,0,0,1-.57.58,2.88,2.88,0,0,1-.84.35,9.24,9.24,0,0,1-2.14.16L719.74,259a10,10,0,0,0,1.4-.05l0.44-.12a0.85,0.85,0,0,0,.32-0.16l0.26-.24a5.55,5.55,0,0,0,.91-2q-2.48-5.7-3.58-8.47l-0.38-1h1.73Z"
          style="fill:#7a98a9"/>
    <path d="M732.78,256.63h-1.63L729.26,247h1.61l1.15,7.44,1.61-7.44h1.91l1.57,7.42,1-7.42h1.51l-1.77,9.64h-1.69l-1.61-8.38Z"
          style="fill:#7a98a9"/>
    <path d="M743.45,256.18a4,4,0,0,1-1.5-1.81,6.48,6.48,0,0,1-.49-2.57,6.91,6.91,0,0,1,.45-2.57,4.27,4.27,0,0,1,1.35-1.84,3.17,3.17,0,0,1,2-.7,3.36,3.36,0,0,1,3,1.4,6,6,0,0,1,.95,3.44v0.54h-6.11a4.76,4.76,0,0,0,.74,2.52,2.32,2.32,0,0,0,2.07,1,7.38,7.38,0,0,0,2.58-1l0.53,1.09a4.22,4.22,0,0,1-3.12,1.14A4.27,4.27,0,0,1,743.45,256.18Zm4.21-5.29q-0.18-3-2.07-3-2.14,0-2.45,3h4.53Z"
          style="fill:#7a98a9"/>
    <path d="M753.76,248.32a3.19,3.19,0,0,1,2.92-1.62,3.15,3.15,0,0,1,2.86,1.41,6.37,6.37,0,0,1,.91,3.53,5.93,5.93,0,0,1-1.32,4.19,3.36,3.36,0,0,1-2.58,1,2.86,2.86,0,0,1-1.65-.4,5.51,5.51,0,0,1-1.14-1.14l0,1.32h-1.58V243.05l1.6-.18v5.44Zm0.06,4.64a3.78,3.78,0,0,0,.74,1.94,2.39,2.39,0,0,0,4-1,5.92,5.92,0,0,0,.29-1.85,13.45,13.45,0,0,0-.06-1.48,3.77,3.77,0,0,0-.69-1.95,2.07,2.07,0,0,0-1.74-.72,2.23,2.23,0,0,0-2.41,1.9,7.43,7.43,0,0,0-.18,1.69A13.22,13.22,0,0,0,753.82,253Z"
          style="fill:#7a98a9"/>
    <path d="M769.86,252.13a2.88,2.88,0,0,1,.58,1.93,2.46,2.46,0,0,1-1,2,3.76,3.76,0,0,1-2.41.76,7.84,7.84,0,0,1-2-.26,4.27,4.27,0,0,1-1.44-.61l0.4-1.15a5,5,0,0,0,1.17.46,6.18,6.18,0,0,0,1.74.23,2.56,2.56,0,0,0,1.49-.39,1.22,1.22,0,0,0,.56-1,1.7,1.7,0,0,0-.28-1,1.85,1.85,0,0,0-1.07-.57l-1.63-.4a3.13,3.13,0,0,1-1.88-1,2.87,2.87,0,0,1-.47-1.67,2.61,2.61,0,0,1,.81-1.85,3.19,3.19,0,0,1,2.37-.86h0.11a6.23,6.23,0,0,1,3,.66l-0.35,1.13a6.6,6.6,0,0,0-2.6-.54,2.19,2.19,0,0,0-1.34.41,1.22,1.22,0,0,0-.52,1,1.36,1.36,0,0,0,.26.91,1.92,1.92,0,0,0,1,.48l1.68,0.41A3.42,3.42,0,0,1,769.86,252.13Z"
          style="fill:#7a98a9"/>
    <path d="M774.5,248.22V247h4.35v8.41h2.76v1.23h-7.42V255.4h3.06v-7.18H774.5Zm2.49-3.77v-0.87a0.68,0.68,0,0,1,.36-0.56,1.16,1.16,0,0,1,1.42,0,0.68,0.68,0,0,1,.36.56v0.87a0.68,0.68,0,0,1-.36.56,1.16,1.16,0,0,1-1.42,0A0.68,0.68,0,0,1,777,244.45Z"
          style="fill:#7a98a9"/>
    <path d="M788.18,248.22v4.53a7.5,7.5,0,0,0,.09,1.34,1.59,1.59,0,0,0,.37.8,1.36,1.36,0,0,0,.72.41,5.35,5.35,0,0,0,1.2.11h1.77l-0.09,1.23h-1.62q-2.49,0-3.31-.91a3.32,3.32,0,0,1-.66-1.92,14.31,14.31,0,0,1-.06-1.45v-4.12h-2.72L784,247h2.55v-3.32l1.6-.47V247h4.06v1.23h-4.06Z"
          style="fill:#7a98a9"/>
    <path d="M797.46,256.18a4,4,0,0,1-1.5-1.81,6.48,6.48,0,0,1-.49-2.57,6.91,6.91,0,0,1,.45-2.57,4.27,4.27,0,0,1,1.35-1.84,3.17,3.17,0,0,1,2-.7,3.36,3.36,0,0,1,3,1.4,6,6,0,0,1,.95,3.44v0.54h-6.11a4.76,4.76,0,0,0,.74,2.52,2.32,2.32,0,0,0,2.07,1,7.38,7.38,0,0,0,2.58-1l0.53,1.09a4.22,4.22,0,0,1-3.12,1.14A4.27,4.27,0,0,1,797.46,256.18Zm4.21-5.29q-0.18-3-2.07-3-2.14,0-2.45,3h4.53Z"
          style="fill:#7a98a9"/>
    <path d="M811.38,256.63h-2.65V254h2.65v2.65Z" style="fill:#7a98a9"/>
    <path d="M824.27,256a3.73,3.73,0,0,1-2.63.85,4.66,4.66,0,0,1-2-.42,4.07,4.07,0,0,1-1.47-1.12,5.45,5.45,0,0,1-1.2-3.56,5.65,5.65,0,0,1,.55-2.49,4.56,4.56,0,0,1,1.62-1.85,4.68,4.68,0,0,1,2.65-.71,3.39,3.39,0,0,1,2.44.83l-0.4,1.07a4,4,0,0,0-2.29-.68,2.57,2.57,0,0,0-2.11,1.09,4.41,4.41,0,0,0-.84,2.77,4.34,4.34,0,0,0,.84,2.75,2.61,2.61,0,0,0,2.14,1.07,3.88,3.88,0,0,0,2.3-.7Z"
          style="fill:#7a98a9"/>
    <path d="M834.81,248.1a6,6,0,0,1,1,3.67,5.66,5.66,0,0,1-1.13,3.67,3.75,3.75,0,0,1-3.08,1.4,4.15,4.15,0,0,1-1.85-.4,3.46,3.46,0,0,1-1.31-1.09,6.06,6.06,0,0,1-1-3.64,5.64,5.64,0,0,1,1.12-3.63,3.8,3.8,0,0,1,3.14-1.39A3.59,3.59,0,0,1,834.81,248.1Zm-3.16,7.51a2.27,2.27,0,0,0,2.29-1.67,5.36,5.36,0,0,0,.33-1.84,11.83,11.83,0,0,0-.07-1.47,3.88,3.88,0,0,0-.76-2,2.14,2.14,0,0,0-1.78-.76,2.23,2.23,0,0,0-2.23,1.71,5.82,5.82,0,0,0-.32,1.92,6.72,6.72,0,0,0,.55,2.92A2,2,0,0,0,831.65,255.62Z"
          style="fill:#7a98a9"/>
    <path d="M842.94,248.19a2.06,2.06,0,0,1,2-1.49q1.84,0,2.07,2.65,0,0.49,0,1.11v6.18h-1.47v-6a5.87,5.87,0,0,0-.23-2.15A1,1,0,0,0,845,248a1.2,1.2,0,0,0-.42-0.07,1.14,1.14,0,0,0-1.1.86,5.78,5.78,0,0,0-.21,1.86v6H841.9v-5.88a4.56,4.56,0,0,0-.46-2.52,0.82,0.82,0,0,0-.68-0.3,1,1,0,0,0-.76.39,3,3,0,0,0-.59,2v6.34h-1.47V247h1.27l0.1,1.27a3.19,3.19,0,0,1,.7-1.11,1.51,1.51,0,0,1,1.12-.45,1.72,1.72,0,0,1,1.14.4A2.08,2.08,0,0,1,842.94,248.19Z"
          style="fill:#7a98a9"/>
    <path d="M709.56,161.2a2.06,2.06,0,0,1,1.59-2q1.78-.46,2.68,2,0.17,0.47.32,1.06l1.56,6-1.42.37-1.52-5.8a5.87,5.87,0,0,0-.76-2,1,1,0,0,0-.53-0.37,1.2,1.2,0,0,0-.42,0,1.14,1.14,0,0,0-.85,1.11,5.78,5.78,0,0,0,.27,1.86l1.51,5.78-1.3.34-1.49-5.69a4.56,4.56,0,0,0-1.08-2.32,0.82,0.82,0,0,0-.74-0.12,1,1,0,0,0-.64.57,3,3,0,0,0-.07,2.06l1.6,6.13-1.42.37-2.44-9.33,1.23-.32,0.42,1.21a3.19,3.19,0,0,1,.4-1.25,1.51,1.51,0,0,1,1-.72,1.72,1.72,0,0,1,1.21.09A2.08,2.08,0,0,1,709.56,161.2Z"
          style="fill:#7a98a9"/>
    <path d="M721.48,164.92l0.49-8.2,1.69-.44q-0.68,8-.83,9.3l-0.21,1.8q-0.06.48-.15,1a4.61,4.61,0,0,1-.28,1,2.74,2.74,0,0,1-.4.7,2.88,2.88,0,0,1-.73.55,9.24,9.24,0,0,1-2,.7L718.51,170a10,10,0,0,0,1.34-.41l0.4-.23a0.85,0.85,0,0,0,.27-0.23l0.19-.3a5.55,5.55,0,0,0,.37-2.18q-3.84-4.88-5.6-7.29l-0.61-.83,1.68-.44Z"
          style="fill:#7a98a9"/>
    <path d="M730.52,164.45l-1.58.41L724.68,156l1.56-.41,3,6.91-0.33-7.61,1.85-.48,3.4,6.78-0.9-7.43,1.46-.38,0.73,9.77-1.63.43-3.67-7.7Z"
          style="fill:#7a98a9"/>
    <path d="M740.73,161.31a4,4,0,0,1-1.91-1.37,6.48,6.48,0,0,1-1.12-2.36,6.91,6.91,0,0,1-.21-2.6,4.27,4.27,0,0,1,.84-2.12,3.17,3.17,0,0,1,1.74-1.18,3.36,3.36,0,0,1,3.24.6,6,6,0,0,1,1.79,3.08l0.14,0.52-5.91,1.55a4.76,4.76,0,0,0,1.36,2.25,2.32,2.32,0,0,0,2.26.48,7.38,7.38,0,0,0,2.24-1.62l0.79,0.92a4.22,4.22,0,0,1-2.73,1.89A4.27,4.27,0,0,1,740.73,161.31Zm2.74-6.18q-0.92-2.82-2.76-2.34-2.07.54-1.62,3.49Z"
          style="fill:#7a98a9"/>
    <path d="M748.72,151.09a3.19,3.19,0,0,1,2.42-2.3,3.15,3.15,0,0,1,3.12.64,6.37,6.37,0,0,1,1.77,3.19,5.93,5.93,0,0,1-.22,4.39,3.36,3.36,0,0,1-2.24,1.64,2.86,2.86,0,0,1-1.7,0,5.51,5.51,0,0,1-1.39-.81l0.32,1.28-1.53.4-3.43-13.14,1.5-.57Zm1.23,4.47a3.78,3.78,0,0,0,1.21,1.69,2.39,2.39,0,0,0,3.61-2,5.92,5.92,0,0,0-.19-1.86,13.45,13.45,0,0,0-.43-1.42,3.77,3.77,0,0,0-1.16-1.71,2.07,2.07,0,0,0-1.86-.25,2.23,2.23,0,0,0-1.85,2.45,7.43,7.43,0,0,0,.25,1.68A13.22,13.22,0,0,0,749.95,155.57Z"
          style="fill:#7a98a9"/>
    <path d="M765.25,150.71a2.88,2.88,0,0,1,1,1.72,2.46,2.46,0,0,1-.42,2.2,3.76,3.76,0,0,1-2.14,1.35,7.84,7.84,0,0,1-2,.26,4.27,4.27,0,0,1-1.55-.23l0.09-1.21a5,5,0,0,0,1.25.15,6.18,6.18,0,0,0,1.74-.21,2.56,2.56,0,0,0,1.35-.76,1.22,1.22,0,0,0,.28-1.15,1.7,1.7,0,0,0-.53-0.92,1.85,1.85,0,0,0-1.18-.28l-1.68,0a3.13,3.13,0,0,1-2.08-.52,2.87,2.87,0,0,1-.87-1.5,2.61,2.61,0,0,1,.32-2,3.19,3.19,0,0,1,2.07-1.43l0.11,0a6.23,6.23,0,0,1,3-.12L764,147.26a6.6,6.6,0,0,0-2.65.13,2.19,2.19,0,0,0-1.19.74,1.22,1.22,0,0,0-.25,1.11,1.36,1.36,0,0,0,.49.81,1.92,1.92,0,0,0,1.09.21l1.73,0A3.42,3.42,0,0,1,765.25,150.71Z"
          style="fill:#7a98a9"/>
    <path d="M768.76,145.75l-0.31-1.19,4.21-1.1,2.13,8.14,2.67-.7,0.31,1.19L770.59,154l-0.31-1.19,3-.77-1.82-6.95Zm1.45-4.28-0.22-.84a0.68,0.68,0,0,1,.2-0.63,1.16,1.16,0,0,1,1.37-.36,0.68,0.68,0,0,1,.48.45l0.22,0.84a0.68,0.68,0,0,1-.2.63,1.16,1.16,0,0,1-1.37.36A0.68,0.68,0,0,1,770.21,141.48Z"
          style="fill:#7a98a9"/>
    <path d="M782,142.29l1.14,4.38a7.5,7.5,0,0,0,.43,1.27,1.59,1.59,0,0,0,.56.68,1.36,1.36,0,0,0,.8.22,5.35,5.35,0,0,0,1.18-.2l1.71-.45,0.23,1.21-1.56.41q-2.41.63-3.44,0a3.32,3.32,0,0,1-1.12-1.7,14.31,14.31,0,0,1-.43-1.39l-1-4-2.64.69-0.14-1.23,2.47-.64-0.84-3.21,1.43-.86,1,3.67,3.93-1,0.31,1.19Z"
          style="fill:#7a98a9"/>
    <path d="M793,147.65a4,4,0,0,1-1.91-1.37,6.48,6.48,0,0,1-1.12-2.36,6.91,6.91,0,0,1-.21-2.6,4.27,4.27,0,0,1,.84-2.12,3.17,3.17,0,0,1,1.74-1.18,3.36,3.36,0,0,1,3.24.6,6,6,0,0,1,1.79,3.08l0.14,0.52-5.91,1.55a4.76,4.76,0,0,0,1.36,2.25,2.32,2.32,0,0,0,2.26.48,7.38,7.38,0,0,0,2.24-1.62l0.79,0.92a4.22,4.22,0,0,1-2.73,1.89A4.27,4.27,0,0,1,793,147.65Zm2.74-6.18q-0.92-2.82-2.76-2.34-2.07.54-1.62,3.49Z"
          style="fill:#7a98a9"/>
    <path d="M806.57,144.56l-2.56.67-0.67-2.56,2.56-.67Z" style="fill:#7a98a9"/>
    <path d="M818.88,140.69a3.73,3.73,0,0,1-2.33,1.49,4.66,4.66,0,0,1-2,.1,4.07,4.07,0,0,1-1.7-.71,5.45,5.45,0,0,1-2.07-3.14,5.65,5.65,0,0,1-.1-2.55,4.56,4.56,0,0,1,1.1-2.2,4.68,4.68,0,0,1,2.38-1.36,3.39,3.39,0,0,1,2.58.19l-0.12,1.14a4,4,0,0,0-2.38-.08,2.57,2.57,0,0,0-1.77,1.59,4.41,4.41,0,0,0-.11,2.9,4.34,4.34,0,0,0,1.51,2.45,2.61,2.61,0,0,0,2.35.49,3.88,3.88,0,0,0,2-1.26Z"
          style="fill:#7a98a9"/>
    <path d="M827.08,130.39a6,6,0,0,1,1.94,3.29,5.66,5.66,0,0,1-.17,3.84,3.75,3.75,0,0,1-2.62,2.13,4.15,4.15,0,0,1-1.89.08,3.46,3.46,0,0,1-1.54-.72,6.06,6.06,0,0,1-1.9-3.26,5.64,5.64,0,0,1,.16-3.8,3.8,3.8,0,0,1,2.69-2.14A3.59,3.59,0,0,1,827.08,130.39Zm-1.16,8.07a2.27,2.27,0,0,0,1.79-2.19,5.36,5.36,0,0,0-.15-1.86,11.83,11.83,0,0,0-.44-1.41,3.88,3.88,0,0,0-1.23-1.7A2.14,2.14,0,0,0,824,131a2.23,2.23,0,0,0-1.73,2.21,5.82,5.82,0,0,0,.18,1.93,6.72,6.72,0,0,0,1.27,2.69A2,2,0,0,0,825.92,138.46Z"
          style="fill:#7a98a9"/>
    <path d="M835,128.42a2.06,2.06,0,0,1,1.59-2q1.78-.46,2.68,2,0.17,0.47.32,1.06l1.56,6-1.42.37-1.52-5.8a5.87,5.87,0,0,0-.76-2,1,1,0,0,0-.53-0.37,1.2,1.2,0,0,0-.42,0,1.14,1.14,0,0,0-.85,1.11,5.78,5.78,0,0,0,.27,1.86l1.51,5.78-1.3.34-1.49-5.69a4.56,4.56,0,0,0-1.08-2.32,0.82,0.82,0,0,0-.74-0.12,1,1,0,0,0-.64.57,3,3,0,0,0-.07,2.06l1.6,6.13-1.42.37-2.44-9.33,1.23-.32,0.42,1.21a3.19,3.19,0,0,1,.4-1.25,1.51,1.51,0,0,1,1-.72,1.72,1.72,0,0,1,1.21.09A2.08,2.08,0,0,1,835,128.42Z"
          style="fill:#7a98a9"/>
    <path d="M718.51,339.43a2.06,2.06,0,0,1,2.35-.91q1.77,0.48,1.31,3.1-0.09.49-.25,1.08l-1.62,6-1.42-.38,1.57-5.78a5.87,5.87,0,0,0,.34-2.13,1,1,0,0,0-.27-0.58,1.2,1.2,0,0,0-.38-0.18,1.14,1.14,0,0,0-1.29.54,5.78,5.78,0,0,0-.69,1.74l-1.57,5.77-1.3-.35,1.54-5.67a4.56,4.56,0,0,0,.22-2.55,0.82,0.82,0,0,0-.58-0.47,1,1,0,0,0-.83.17,3,3,0,0,0-1.09,1.75l-1.66,6.12-1.42-.38L714,337l1.23,0.33L715,338.55a3.19,3.19,0,0,1,1-.89,1.51,1.51,0,0,1,1.2-.14,1.72,1.72,0,0,1,1,.68A2.08,2.08,0,0,1,718.51,339.43Z"
          style="fill:#7a98a9"/>
    <path d="M727,348.59l4.51-6.87,1.69,0.46q-4.56,6.58-5.35,7.65l-1.08,1.46q-0.29.39-.62,0.79a4.61,4.61,0,0,1-.73.7,2.74,2.74,0,0,1-.7.41,2.88,2.88,0,0,1-.91.12,9.24,9.24,0,0,1-2.11-.4l0.17-1.35a10,10,0,0,0,1.37.32h0.46a0.85,0.85,0,0,0,.35-0.07l0.32-.16a5.55,5.55,0,0,0,1.4-1.7q-0.9-6.15-1.23-9.11l-0.11-1,1.67,0.45Z"
          style="fill:#7a98a9"/>
    <path d="M735.07,352.68l-1.58-.43,0.71-9.8,1.55,0.42-0.84,7.49,3.5-6.76,1.84,0.5-0.43,7.57,2.92-6.89,1.46,0.4L740,354l-1.63-.44,0.64-8.5Z"
          style="fill:#7a98a9"/>
    <path d="M745.49,355a4,4,0,0,1-1-2.14,6.48,6.48,0,0,1,.2-2.61,6.91,6.91,0,0,1,1.11-2.36,4.27,4.27,0,0,1,1.79-1.42,3.17,3.17,0,0,1,2.1-.15,3.36,3.36,0,0,1,2.52,2.13,6,6,0,0,1,0,3.57l-0.14.52-5.89-1.6a4.76,4.76,0,0,0,.06,2.63,2.32,2.32,0,0,0,1.72,1.54,7.38,7.38,0,0,0,2.75-.29L751,356a4.22,4.22,0,0,1-3.31.28A4.27,4.27,0,0,1,745.49,355Zm5.45-4q0.61-2.9-1.22-3.4-2.07-.56-3.14,2.22Z"
          style="fill:#7a98a9"/>
    <path d="M757.5,350.16a3.19,3.19,0,0,1,3.24-.79,3.15,3.15,0,0,1,2.39,2.11,6.37,6.37,0,0,1,0,3.65,5.93,5.93,0,0,1-2.37,3.7,3.36,3.36,0,0,1-2.76.31,2.86,2.86,0,0,1-1.49-.82,5.51,5.51,0,0,1-.8-1.4l-0.36,1.27-1.53-.41,3.56-13.1,1.59,0.25Zm-1.16,4.49a3.78,3.78,0,0,0,.2,2.07,2.39,2.39,0,0,0,4.11.11,5.92,5.92,0,0,0,.77-1.71,13.45,13.45,0,0,0,.33-1.45,3.77,3.77,0,0,0-.15-2.06,2.07,2.07,0,0,0-1.49-1.15,2.23,2.23,0,0,0-2.82,1.2,7.43,7.43,0,0,0-.62,1.58A13.22,13.22,0,0,0,756.34,354.65Z"
          style="fill:#7a98a9"/>
    <path d="M772,358.06a2.88,2.88,0,0,1,0,2,2.46,2.46,0,0,1-1.46,1.7,3.76,3.76,0,0,1-2.53.1,7.84,7.84,0,0,1-1.87-.78,4.27,4.27,0,0,1-1.23-1l0.68-1a5,5,0,0,0,1,.75,6.18,6.18,0,0,0,1.61.68,2.56,2.56,0,0,0,1.54,0,1.22,1.22,0,0,0,.81-0.86,1.7,1.7,0,0,0,0-1.06,1.85,1.85,0,0,0-.88-0.83L768.3,357a3.13,3.13,0,0,1-1.55-1.48,2.87,2.87,0,0,1,0-1.74,2.61,2.61,0,0,1,1.27-1.57,3.19,3.19,0,0,1,2.51-.21l0.11,0a6.23,6.23,0,0,1,2.7,1.42l-0.63,1a6.6,6.6,0,0,0-2.37-1.21,2.19,2.19,0,0,0-1.4,0,1.22,1.22,0,0,0-.77.83,1.36,1.36,0,0,0,0,.95,1.92,1.92,0,0,0,.84.72l1.51,0.84A3.42,3.42,0,0,1,772,358.06Z"
          style="fill:#7a98a9"/>
    <path d="M777.54,355.5l0.32-1.19,4.2,1.14-2.21,8.12,2.66,0.72-0.32,1.19L775,363.54l0.32-1.19,3,0.8,1.88-6.93Zm3.39-3,0.23-.84a0.68,0.68,0,0,1,.49-0.44,1.16,1.16,0,0,1,1.37.37,0.68,0.68,0,0,1,.2.63l-0.23.84a0.68,0.68,0,0,1-.49.45,1.16,1.16,0,0,1-1.37-.37A0.68,0.68,0,0,1,780.93,352.52Z"
          style="fill:#7a98a9"/>
    <path d="M790.75,359.09l-1.19,4.37a7.5,7.5,0,0,0-.26,1.31,1.59,1.59,0,0,0,.15.87,1.36,1.36,0,0,0,.58.59,5.35,5.35,0,0,0,1.13.42l1.7,0.46-0.41,1.16-1.56-.42q-2.4-.65-3-1.75a3.32,3.32,0,0,1-.13-2,14.31,14.31,0,0,1,.32-1.42l1.08-4-2.63-.71,0.49-1.14,2.46,0.67,0.87-3.21,1.67,0-1,3.66L795,359l-0.32,1.19Z"
          style="fill:#7a98a9"/>
    <path d="M797.61,369.21a4,4,0,0,1-1-2.14,6.48,6.48,0,0,1,.2-2.61A6.91,6.91,0,0,1,798,362.1a4.27,4.27,0,0,1,1.79-1.42,3.17,3.17,0,0,1,2.1-.15,3.36,3.36,0,0,1,2.52,2.13,6,6,0,0,1,0,3.57l-0.14.52-5.89-1.6a4.76,4.76,0,0,0,.06,2.63,2.32,2.32,0,0,0,1.72,1.54,7.38,7.38,0,0,0,2.75-.29l0.22,1.19a4.22,4.22,0,0,1-3.31.28A4.27,4.27,0,0,1,797.61,369.21Zm5.45-4q0.61-2.9-1.22-3.4-2.07-.56-3.14,2.22Z"
          style="fill:#7a98a9"/>
    <path d="M810.92,373.29l-2.55-.69,0.69-2.55,2.55,0.69Z" style="fill:#7a98a9"/>
    <path d="M823.53,376.07a3.73,3.73,0,0,1-2.76.13,4.66,4.66,0,0,1-1.81-.92,4.07,4.07,0,0,1-1.12-1.47,5.45,5.45,0,0,1-.23-3.75,5.65,5.65,0,0,1,1.18-2.26,4.56,4.56,0,0,1,2.05-1.36,4.68,4.68,0,0,1,2.74,0,3.39,3.39,0,0,1,2.14,1.45l-0.67.93a4,4,0,0,0-2-1.25,2.57,2.57,0,0,0-2.33.5,4.41,4.41,0,0,0-1.54,2.46,4.34,4.34,0,0,0,.09,2.88A2.61,2.61,0,0,0,821,375a3.88,3.88,0,0,0,2.4-.08Z"
          style="fill:#7a98a9"/>
    <path d="M835.77,371.21a6,6,0,0,1,0,3.82,5.66,5.66,0,0,1-2.06,3.24,3.75,3.75,0,0,1-3.34.55,4.15,4.15,0,0,1-1.68-.87,3.46,3.46,0,0,1-1-1.4,6.06,6.06,0,0,1,0-3.78,5.64,5.64,0,0,1,2-3.21,3.8,3.8,0,0,1,3.4-.52A3.59,3.59,0,0,1,835.77,371.21Zm-5,6.42a2.27,2.27,0,0,0,2.64-1,5.36,5.36,0,0,0,.8-1.69,11.83,11.83,0,0,0,.32-1.44,3.88,3.88,0,0,0-.22-2.08,2.14,2.14,0,0,0-1.52-1.2,2.23,2.23,0,0,0-2.6,1.06,5.82,5.82,0,0,0-.81,1.77,6.72,6.72,0,0,0-.23,3A2,2,0,0,0,830.75,377.63Z"
          style="fill:#7a98a9"/>
    <path d="M843.59,373.43a2.06,2.06,0,0,1,2.35-.91q1.77,0.48,1.31,3.1-0.09.49-.25,1.08l-1.62,6-1.42-.38,1.57-5.78a5.87,5.87,0,0,0,.34-2.13,1,1,0,0,0-.27-0.58,1.2,1.2,0,0,0-.38-0.18,1.14,1.14,0,0,0-1.29.54,5.78,5.78,0,0,0-.69,1.74l-1.57,5.77-1.3-.35,1.54-5.67a4.56,4.56,0,0,0,.22-2.55,0.82,0.82,0,0,0-.58-0.47,1,1,0,0,0-.83.17,3,3,0,0,0-1.09,1.75L838,380.65l-1.42-.38,2.53-9.3,1.23,0.33-0.24,1.26a3.19,3.19,0,0,1,1-.89,1.51,1.51,0,0,1,1.2-.14,1.72,1.72,0,0,1,1,.68A2.08,2.08,0,0,1,843.59,373.43Z"
          style="fill:#7a98a9"/>
    <path d="M1017.83,407.17c-5.67-1.23-10.85-2.47-8.39-7.15,7.65-14.8,2-22.69-6.17-22.69-8.39,0-14.06,8.14-6.16,22.44,2.71,4.93-3,5.92-8.39,7.15-5.67,1.23-5.18,4.19-5.18,9.62H1023C1023,411.36,1023.51,408.4,1017.83,407.17Z"
          style="fill:#4e768d"/>
    <circle cx="1003.28" cy="400.94" r="45.45" style="fill:none;stroke:#ccc;stroke-miterlimit:10;stroke-dasharray:6"/>
    <path d="M1017.83,268.93c-5.67-1.23-10.85-2.47-8.39-7.15,7.65-14.8,2-22.69-6.17-22.69-8.39,0-14.06,8.14-6.16,22.44,2.71,4.93-3,5.92-8.39,7.15-5.67,1.23-5.18,4.19-5.18,9.62H1023C1023,273.13,1023.51,270.17,1017.83,268.93Z"
          style="fill:#4e768d"/>
    <circle cx="1003.28" cy="262.7" r="45.45" style="fill:none;stroke:#ccc;stroke-miterlimit:10;stroke-dasharray:6"/>
    <path d="M1017.83,137.54c-5.67-1.23-10.85-2.47-8.39-7.15,7.65-14.8,2-22.69-6.17-22.69-8.39,0-14.06,8.14-6.16,22.44,2.71,4.93-3,5.92-8.39,7.15-5.67,1.23-5.18,4.19-5.18,9.62H1023C1023,141.74,1023.51,138.78,1017.83,137.54Z"
          style="fill:#4e768d"/>
    <circle cx="1003.28" cy="131.31" r="45.45" style="fill:none;stroke:#ccc;stroke-miterlimit:10;stroke-dasharray:6"/>
    <path d="M242.09,128.84a4,4,0,0,0-2.77-.95,3.06,3.06,0,0,0-1.64.46,3.56,3.56,0,0,0-1.2,1.22,7.23,7.23,0,0,0-.95,3.78,7.67,7.67,0,0,0,.85,3.74,3.21,3.21,0,0,0,1.1,1.2,2.69,2.69,0,0,0,1.48.44,3.83,3.83,0,0,0,1.32-.2,7.49,7.49,0,0,0,1.15-.57v-3.59h-2.91V133H243v5.68a11.21,11.21,0,0,1-2,1,5.86,5.86,0,0,1-2.14.36,4.53,4.53,0,0,1-2.21-.54,4.43,4.43,0,0,1-1.6-1.48,8.58,8.58,0,0,1-1.25-4.79,8.91,8.91,0,0,1,.41-2.76,6.31,6.31,0,0,1,1.13-2.13,5.13,5.13,0,0,1,1.71-1.35,4.82,4.82,0,0,1,2.14-.48,5.16,5.16,0,0,1,3.48,1.12Z"
          style="fill:#fff"/>
    <path d="M245.92,131.46v-1.23h4.35v8.41H253v1.23h-7.42v-1.23h3.06v-7.18h-2.75Zm2.49-3.77v-0.87a0.68,0.68,0,0,1,.36-0.56,1.16,1.16,0,0,1,1.42,0,0.68,0.68,0,0,1,.36.56v0.87a0.68,0.68,0,0,1-.36.56,1.16,1.16,0,0,1-1.42,0A0.68,0.68,0,0,1,248.41,127.69Z"
          style="fill:#fff"/>
    <path d="M259.6,131.46V136a7.5,7.5,0,0,0,.09,1.34,1.59,1.59,0,0,0,.37.8,1.36,1.36,0,0,0,.72.41,5.35,5.35,0,0,0,1.2.11h1.77l-0.09,1.23H262q-2.49,0-3.31-.91a3.32,3.32,0,0,1-.66-1.92,14.31,14.31,0,0,1-.06-1.45v-4.12h-2.72l0.18-1.23H258v-3.32l1.6-.47v3.8h4.06v1.23H259.6Z"
          style="fill:#fff"/>
    <path d="M268.15,139.87h-1.64v-13.1h1.64v5.59h5.05v-5.59h1.64v13.1h-1.64V133.7h-5.05v6.17Z" style="fill:#fff"/>
    <path d="M285.21,136.74q0,3.35-3.73,3.35t-3.73-3.35v-6.51h1.6v6.65a2,2,0,0,0,.51,1.5,3,3,0,0,0,3.23,0,2,2,0,0,0,.51-1.5v-6.65h1.6v6.51Z"
          style="fill:#fff"/>
    <path d="M290,131.56a3.19,3.19,0,0,1,2.92-1.62,3.15,3.15,0,0,1,2.86,1.41,6.37,6.37,0,0,1,.91,3.53,5.93,5.93,0,0,1-1.32,4.19,3.36,3.36,0,0,1-2.58,1,2.86,2.86,0,0,1-1.65-.4,5.51,5.51,0,0,1-1.14-1.14l0,1.32h-1.58V126.29l1.6-.18v5.44ZM290,136.2a3.78,3.78,0,0,0,.74,1.94,2.39,2.39,0,0,0,4-1,5.92,5.92,0,0,0,.29-1.85,13.45,13.45,0,0,0-.06-1.48,3.77,3.77,0,0,0-.69-1.95,2.07,2.07,0,0,0-1.74-.72,2.23,2.23,0,0,0-2.41,1.9,7.43,7.43,0,0,0-.18,1.69A13.22,13.22,0,0,0,290,136.2Z"
          style="fill:#fff"/>
    <path d="M210,150.36a3.79,3.79,0,0,1,.38,1.73q0,2.67-1.92,3.47a7.79,7.79,0,0,1-3,.5h-1.84v5.41H202v-13.1h3.49Q209,148.37,210,150.36Zm-6.37,4.39h2.28a3,3,0,0,0,2-.65,2.4,2.4,0,0,0,.75-1.92,2.35,2.35,0,0,0-.75-1.9,3,3,0,0,0-2-.63h-2.28v5.1Z"
          style="fill:#fff"/>
    <path d="M218.73,154.83q0-2.07-1.75-2.07a9.65,9.65,0,0,0-1.82.19,7.54,7.54,0,0,0-1.4.37l-0.38-1.18a10.84,10.84,0,0,1,3.42-.61,4.16,4.16,0,0,1,2.57.73,2.64,2.64,0,0,1,1,2.25v7H219l-0.21-1.12a4.54,4.54,0,0,1-1.45,1,4.35,4.35,0,0,1-1.73.38,2.91,2.91,0,0,1-2-.73,2.66,2.66,0,0,1-.81-2.07,2.12,2.12,0,0,1,1.05-2,4.61,4.61,0,0,1,1.52-.6q0.81-.16,2.1-0.32l1.28-.15v-1Zm0,4.49v-2.46l-1.31.18a10.66,10.66,0,0,0-1.9.39,1.56,1.56,0,0,0-1.18,1.5,1.59,1.59,0,0,0,.42,1.16,1.55,1.55,0,0,0,1.16.43A3.79,3.79,0,0,0,218.73,159.32Z"
          style="fill:#fff"/>
    <path d="M229.88,159.63a2.93,2.93,0,0,1-1.05,1.3,2.82,2.82,0,0,1-1.69.54,3.42,3.42,0,0,1-2.89-1.42,5.61,5.61,0,0,1-1.06-3.47,5.52,5.52,0,0,1,1.37-4.1,3.66,3.66,0,0,1,2.66-.95,3,3,0,0,1,2.66,1.6l0.05-1.31h1.63q-0.08,2.15-.08,5.72v2.58q0,3.11-1.35,4.24a5.44,5.44,0,0,1-2.94,1,19.78,19.78,0,0,1-2.29.11l-0.13-1.23a11.56,11.56,0,0,0,2.75-.23,3.78,3.78,0,0,0,1.21-.51,2.54,2.54,0,0,0,.65-0.73,5.1,5.1,0,0,0,.5-2.56v-0.64Zm-0.76-6.1a2,2,0,0,0-.73-0.55,2.55,2.55,0,0,0-1.06-.21,2.5,2.5,0,0,0-1.06.21,2.12,2.12,0,0,0-1.16,1.33,5.89,5.89,0,0,0-.32,1.9,9.44,9.44,0,0,0,.08,1.43,3.42,3.42,0,0,0,.74,1.72,2,2,0,0,0,1.64.69,2.26,2.26,0,0,0,2.29-1.51,4.52,4.52,0,0,0,.33-1.71,11.69,11.69,0,0,0-.07-1.41,5,5,0,0,0-.24-1A2.9,2.9,0,0,0,229.12,153.53Z"
          style="fill:#fff"/>
    <path d="M236.47,161a4,4,0,0,1-1.5-1.81,6.48,6.48,0,0,1-.49-2.57,6.91,6.91,0,0,1,.45-2.57,4.27,4.27,0,0,1,1.35-1.84,3.17,3.17,0,0,1,2-.7,3.36,3.36,0,0,1,3,1.4,6,6,0,0,1,.95,3.44v0.54H236.1a4.76,4.76,0,0,0,.74,2.52,2.32,2.32,0,0,0,2.07,1,7.38,7.38,0,0,0,2.58-1l0.53,1.09a4.22,4.22,0,0,1-3.12,1.14A4.27,4.27,0,0,1,236.47,161Zm4.21-5.29q-0.18-3-2.07-3-2.14,0-2.45,3h4.53Z"
          style="fill:#fff"/>
    <path d="M252.08,157a2.88,2.88,0,0,1,.58,1.93,2.46,2.46,0,0,1-1,2,3.76,3.76,0,0,1-2.41.76,7.84,7.84,0,0,1-2-.26,4.27,4.27,0,0,1-1.44-.61l0.4-1.15a5,5,0,0,0,1.17.46,6.19,6.19,0,0,0,1.74.23,2.56,2.56,0,0,0,1.49-.39,1.22,1.22,0,0,0,.56-1,1.7,1.7,0,0,0-.28-1,1.85,1.85,0,0,0-1.07-.57l-1.63-.4a3.13,3.13,0,0,1-1.88-1,2.87,2.87,0,0,1-.47-1.67,2.61,2.61,0,0,1,.81-1.85,3.19,3.19,0,0,1,2.37-.86h0.11a6.23,6.23,0,0,1,3,.66l-0.35,1.13a6.6,6.6,0,0,0-2.6-.54,2.19,2.19,0,0,0-1.34.41,1.22,1.22,0,0,0-.52,1,1.36,1.36,0,0,0,.26.91,1.92,1.92,0,0,0,1,.48l1.68,0.41A3.42,3.42,0,0,1,252.08,157Z"
          style="fill:#fff"/>
    <path d="M267.14,159.18a5.12,5.12,0,0,0,3.35,1.15,2.05,2.05,0,0,0,1.63-.65,2.43,2.43,0,0,0,.57-1.67,2,2,0,0,0-.59-1.56,4.92,4.92,0,0,0-1.44-.87l-0.53-.21a10.79,10.79,0,0,1-2.07-1,4,4,0,0,1-.84-0.76,3.17,3.17,0,0,1-.62-2,3.11,3.11,0,0,1,1.12-2.55,4.41,4.41,0,0,1,2.87-.91,5.46,5.46,0,0,1,3.45,1l-0.62,1.27a4.35,4.35,0,0,0-2.75-.89,2.32,2.32,0,0,0-1.65.57,2,2,0,0,0-.61,1.58,1.91,1.91,0,0,0,1.12,1.67,10.68,10.68,0,0,0,1.28.57,17.07,17.07,0,0,1,1.71.78,4.25,4.25,0,0,1,1.44,1.21,3.14,3.14,0,0,1,.58,2,3.68,3.68,0,0,1-1.09,2.88,4.3,4.3,0,0,1-3,1,7,7,0,0,1-3.94-1Z"
          style="fill:#fff"/>
    <path d="M279.68,161a4,4,0,0,1-1.5-1.81,6.48,6.48,0,0,1-.49-2.57,6.91,6.91,0,0,1,.45-2.57,4.27,4.27,0,0,1,1.35-1.84,3.17,3.17,0,0,1,2-.7,3.36,3.36,0,0,1,3,1.4,6,6,0,0,1,.95,3.44v0.54h-6.11a4.76,4.76,0,0,0,.74,2.52,2.32,2.32,0,0,0,2.07,1,7.38,7.38,0,0,0,2.58-1l0.53,1.09a4.22,4.22,0,0,1-3.12,1.14A4.27,4.27,0,0,1,279.68,161Zm4.21-5.29q-0.18-3-2.07-3-2.14,0-2.45,3h4.53Z"
          style="fill:#fff"/>
    <path d="M291.66,161.47h-1.6v-9.64h1.31l0.13,1.78a4,4,0,0,1,1.55-1.55,4.43,4.43,0,0,1,2.17-.53H296V153h-1a3.62,3.62,0,0,0-2.43.77,2.89,2.89,0,0,0-.9,2.32v5.36Z"
          style="fill:#fff"/>
    <path d="M303.12,159.81q0.76-2.08,2.82-8h1.78L304,161.47h-1.78l-3.73-9.64h1.85Z" style="fill:#fff"/>
    <path d="M312.08,161a4,4,0,0,1-1.5-1.81,6.48,6.48,0,0,1-.49-2.57,6.91,6.91,0,0,1,.45-2.57,4.27,4.27,0,0,1,1.35-1.84,3.17,3.17,0,0,1,2-.7,3.36,3.36,0,0,1,3,1.4,6,6,0,0,1,.95,3.44v0.54h-6.11a4.76,4.76,0,0,0,.74,2.52,2.32,2.32,0,0,0,2.07,1,7.38,7.38,0,0,0,2.58-1l0.53,1.09a4.22,4.22,0,0,1-3.12,1.14A4.27,4.27,0,0,1,312.08,161Zm4.21-5.29q-0.18-3-2.07-3-2.14,0-2.45,3h4.53Z"
          style="fill:#fff"/>
    <path d="M324.06,161.47h-1.6v-9.64h1.31l0.13,1.78a4,4,0,0,1,1.55-1.55,4.43,4.43,0,0,1,2.17-.53h0.77V153h-1a3.62,3.62,0,0,0-2.43.77,2.89,2.89,0,0,0-.9,2.32v5.36Z"
          style="fill:#fff"/>
</svg>