<svg id="CONTENTS" xmlns="http://www.w3.org/2000/svg" viewBox="0 0 1214 941"><title>V2-changes</title><path d="M257.83,114.52c0-.47,0-2,0-3.64-5.44,1.18-6.59-2.31-6.59-2.31a5.18,5.18,0,0,0-2.17-2.86c-1.77-1.21.13-1.19,0.13-1.19a4.11,4.11,0,0,1,3,2,4.16,4.16,0,0,0,5.69,1.63,4.17,4.17,0,0,1,1.24-2.62c-4.34-.49-8.91-2.17-8.91-9.67a7.57,7.57,0,0,1,2-5.25,7,7,0,0,1,.19-5.18s1.64-.53,5.38,2a18.54,18.54,0,0,1,9.8,0c3.73-2.53,5.37-2,5.37-2a7,7,0,0,1,.19,5.18,7.55,7.55,0,0,1,2,5.25c0,7.51-4.58,9.17-8.93,9.65a4.68,4.68,0,0,1,1.33,3.62c0,2.62,0,4.72,0,5.37l-5.16.42Z" style="fill:#e6e6e6;fill-rule:evenodd"/><path d="M417.18,564.94c-5.67-1.23-10.85-2.47-8.39-7.15,7.65-14.8,2-22.69-6.17-22.69-8.39,0-14.06,8.14-6.16,22.44,2.71,4.93-3,5.92-8.39,7.15-5.67,1.23-5.18,4.19-5.18,9.62h39.46C422.36,569.14,422.85,566.18,417.18,564.94Z" style="fill:#4e768d"/><circle cx="400.85" cy="558.71" r="45.45" style="fill:none;stroke:#ccc;stroke-miterlimit:10;stroke-dasharray:6"/><path d="M1017.83,407.17c-5.67-1.23-10.85-2.47-8.39-7.15,7.65-14.8,2-22.69-6.17-22.69-8.39,0-14.06,8.14-6.16,22.44,2.71,4.93-3,5.92-8.39,7.15-5.67,1.23-5.18,4.19-5.18,9.62H1023C1023,411.36,1023.51,408.4,1017.83,407.17Z" style="fill:#4e768d"/><circle cx="1003.28" cy="400.94" r="45.45" style="fill:none;stroke:#ccc;stroke-miterlimit:10;stroke-dasharray:6"/><path d="M1017.83,268.93c-5.67-1.23-10.85-2.47-8.39-7.15,7.65-14.8,2-22.69-6.17-22.69-8.39,0-14.06,8.14-6.16,22.44,2.71,4.93-3,5.92-8.39,7.15-5.67,1.23-5.18,4.19-5.18,9.62H1023C1023,273.13,1023.51,270.17,1017.83,268.93Z" style="fill:#4e768d"/><circle cx="1003.28" cy="262.7" r="45.45" style="fill:none;stroke:#ccc;stroke-miterlimit:10;stroke-dasharray:6"/><path d="M1017.83,137.54c-5.67-1.23-10.85-2.47-8.39-7.15,7.65-14.8,2-22.69-6.17-22.69-8.39,0-14.06,8.14-6.16,22.44,2.71,4.93-3,5.92-8.39,7.15-5.67,1.23-5.18,4.19-5.18,9.62H1023C1023,141.74,1023.51,138.78,1017.83,137.54Z" style="fill:#4e768d"/><circle cx="1003.28" cy="131.31" r="45.45" style="fill:none;stroke:#ccc;stroke-miterlimit:10;stroke-dasharray:6"/><line x1="265.21" y1="454.35" x2="265.36" y2="427.88" style="fill:none;stroke:#ccc;stroke-miterlimit:10"/><polygon points="269.43 431.22 268.69 431.9 265.36 428.27 261.98 431.86 261.25 431.17 265.37 426.8 269.43 431.22" style="fill:#ccc"/><line x1="265.21" y1="376.79" x2="265.36" y2="350.33" style="fill:none;stroke:#ccc;stroke-miterlimit:10"/><polygon points="269.43 353.66 268.69 354.34 265.36 350.71 261.98 354.3 261.25 353.62 265.37 349.24 269.43 353.66" style="fill:#ccc"/><line x1="265.21" y1="532.75" x2="265.36" y2="506.29" style="fill:none;stroke:#ccc;stroke-miterlimit:10"/><polygon points="269.43 509.62 268.69 510.3 265.36 506.67 261.98 510.26 261.25 509.58 265.37 505.2 269.43 509.62" style="fill:#ccc"/><line x1="354.05" y1="558.81" x2="322.29" y2="558.62" style="fill:none;stroke:#ccc;stroke-miterlimit:10"/><polygon points="325.62 554.55 326.3 555.29 322.67 558.62 326.26 562 325.58 562.73 321.2 558.61 325.62 554.55" style="fill:#ccc"/><ellipse cx="265.17" cy="266.6" rx="38.5" ry="11.98" style="fill:#4e768d;stroke:#fff;stroke-miterlimit:10;stroke-width:1.1218355161959px"/><rect x="226.67" y="200.51" width="77" height="65.62" style="fill:#4e768d"/><ellipse cx="265.17" cy="200.51" rx="38.5" ry="9.52" style="fill:#4e768d;stroke:#fff;stroke-miterlimit:10"/><line x1="226.67" y1="200.51" x2="226.67" y2="266.13" style="fill:#4c6891;stroke:#fff;stroke-miterlimit:10"/><line x1="303.67" y1="200.51" x2="303.67" y2="266.13" style="fill:#4c6891;stroke:#fff;stroke-miterlimit:10"/><path d="M303.67,223.8c0,5.26-17.24,9.52-38.5,9.52s-38.5-4.26-38.5-9.52" style="fill:none;stroke:#fff;stroke-miterlimit:10"/><path d="M303.67,246.62c0,5.26-17.24,9.52-38.5,9.52s-38.5-4.26-38.5-9.52" style="fill:none;stroke:#fff;stroke-miterlimit:10"/><line x1="97" y1="673.35" x2="1096" y2="673.35" style="fill:none;stroke:#4e768d;stroke-miterlimit:10"/><line x1="420.06" y1="253.81" x2="857.85" y2="139.87" style="fill:none;stroke:#ccc;stroke-miterlimit:10"/><polygon points="855.67 144.66 854.82 144.13 857.47 139.97 853.13 137.63 853.61 136.75 858.89 139.6 855.67 144.66" style="fill:#ccc"/><line x1="420.06" y1="264.7" x2="859.89" y2="264.7" style="fill:none;stroke:#ccc;stroke-miterlimit:10"/><polygon points="856.58 268.79 855.9 268.06 859.51 264.7 855.9 261.34 856.58 260.61 860.98 264.7 856.58 268.79" style="fill:#ccc"/><line x1="421" y1="275" x2="856.91" y2="394.58" style="fill:none;stroke:#ccc;stroke-miterlimit:10"/><polygon points="852.63 397.64 852.17 396.76 856.54 394.48 853.94 390.28 854.79 389.76 857.95 394.87 852.63 397.64" style="fill:#ccc"/><rect x="236.29" y="532.75" width="58" height="51.92" style="fill:#4e768d;stroke:#fff;stroke-miterlimit:10"/><line x1="236.29" y1="555.25" x2="294.29" y2="555.25" style="fill:#4e768d;stroke:#fff;stroke-miterlimit:10"/><line x1="242.72" y1="566.25" x2="285.33" y2="566.25" style="fill:#4e768d;stroke:#fff;stroke-miterlimit:10"/><line x1="242.72" y1="570.5" x2="285.33" y2="570.5" style="fill:#4e768d;stroke:#fff;stroke-miterlimit:10"/><line x1="242.72" y1="574.71" x2="273.05" y2="574.71" style="fill:#4e768d;stroke:#fff;stroke-miterlimit:10"/><line x1="294.29" y1="555.1" x2="236.29" y2="533.41" style="fill:#4e768d;stroke:#fff;stroke-miterlimit:10"/><line x1="293.55" y1="533.41" x2="236.29" y2="555.1" style="fill:#4e768d;stroke:#fff;stroke-miterlimit:10"/><rect x="876.59" y="374.04" width="58" height="51.92" style="fill:#4e768d;stroke:#fff;stroke-miterlimit:10"/><line x1="876.59" y1="396.54" x2="934.59" y2="396.54" style="fill:#4e768d;stroke:#fff;stroke-miterlimit:10"/><line x1="883.02" y1="407.54" x2="925.64" y2="407.54" style="fill:#4e768d;stroke:#fff;stroke-miterlimit:10"/><line x1="883.02" y1="411.79" x2="925.64" y2="411.79" style="fill:#4e768d;stroke:#fff;stroke-miterlimit:10"/><line x1="883.02" y1="416" x2="913.36" y2="416" style="fill:#4e768d;stroke:#fff;stroke-miterlimit:10"/><line x1="934.59" y1="396.39" x2="876.59" y2="374.7" style="fill:#4e768d;stroke:#fff;stroke-miterlimit:10"/><line x1="933.86" y1="374.7" x2="876.59" y2="396.39" style="fill:#4e768d;stroke:#fff;stroke-miterlimit:10"/><rect x="876.59" y="241.66" width="58" height="51.92" style="fill:#4e768d;stroke:#fff;stroke-miterlimit:10"/><line x1="876.59" y1="264.16" x2="934.59" y2="264.16" style="fill:#4e768d;stroke:#fff;stroke-miterlimit:10"/><line x1="883.02" y1="275.16" x2="925.64" y2="275.16" style="fill:#4e768d;stroke:#fff;stroke-miterlimit:10"/><line x1="883.02" y1="279.41" x2="925.64" y2="279.41" style="fill:#4e768d;stroke:#fff;stroke-miterlimit:10"/><line x1="883.02" y1="283.62" x2="913.36" y2="283.62" style="fill:#4e768d;stroke:#fff;stroke-miterlimit:10"/><line x1="934.59" y1="264.01" x2="876.59" y2="242.33" style="fill:#4e768d;stroke:#fff;stroke-miterlimit:10"/><line x1="933.86" y1="242.33" x2="876.59" y2="264.01" style="fill:#4e768d;stroke:#fff;stroke-miterlimit:10"/><rect x="876.59" y="110.27" width="58" height="51.92" style="fill:#4e768d;stroke:#fff;stroke-miterlimit:10"/><line x1="876.59" y1="132.77" x2="934.59" y2="132.77" style="fill:#4e768d;stroke:#fff;stroke-miterlimit:10"/><line x1="883.02" y1="143.77" x2="925.64" y2="143.77" style="fill:#4e768d;stroke:#fff;stroke-miterlimit:10"/><line x1="883.02" y1="148.02" x2="925.64" y2="148.02" style="fill:#4e768d;stroke:#fff;stroke-miterlimit:10"/><line x1="883.02" y1="152.23" x2="913.36" y2="152.23" style="fill:#4e768d;stroke:#fff;stroke-miterlimit:10"/><line x1="934.59" y1="132.62" x2="876.59" y2="110.93" style="fill:#4e768d;stroke:#fff;stroke-miterlimit:10"/><line x1="933.86" y1="110.93" x2="876.59" y2="132.62" style="fill:#4e768d;stroke:#fff;stroke-miterlimit:10"/><path d="M123.61,553.66a5.34,5.34,0,0,1-.5.44,1,1,0,0,1-.6.19,1.21,1.21,0,0,1-.88-0.38,1.16,1.16,0,0,1-.36-0.85,1,1,0,0,1,.15-0.57,4.11,4.11,0,0,1,.55-0.64l4.39-4.39a2.91,2.91,0,0,1,.71-0.54,1.65,1.65,0,0,1,.77-0.18,1.47,1.47,0,0,1,1,.4,1.09,1.09,0,0,1,.32.61,4.66,4.66,0,0,1,.07.86V570.9a4.27,4.27,0,0,1,0,.71,1.57,1.57,0,0,1-.19.5,1,1,0,0,1-.43.41,1.45,1.45,0,0,1-1.3,0,1,1,0,0,1-.43-0.41,1.57,1.57,0,0,1-.19-0.5,4.17,4.17,0,0,1,0-.71V550.65Z" style="fill:#4e768d"/><path d="M119.61,320.81a1.48,1.48,0,0,1,.19-0.71,6.31,6.31,0,0,1,.6-0.87l9.2-11.9a8.89,8.89,0,0,0,1.27-2.12,6.35,6.35,0,0,0,.42-2.39,5,5,0,0,0-.29-1.72,3.67,3.67,0,0,0-.85-1.34,3.92,3.92,0,0,0-1.38-.87,5.19,5.19,0,0,0-1.86-.31,5.68,5.68,0,0,0-1.47.19,4.22,4.22,0,0,0-1.31.59,3.78,3.78,0,0,0-1,1.06,4.62,4.62,0,0,0-.63,1.59,2.73,2.73,0,0,1-.52,1.19,1,1,0,0,1-.34.27,1.2,1.2,0,0,1-.54.11,1.1,1.1,0,0,1-.94-0.43,1.33,1.33,0,0,1-.22-0.45,1.87,1.87,0,0,1-.06-0.49,4.08,4.08,0,0,1,.12-0.89,6.51,6.51,0,0,1,.35-1.07,7.11,7.11,0,0,1,.59-1.12,5.89,5.89,0,0,1,.86-1,6.67,6.67,0,0,1,2.19-1.37,8.07,8.07,0,0,1,2.92-.49,8.9,8.9,0,0,1,2.88.44A6.15,6.15,0,0,1,132,298a5.76,5.76,0,0,1,1.42,2.07,7.23,7.23,0,0,1,.5,2.77,8.54,8.54,0,0,1-.14,1.63,7,7,0,0,1-.44,1.44,9.25,9.25,0,0,1-.75,1.39q-0.45.69-1,1.47l-8.51,11h9.43a3.73,3.73,0,0,1,.67,0,1.24,1.24,0,0,1,.43.17,1,1,0,0,1,.5,1,1.1,1.1,0,0,1-.5,1,1.48,1.48,0,0,1-.43.15,3.73,3.73,0,0,1-.67,0H121.65a9.4,9.4,0,0,1-1,0,1.09,1.09,0,0,1-.69-0.35A1.17,1.17,0,0,1,119.61,320.81Z" style="fill:#4e768d"/><path d="M388.61,261.69a1.07,1.07,0,0,1,.5-0.94,1.85,1.85,0,0,1,1-.2,4.33,4.33,0,0,0,3.37-1.27,4.91,4.91,0,0,0,1.12-3.39,5.12,5.12,0,0,0-.34-1.93,4.27,4.27,0,0,0-.94-1.44,3.9,3.9,0,0,0-1.41-.9,5.08,5.08,0,0,0-1.79-.31,4.74,4.74,0,0,0-2.82.76,4,4,0,0,0-1.45,2.48,2.82,2.82,0,0,1-.23.69,1.54,1.54,0,0,1-.32.44,0.93,0.93,0,0,1-.34.22,1.38,1.38,0,0,1-.47.07,1.07,1.07,0,0,1-.68-0.22,1.12,1.12,0,0,1-.39-0.58,2.52,2.52,0,0,1-.09-1,5,5,0,0,1,.56-1.81,5.75,5.75,0,0,1,1.15-1.56,5.81,5.81,0,0,1,2.21-1.38,8.84,8.84,0,0,1,2.87-.42,8.33,8.33,0,0,1,2.83.47,6.54,6.54,0,0,1,2.26,1.35,6.2,6.2,0,0,1,1.49,2.15,7.28,7.28,0,0,1,.54,2.87,6.63,6.63,0,0,1-.89,3.53,5.65,5.65,0,0,1-2.67,2.23,6.47,6.47,0,0,1,1.62.83,4.85,4.85,0,0,1,1.25,1.3,6.33,6.33,0,0,1,.8,1.8,8.66,8.66,0,0,1,.29,2.34,7.09,7.09,0,0,1-.61,3,6.9,6.9,0,0,1-1.65,2.27,7.27,7.27,0,0,1-2.42,1.44,8.52,8.52,0,0,1-2.93.5,13,13,0,0,1-1.83-.12,7.37,7.37,0,0,1-1.49-.36,6.38,6.38,0,0,1-1.22-.59,6.52,6.52,0,0,1-1.06-.84,5.62,5.62,0,0,1-1.21-1.69,4.88,4.88,0,0,1-.47-2.11,2.43,2.43,0,0,1,.09-0.68,1.22,1.22,0,0,1,1.21-.88,1.07,1.07,0,0,1,.79.29,1.38,1.38,0,0,1,.32.45,2.36,2.36,0,0,1,.19.61,4,4,0,0,0,1.5,2.75,5.4,5.4,0,0,0,3.16.83,5.53,5.53,0,0,0,1.94-.34,4.57,4.57,0,0,0,2.66-2.53,5.83,5.83,0,0,0-.84-5.7,4.88,4.88,0,0,0-3.66-1.31,1.85,1.85,0,0,1-1-.2A1.07,1.07,0,0,1,388.61,261.69Z" style="fill:#4e768d"/><rect x="417.75" y="238.61" width="8.75" height="45.25" style="fill:#204056"/><path d="M202.8,306.17l2.55-7.81h1.75q-2.67,7.54-3.16,8.78l-0.66,1.69q-0.18.45-.4,0.92a4.61,4.61,0,0,1-.52.87,2.74,2.74,0,0,1-.57.58,2.88,2.88,0,0,1-.84.35,9.24,9.24,0,0,1-2.14.16l-0.18-1.34a10,10,0,0,0,1.4-.05l0.44-.12a0.85,0.85,0,0,0,.32-0.16l0.26-.24a5.55,5.55,0,0,0,.91-2q-2.48-5.7-3.58-8.47l-0.38-1h1.73Z" style="fill:#7a98a9"/><path d="M216.49,299.47a6,6,0,0,1,1,3.67,5.66,5.66,0,0,1-1.13,3.67,3.75,3.75,0,0,1-3.08,1.4,4.15,4.15,0,0,1-1.85-.4,3.46,3.46,0,0,1-1.31-1.09,6.06,6.06,0,0,1-1-3.64,5.64,5.64,0,0,1,1.12-3.63,3.8,3.8,0,0,1,3.14-1.39A3.59,3.59,0,0,1,216.49,299.47ZM213.32,307a2.27,2.27,0,0,0,2.29-1.67,5.36,5.36,0,0,0,.33-1.84,11.83,11.83,0,0,0-.07-1.47,3.88,3.88,0,0,0-.76-2,2.14,2.14,0,0,0-1.78-.76,2.23,2.23,0,0,0-2.23,1.71,5.82,5.82,0,0,0-.32,1.92,6.72,6.72,0,0,0,.55,2.92A2,2,0,0,0,213.32,307Z" style="fill:#7a98a9"/><path d="M227.88,304.87q0,3.35-3.73,3.35t-3.73-3.35v-6.51H222V305a2,2,0,0,0,.51,1.5,3,3,0,0,0,3.23,0,2,2,0,0,0,.51-1.5v-6.65h1.6v6.51Z" style="fill:#7a98a9"/><path d="M236.26,308h-2.65v-2.65h2.65V308Z" style="fill:#7a98a9"/><path d="M248.15,306.15a2.93,2.93,0,0,1-1.05,1.3,2.82,2.82,0,0,1-1.69.54,3.42,3.42,0,0,1-2.89-1.42,5.61,5.61,0,0,1-1.06-3.47,5.52,5.52,0,0,1,1.37-4.1,3.66,3.66,0,0,1,2.66-.95,3,3,0,0,1,2.66,1.6l0.05-1.31h1.63q-0.08,2.15-.08,5.72v2.58q0,3.11-1.35,4.24a5.44,5.44,0,0,1-2.94,1,19.78,19.78,0,0,1-2.29.11L243,310.82a11.56,11.56,0,0,0,2.75-.23,3.78,3.78,0,0,0,1.21-.51,2.54,2.54,0,0,0,.65-0.73,5.1,5.1,0,0,0,.5-2.56v-0.64Zm-0.76-6.1a2,2,0,0,0-.73-0.55,2.55,2.55,0,0,0-1.06-.21,2.5,2.5,0,0,0-1.06.21,2.12,2.12,0,0,0-1.16,1.33,5.89,5.89,0,0,0-.32,1.9,9.44,9.44,0,0,0,.08,1.43,3.42,3.42,0,0,0,.74,1.72,2,2,0,0,0,1.64.69,2.26,2.26,0,0,0,2.29-1.51,4.52,4.52,0,0,0,.33-1.71,11.69,11.69,0,0,0-.07-1.41,5,5,0,0,0-.24-1A2.9,2.9,0,0,0,247.39,300.06Z" style="fill:#7a98a9"/><path d="M253.39,299.59v-1.23h4.35v8.41h2.76V308h-7.42v-1.23h3.06v-7.18h-2.75Zm2.49-3.77v-0.87a0.68,0.68,0,0,1,.36-0.56,1.16,1.16,0,0,1,1.42,0,0.68,0.68,0,0,1,.36.56v0.87a0.68,0.68,0,0,1-.36.56,1.16,1.16,0,0,1-1.42,0A0.68,0.68,0,0,1,255.88,295.82Z" style="fill:#7a98a9"/><path d="M267.08,299.59v4.53a7.5,7.5,0,0,0,.09,1.34,1.59,1.59,0,0,0,.37.8,1.36,1.36,0,0,0,.72.41,5.35,5.35,0,0,0,1.2.11h1.77L271.13,308h-1.62q-2.49,0-3.31-.91a3.32,3.32,0,0,1-.66-1.92,14.31,14.31,0,0,1-.06-1.45v-4.12h-2.72l0.18-1.23h2.55V295l1.6-.47v3.8h4.06v1.23h-4.06Z" style="fill:#7a98a9"/><path d="M281.93,302.18V308h-1.6v-5.62a4.31,4.31,0,0,0-.48-2.44,1.71,1.71,0,0,0-1.46-.64,2.42,2.42,0,0,0-1.71.68,2,2,0,0,0-.72,1.46V308h-1.6V294.42l1.6-.18v5.28a3.61,3.61,0,0,1,3-1.46Q281.93,298.07,281.93,302.18Z" style="fill:#7a98a9"/><path d="M292.69,304.87q0,3.35-3.73,3.35t-3.73-3.35v-6.51h1.6V305a2,2,0,0,0,.51,1.5,3,3,0,0,0,3.23,0,2,2,0,0,0,.51-1.5v-6.65h1.6v6.51Z" style="fill:#7a98a9"/><path d="M297.46,299.69a3.19,3.19,0,0,1,2.92-1.62,3.15,3.15,0,0,1,2.86,1.41,6.37,6.37,0,0,1,.91,3.53,5.93,5.93,0,0,1-1.32,4.19,3.36,3.36,0,0,1-2.58,1,2.86,2.86,0,0,1-1.65-.4,5.51,5.51,0,0,1-1.14-1.14l0,1.32h-1.58V294.42l1.6-.18v5.44Zm0.06,4.64a3.78,3.78,0,0,0,.74,1.94,2.39,2.39,0,0,0,4-1,5.92,5.92,0,0,0,.29-1.85,13.45,13.45,0,0,0-.06-1.48,3.77,3.77,0,0,0-.69-1.95,2.07,2.07,0,0,0-1.74-.72,2.23,2.23,0,0,0-2.41,1.9,7.43,7.43,0,0,0-.18,1.69A13.22,13.22,0,0,0,297.52,304.33Z" style="fill:#7a98a9"/><path d="M311.87,308h-2.65v-2.65h2.65V308Z" style="fill:#7a98a9"/><path d="M318.2,299.59v-1.23h4.35v8.41h2.76V308h-7.42v-1.23H321v-7.18H318.2Zm2.49-3.77v-0.87a0.68,0.68,0,0,1,.36-0.56,1.16,1.16,0,0,1,1.42,0,0.68,0.68,0,0,1,.36.56v0.87a0.68,0.68,0,0,1-.36.56,1.16,1.16,0,0,1-1.42,0A0.68,0.68,0,0,1,320.69,295.82Z" style="fill:#7a98a9"/><path d="M335.31,299.47a6,6,0,0,1,1,3.67,5.66,5.66,0,0,1-1.13,3.67,3.75,3.75,0,0,1-3.08,1.4,4.15,4.15,0,0,1-1.85-.4,3.46,3.46,0,0,1-1.31-1.09,6.06,6.06,0,0,1-1-3.64,5.64,5.64,0,0,1,1.12-3.63,3.8,3.8,0,0,1,3.14-1.39A3.59,3.59,0,0,1,335.31,299.47ZM332.14,307a2.27,2.27,0,0,0,2.29-1.67,5.36,5.36,0,0,0,.33-1.84,11.83,11.83,0,0,0-.07-1.47,3.88,3.88,0,0,0-.76-2,2.14,2.14,0,0,0-1.78-.76,2.23,2.23,0,0,0-2.23,1.71,5.82,5.82,0,0,0-.32,1.92,6.72,6.72,0,0,0,.55,2.92A2,2,0,0,0,332.14,307Z" style="fill:#7a98a9"/><path d="M713.38,254.45l2.55-7.81h1.75q-2.67,7.54-3.16,8.78l-0.66,1.69q-0.18.45-.4,0.92a4.61,4.61,0,0,1-.52.87,2.74,2.74,0,0,1-.57.58,2.88,2.88,0,0,1-.84.35,9.24,9.24,0,0,1-2.14.16l-0.18-1.34a10,10,0,0,0,1.4-.05l0.44-.12a0.85,0.85,0,0,0,.32-0.16l0.26-.24a5.55,5.55,0,0,0,.91-2q-2.48-5.7-3.58-8.47l-0.38-1h1.73Z" style="fill:#7a98a9"/><path d="M727.07,247.75a6,6,0,0,1,1,3.67A5.66,5.66,0,0,1,727,255.1a3.75,3.75,0,0,1-3.08,1.4,4.15,4.15,0,0,1-1.85-.4,3.46,3.46,0,0,1-1.31-1.09,6.06,6.06,0,0,1-1-3.64,5.64,5.64,0,0,1,1.12-3.63,3.8,3.8,0,0,1,3.14-1.39A3.59,3.59,0,0,1,727.07,247.75Zm-3.16,7.51a2.27,2.27,0,0,0,2.29-1.67,5.36,5.36,0,0,0,.33-1.84,11.83,11.83,0,0,0-.07-1.47,3.88,3.88,0,0,0-.76-2,2.14,2.14,0,0,0-1.78-.76,2.23,2.23,0,0,0-2.23,1.71,5.82,5.82,0,0,0-.32,1.92,6.72,6.72,0,0,0,.55,2.92A2,2,0,0,0,723.9,255.27Z" style="fill:#7a98a9"/><path d="M738.46,253.15q0,3.35-3.73,3.35T731,253.15v-6.51h1.6v6.65a2,2,0,0,0,.51,1.5,3,3,0,0,0,3.23,0,2,2,0,0,0,.51-1.5v-6.65h1.6v6.51Z" style="fill:#7a98a9"/><path d="M746.84,256.28H744.2v-2.65h2.65v2.65Z" style="fill:#7a98a9"/><path d="M758.74,254.43a2.93,2.93,0,0,1-1.05,1.3,2.82,2.82,0,0,1-1.69.54,3.42,3.42,0,0,1-2.89-1.42,5.61,5.61,0,0,1-1.06-3.47,5.52,5.52,0,0,1,1.37-4.1,3.66,3.66,0,0,1,2.66-.95,3,3,0,0,1,2.66,1.6l0.05-1.31h1.63q-0.08,2.15-.08,5.72v2.58q0,3.11-1.35,4.24a5.44,5.44,0,0,1-2.94,1,19.78,19.78,0,0,1-2.29.11l-0.13-1.23a11.56,11.56,0,0,0,2.75-.23,3.78,3.78,0,0,0,1.21-.51,2.54,2.54,0,0,0,.65-0.73,5.1,5.1,0,0,0,.5-2.56v-0.64Zm-0.76-6.1a2,2,0,0,0-.73-0.55,2.55,2.55,0,0,0-1.06-.21,2.5,2.5,0,0,0-1.06.21,2.12,2.12,0,0,0-1.16,1.33,5.89,5.89,0,0,0-.32,1.9,9.44,9.44,0,0,0,.08,1.43,3.42,3.42,0,0,0,.74,1.72,2,2,0,0,0,1.64.69,2.26,2.26,0,0,0,2.29-1.51,4.52,4.52,0,0,0,.33-1.71,11.69,11.69,0,0,0-.07-1.41,5,5,0,0,0-.24-1A2.9,2.9,0,0,0,758,248.34Z" style="fill:#7a98a9"/><path d="M764,247.87v-1.23h4.35V255h2.76v1.23h-7.42V255h3.06v-7.18H764Zm2.49-3.77v-0.87a0.68,0.68,0,0,1,.36-0.56,1.16,1.16,0,0,1,1.42,0,0.68,0.68,0,0,1,.36.56v0.87a0.68,0.68,0,0,1-.36.56,1.16,1.16,0,0,1-1.42,0A0.68,0.68,0,0,1,766.46,244.1Z" style="fill:#7a98a9"/><path d="M777.66,247.87v4.53a7.5,7.5,0,0,0,.09,1.34,1.59,1.59,0,0,0,.37.8,1.36,1.36,0,0,0,.72.41,5.35,5.35,0,0,0,1.2.11h1.77l-0.09,1.23h-1.62q-2.49,0-3.31-.91a3.32,3.32,0,0,1-.66-1.92,14.31,14.31,0,0,1-.06-1.45v-4.12h-2.72l0.18-1.23h2.55v-3.32l1.6-.47v3.8h4.06v1.23h-4.06Z" style="fill:#7a98a9"/><path d="M792.51,250.46v5.82h-1.6v-5.62a4.31,4.31,0,0,0-.48-2.44,1.71,1.71,0,0,0-1.46-.64,2.42,2.42,0,0,0-1.71.68,2,2,0,0,0-.72,1.46v6.56h-1.6V242.7l1.6-.18v5.28a3.61,3.61,0,0,1,3-1.46Q792.51,246.35,792.51,250.46Z" style="fill:#7a98a9"/><path d="M803.27,253.15q0,3.35-3.73,3.35t-3.73-3.35v-6.51h1.6v6.65a2,2,0,0,0,.51,1.5,3,3,0,0,0,3.23,0,2,2,0,0,0,.51-1.5v-6.65h1.6v6.51Z" style="fill:#7a98a9"/><path d="M808,248a3.19,3.19,0,0,1,2.92-1.62,3.15,3.15,0,0,1,2.86,1.41,6.37,6.37,0,0,1,.91,3.53,5.93,5.93,0,0,1-1.32,4.19,3.36,3.36,0,0,1-2.58,1,2.86,2.86,0,0,1-1.65-.4A5.51,5.51,0,0,1,808,255l0,1.32h-1.58V242.7l1.6-.18V248Zm0.06,4.64a3.78,3.78,0,0,0,.74,1.94,2.39,2.39,0,0,0,4-1,5.92,5.92,0,0,0,.29-1.85,13.45,13.45,0,0,0-.06-1.48,3.77,3.77,0,0,0-.69-1.95,2.07,2.07,0,0,0-1.74-.72,2.23,2.23,0,0,0-2.41,1.9,7.43,7.43,0,0,0-.18,1.69A13.22,13.22,0,0,0,808.1,252.61Z" style="fill:#7a98a9"/><path d="M822.46,256.28h-2.65v-2.65h2.65v2.65Z" style="fill:#7a98a9"/><path d="M828.78,247.87v-1.23h4.35V255h2.76v1.23h-7.42V255h3.06v-7.18h-2.75Zm2.49-3.77v-0.87a0.68,0.68,0,0,1,.36-0.56,1.16,1.16,0,0,1,1.42,0,0.68,0.68,0,0,1,.36.56v0.87a0.68,0.68,0,0,1-.36.56,1.16,1.16,0,0,1-1.42,0A0.68,0.68,0,0,1,831.27,244.1Z" style="fill:#7a98a9"/><path d="M845.89,247.75a6,6,0,0,1,1,3.67,5.66,5.66,0,0,1-1.13,3.67,3.75,3.75,0,0,1-3.08,1.4,4.15,4.15,0,0,1-1.85-.4,3.46,3.46,0,0,1-1.31-1.09,6.06,6.06,0,0,1-1-3.64,5.64,5.64,0,0,1,1.12-3.63,3.8,3.8,0,0,1,3.14-1.39A3.59,3.59,0,0,1,845.89,247.75Zm-3.16,7.51A2.27,2.27,0,0,0,845,253.6a5.36,5.36,0,0,0,.33-1.84,11.83,11.83,0,0,0-.07-1.47,3.88,3.88,0,0,0-.76-2,2.14,2.14,0,0,0-1.78-.76,2.23,2.23,0,0,0-2.23,1.71,5.82,5.82,0,0,0-.32,1.92,6.72,6.72,0,0,0,.55,2.92A2,2,0,0,0,842.72,255.27Z" style="fill:#7a98a9"/><path d="M133.9,757.38a5.09,5.09,0,0,1,3.72-1.47,4.85,4.85,0,0,1,4,1.79,4,4,0,0,1,1,2.17,0.77,0.77,0,0,1-.21.59,0.74,0.74,0,0,1-.54.21,0.72,0.72,0,0,1-.49-0.17,1.53,1.53,0,0,1-.38-0.67,3.37,3.37,0,0,0-3.36-2.5,3.46,3.46,0,0,0-2.56,1.07c-1,1-1,2.08-1,5.1s0.09,4.13,1,5.1a3.46,3.46,0,0,0,2.56,1.07,3.37,3.37,0,0,0,3.36-2.5,1.52,1.52,0,0,1,.38-0.67,0.72,0.72,0,0,1,.49-0.17,0.73,0.73,0,0,1,.54.21,0.76,0.76,0,0,1,.21.59,4,4,0,0,1-1,2.17,4.85,4.85,0,0,1-4,1.79,5.09,5.09,0,0,1-3.72-1.47c-1.42-1.43-1.52-2.7-1.52-6.13S132.49,758.8,133.9,757.38Z" style="fill:#fff"/><path d="M147.61,761.89a3.47,3.47,0,0,1,2.82-1.37,3.31,3.31,0,0,1,1.86.49,1,1,0,0,1,.58.78,0.8,0.8,0,0,1-.22.54,0.75,0.75,0,0,1-.53.22,1.5,1.5,0,0,1-.72-0.29,2.5,2.5,0,0,0-3.79,2.41V770a1.16,1.16,0,0,1-.14.7,0.77,0.77,0,0,1-1.26,0,1.16,1.16,0,0,1-.14-0.7v-8.45a1.16,1.16,0,0,1,.14-0.7,0.77,0.77,0,0,1,1.26,0,1.16,1.16,0,0,1,.14.7v0.3Z" style="fill:#fff"/><path d="M155.3,766.21c0,2.26,1.07,3.58,3.07,3.58a3.39,3.39,0,0,0,2.21-.75,1.08,1.08,0,0,1,.71-0.37,0.69,0.69,0,0,1,.65.66,2,2,0,0,1-1.07,1.18,5.11,5.11,0,0,1-2.57.6c-2.74,0-4.52-1.64-4.52-5.29,0-3.41,1.66-5.29,4.26-5.29s4.22,1.91,4.24,4.79a0.94,0.94,0,0,1-.21.69,0.84,0.84,0,0,1-.67.2h-6.1Zm5.48-1.16a4.3,4.3,0,0,0-.33-1.68,2.66,2.66,0,0,0-4.83,0,4.3,4.3,0,0,0-.33,1.68h5.48Z" style="fill:#fff"/><path d="M168.17,765.06h3.13v-0.84c0-1.57-.74-2.38-2.54-2.38a3.06,3.06,0,0,0-2.34.91,1,1,0,0,1-.64.27,0.63,0.63,0,0,1-.46-0.19,0.67,0.67,0,0,1-.19-0.48,1.74,1.74,0,0,1,1-1.16,4.67,4.67,0,0,1,2.66-.67c2.67,0,4.05,1.2,4.05,3.45V770a1.16,1.16,0,0,1-.14.7,0.77,0.77,0,0,1-1.26,0,1.16,1.16,0,0,1-.14-0.7v0a3.7,3.7,0,0,1-3,1.09,3.77,3.77,0,0,1-2.94-.94,3,3,0,0,1-.79-2.11C164.6,766.24,165.93,765.06,168.17,765.06Zm0.31,4.76a3,3,0,0,0,2.28-.7,2.4,2.4,0,0,0,.54-1.8v-1.1h-3c-1.48,0-2.24.64-2.24,1.83S166.88,769.82,168.49,769.82Z" style="fill:#fff"/><path d="M178.37,768.16a1.28,1.28,0,0,0,1.37,1.5,1.3,1.3,0,0,1,.68.13,0.65,0.65,0,0,1,0,1.07,1.3,1.3,0,0,1-.68.13h-0.27a2.52,2.52,0,0,1-2.62-2.77v-6.38h-0.72a1,1,0,0,1-.56-0.1,0.59,0.59,0,0,1,0-1,1,1,0,0,1,.56-0.11h0.72v-2.21a1.16,1.16,0,0,1,.14-0.7,0.77,0.77,0,0,1,1.26,0,1.16,1.16,0,0,1,.14.7v2.21h1.52a1,1,0,0,1,.56.11,0.59,0.59,0,0,1,0,1,1,1,0,0,1-.56.1h-1.52v6.33Z" style="fill:#fff"/><path d="M184.42,766.21c0,2.26,1.07,3.58,3.06,3.58a3.38,3.38,0,0,0,2.21-.75,1.08,1.08,0,0,1,.71-0.37,0.69,0.69,0,0,1,.65.66,2,2,0,0,1-1.07,1.18,5.11,5.11,0,0,1-2.57.6c-2.74,0-4.53-1.64-4.53-5.29,0-3.41,1.66-5.29,4.26-5.29s4.22,1.91,4.24,4.79a0.93,0.93,0,0,1-.21.69,0.85,0.85,0,0,1-.67.2h-6.1Zm5.48-1.16a4.32,4.32,0,0,0-.32-1.68,2.66,2.66,0,0,0-4.83,0,4.32,4.32,0,0,0-.32,1.68h5.48Z" style="fill:#fff"/><path d="M195.31,761.43a3.56,3.56,0,0,1,2.52-.9,3.34,3.34,0,0,1,2.92,1.32V757a1.16,1.16,0,0,1,.14-0.7,0.77,0.77,0,0,1,1.26,0,1.16,1.16,0,0,1,.14.7V770a1.16,1.16,0,0,1-.14.7,0.77,0.77,0,0,1-1.26,0,1.16,1.16,0,0,1-.14-0.7v-0.29a3.31,3.31,0,0,1-2.92,1.36,3.56,3.56,0,0,1-2.52-.9c-1-1-1.28-2.73-1.28-4.39S194.26,762.48,195.31,761.43Zm2.84,8.31c2.26,0,2.59-1.91,2.59-3.93s-0.34-3.93-2.59-3.93-2.59,1.91-2.59,3.93S195.89,769.74,198.15,769.74Z" style="fill:#fff"/><path d="M214,765.06h3.13v-0.84c0-1.57-.73-2.38-2.54-2.38a3.05,3.05,0,0,0-2.34.91,1,1,0,0,1-.64.27,0.64,0.64,0,0,1-.46-0.19,0.67,0.67,0,0,1-.19-0.48,1.74,1.74,0,0,1,1-1.16,4.66,4.66,0,0,1,2.66-.67c2.67,0,4.05,1.2,4.05,3.45V770a1.16,1.16,0,0,1-.14.7,0.77,0.77,0,0,1-1.26,0,1.16,1.16,0,0,1-.14-0.7v0a3.7,3.7,0,0,1-3,1.09,3.77,3.77,0,0,1-2.94-.94,3,3,0,0,1-.79-2.11C210.45,766.24,211.77,765.06,214,765.06Zm0.31,4.76a3,3,0,0,0,2.28-.7,2.4,2.4,0,0,0,.54-1.8v-1.1h-3c-1.48,0-2.24.64-2.24,1.83S212.72,769.82,214.33,769.82Z" style="fill:#fff"/><path d="M230,768.61a3.51,3.51,0,0,0,2.58,1.07,3.57,3.57,0,0,0,2.59-1c0.85-.86,1-1.85,1-4H233.4a1.18,1.18,0,0,1-.69-0.13,0.72,0.72,0,0,1,0-1.18,1.18,1.18,0,0,1,.69-0.13h3.35a0.82,0.82,0,0,1,1,1v0.27c0,2.73-.24,3.92-1.48,5.14a5,5,0,0,1-3.71,1.48,5.14,5.14,0,0,1-3.73-1.47c-1.43-1.42-1.52-2.7-1.52-6.13s0.1-4.7,1.52-6.13a5.09,5.09,0,0,1,3.72-1.47,4.85,4.85,0,0,1,4,1.79,4,4,0,0,1,1,2.17,0.76,0.76,0,0,1-.21.59,0.74,0.74,0,0,1-.54.21,0.72,0.72,0,0,1-.49-0.17,1.54,1.54,0,0,1-.38-0.67,3.37,3.37,0,0,0-3.36-2.5,3.46,3.46,0,0,0-2.56,1.07c-1,1-1.05,2.08-1.05,5.1S229,767.65,230,768.61Z" style="fill:#fff"/><path d="M242.06,755.74a1,1,0,1,1-1,1A1,1,0,0,1,242.06,755.74Zm0.77,14.3a1.16,1.16,0,0,1-.14.7,0.77,0.77,0,0,1-1.26,0,1.16,1.16,0,0,1-.14-0.7V761.6a1.16,1.16,0,0,1,.14-0.7,0.77,0.77,0,0,1,1.26,0,1.16,1.16,0,0,1,.14.7V770Z" style="fill:#fff"/><path d="M248.53,768.16a1.28,1.28,0,0,0,1.37,1.5,1.3,1.3,0,0,1,.68.13,0.65,0.65,0,0,1,0,1.07,1.3,1.3,0,0,1-.68.13h-0.27a2.52,2.52,0,0,1-2.62-2.77v-6.38h-0.72a1,1,0,0,1-.56-0.1,0.59,0.59,0,0,1,0-1,1,1,0,0,1,.56-0.11H247v-2.21a1.16,1.16,0,0,1,.14-0.7,0.77,0.77,0,0,1,1.26,0,1.16,1.16,0,0,1,.14.7v2.21h1.52a1,1,0,0,1,.56.11,0.59,0.59,0,0,1,0,1,1,1,0,0,1-.56.1h-1.52v6.33Z" style="fill:#fff"/><path d="M264.14,770.73a0.82,0.82,0,0,1-1.32,0,1.18,1.18,0,0,1-.15-0.76v-5.82h-7.05V770a1.18,1.18,0,0,1-.15.76,0.82,0.82,0,0,1-1.32,0A1.19,1.19,0,0,1,254,770V757a1.19,1.19,0,0,1,.15-0.76,0.82,0.82,0,0,1,1.32,0,1.18,1.18,0,0,1,.15.76v5.69h7.05V757a1.18,1.18,0,0,1,.15-0.76,0.82,0.82,0,0,1,1.32,0,1.18,1.18,0,0,1,.15.76V770A1.18,1.18,0,0,1,264.14,770.73Z" style="fill:#fff"/><path d="M268.24,761.6a1.2,1.2,0,0,1,.14-0.7,0.74,0.74,0,0,1,.63-0.33,0.73,0.73,0,0,1,.63.33,1.2,1.2,0,0,1,.14.7V767c0,1.84,1,2.75,2.53,2.75a2.43,2.43,0,0,0,2.58-2.75v-5.4a1.21,1.21,0,0,1,.14-0.7,0.77,0.77,0,0,1,1.26,0,1.2,1.2,0,0,1,.14.7V770a1.16,1.16,0,0,1-.14.7,0.77,0.77,0,0,1-1.26,0,1.16,1.16,0,0,1-.14-0.7v-0.19a3.79,3.79,0,0,1-2.9,1.26,3.7,3.7,0,0,1-2.68-1,3.84,3.84,0,0,1-1.07-2.89V761.6Z" style="fill:#fff"/><path d="M287.19,770.21a3.56,3.56,0,0,1-2.52.9,3.31,3.31,0,0,1-2.92-1.36V770a1.16,1.16,0,0,1-.14.7,0.77,0.77,0,0,1-1.26,0,1.16,1.16,0,0,1-.14-0.7V757a1.16,1.16,0,0,1,.14-0.7,0.77,0.77,0,0,1,1.26,0,1.16,1.16,0,0,1,.14.7v4.87a3.34,3.34,0,0,1,2.92-1.32,3.56,3.56,0,0,1,2.52.9c1,1,1.28,2.73,1.28,4.39S288.24,769.16,287.19,770.21Zm-2.85-8.31c-2.26,0-2.59,1.91-2.59,3.93s0.34,3.93,2.59,3.93,2.59-1.91,2.59-3.93S286.6,761.89,284.34,761.89Z" style="fill:#fff"/><path d="M299.65,765.06h3.13v-0.84c0-1.57-.73-2.38-2.54-2.38a3.05,3.05,0,0,0-2.34.91,1,1,0,0,1-.64.27,0.64,0.64,0,0,1-.46-0.19,0.67,0.67,0,0,1-.19-0.48,1.73,1.73,0,0,1,1-1.16,4.67,4.67,0,0,1,2.66-.67c2.67,0,4.05,1.2,4.05,3.45V770a1.16,1.16,0,0,1-.14.7,0.77,0.77,0,0,1-1.26,0,1.16,1.16,0,0,1-.14-0.7v0a3.7,3.7,0,0,1-3,1.09,3.77,3.77,0,0,1-2.94-.94,3,3,0,0,1-.79-2.11C296.08,766.24,297.41,765.06,299.65,765.06Zm0.32,4.76a3,3,0,0,0,2.28-.7,2.4,2.4,0,0,0,.54-1.8v-1.1h-3c-1.48,0-2.24.64-2.24,1.83S298.36,769.82,300,769.82Z" style="fill:#fff"/><path d="M312,760.53a3.73,3.73,0,0,1,2.52.85,1.32,1.32,0,0,1,.73,1,0.71,0.71,0,0,1-.22.49,0.7,0.7,0,0,1-.47.19,1.19,1.19,0,0,1-.73-0.4,2.55,2.55,0,0,0-1.83-.75,2.74,2.74,0,0,0-2.36,1.14,6.07,6.07,0,0,0,0,5.55,2.75,2.75,0,0,0,2.36,1.16,2.5,2.5,0,0,0,1.83-.75,1.29,1.29,0,0,1,.73-0.4,0.7,0.7,0,0,1,.47.19,0.71,0.71,0,0,1,.22.49,1.38,1.38,0,0,1-.73,1,3.8,3.8,0,0,1-2.52.84c-2.63,0-4.57-1.76-4.57-5.29S309.36,760.53,312,760.53Z" style="fill:#fff"/><path d="M322,760.53a3.73,3.73,0,0,1,2.52.85,1.32,1.32,0,0,1,.73,1,0.71,0.71,0,0,1-.22.49,0.71,0.71,0,0,1-.47.19,1.19,1.19,0,0,1-.73-0.4,2.55,2.55,0,0,0-1.83-.75,2.75,2.75,0,0,0-2.36,1.14,6.07,6.07,0,0,0,0,5.55,2.75,2.75,0,0,0,2.36,1.16,2.5,2.5,0,0,0,1.83-.75,1.29,1.29,0,0,1,.73-0.4,0.71,0.71,0,0,1,.47.19,0.71,0.71,0,0,1,.22.49,1.38,1.38,0,0,1-.73,1,3.8,3.8,0,0,1-2.52.84c-2.64,0-4.57-1.76-4.57-5.29S319.37,760.53,322,760.53Z" style="fill:#fff"/><path d="M334.69,761.7a7.3,7.3,0,0,1,0,8.23,4.34,4.34,0,0,1-5.94,0,7.3,7.3,0,0,1,0-8.23A4.34,4.34,0,0,1,334.69,761.7Zm-1.1,7.3a6.42,6.42,0,0,0,0-6.35,2.69,2.69,0,0,0-3.74,0,6.42,6.42,0,0,0,0,6.35A2.71,2.71,0,0,0,333.59,769Z" style="fill:#fff"/><path d="M339.09,761.6a1.2,1.2,0,0,1,.14-0.7,0.74,0.74,0,0,1,.63-0.33,0.73,0.73,0,0,1,.63.33,1.2,1.2,0,0,1,.14.7V767c0,1.84,1,2.75,2.53,2.75a2.43,2.43,0,0,0,2.58-2.75v-5.4a1.21,1.21,0,0,1,.14-0.7,0.77,0.77,0,0,1,1.26,0,1.2,1.2,0,0,1,.14.7V770a1.16,1.16,0,0,1-.14.7,0.77,0.77,0,0,1-1.26,0,1.16,1.16,0,0,1-.14-0.7v-0.19a3.79,3.79,0,0,1-2.9,1.26,3.7,3.7,0,0,1-2.68-1,3.84,3.84,0,0,1-1.07-2.89V761.6Z" style="fill:#fff"/><path d="M359.25,770a1.2,1.2,0,0,1-.14.7,0.74,0.74,0,0,1-.63.33,0.73,0.73,0,0,1-.63-0.33,1.2,1.2,0,0,1-.14-0.7v-5.4c0-1.84-1-2.75-2.53-2.75a2.43,2.43,0,0,0-2.58,2.75V770a1.2,1.2,0,0,1-.14.7,0.77,0.77,0,0,1-1.26,0,1.2,1.2,0,0,1-.14-0.7V761.6a1.16,1.16,0,0,1,.14-0.7,0.77,0.77,0,0,1,1.26,0,1.16,1.16,0,0,1,.14.7v0.19a3.79,3.79,0,0,1,2.9-1.26,3.7,3.7,0,0,1,2.68,1,3.84,3.84,0,0,1,1.07,2.89V770Z" style="fill:#fff"/><path d="M364.78,768.16a1.28,1.28,0,0,0,1.36,1.5,1.3,1.3,0,0,1,.68.13,0.65,0.65,0,0,1,0,1.07,1.3,1.3,0,0,1-.68.13h-0.27a2.52,2.52,0,0,1-2.62-2.77v-6.38h-0.72a1,1,0,0,1-.56-0.1,0.59,0.59,0,0,1,0-1,1,1,0,0,1,.56-0.11h0.72v-2.21a1.16,1.16,0,0,1,.14-0.7,0.77,0.77,0,0,1,1.26,0,1.16,1.16,0,0,1,.14.7v2.21h1.52a1,1,0,0,1,.56.11,0.59,0.59,0,0,1,0,1,1,1,0,0,1-.56.1h-1.52v6.33Z" style="fill:#fff"/><path d="M133.9,797.38a5.09,5.09,0,0,1,3.72-1.47,4.85,4.85,0,0,1,4,1.79,4,4,0,0,1,1,2.17,0.77,0.77,0,0,1-.21.59,0.74,0.74,0,0,1-.54.21,0.72,0.72,0,0,1-.49-0.17,1.53,1.53,0,0,1-.38-0.67,3.37,3.37,0,0,0-3.36-2.5,3.46,3.46,0,0,0-2.56,1.07c-1,1-1,2.08-1,5.1s0.09,4.13,1,5.1a3.46,3.46,0,0,0,2.56,1.07,3.37,3.37,0,0,0,3.36-2.5,1.52,1.52,0,0,1,.38-0.67,0.72,0.72,0,0,1,.49-0.17,0.73,0.73,0,0,1,.54.21,0.76,0.76,0,0,1,.21.59,4,4,0,0,1-1,2.17,4.85,4.85,0,0,1-4,1.79,5.09,5.09,0,0,1-3.72-1.47c-1.42-1.43-1.52-2.7-1.52-6.13S132.49,798.8,133.9,797.38Z" style="fill:#fff"/><path d="M147.61,801.89a3.47,3.47,0,0,1,2.82-1.37,3.31,3.31,0,0,1,1.86.49,1,1,0,0,1,.58.78,0.8,0.8,0,0,1-.22.54,0.75,0.75,0,0,1-.53.22,1.5,1.5,0,0,1-.72-0.29,2.5,2.5,0,0,0-3.79,2.41V810a1.16,1.16,0,0,1-.14.7,0.77,0.77,0,0,1-1.26,0,1.16,1.16,0,0,1-.14-0.7v-8.45a1.16,1.16,0,0,1,.14-0.7,0.77,0.77,0,0,1,1.26,0,1.16,1.16,0,0,1,.14.7v0.3Z" style="fill:#fff"/><path d="M155.3,806.21c0,2.26,1.07,3.58,3.07,3.58a3.39,3.39,0,0,0,2.21-.75,1.08,1.08,0,0,1,.71-0.37,0.69,0.69,0,0,1,.65.66,2,2,0,0,1-1.07,1.18,5.11,5.11,0,0,1-2.57.6c-2.74,0-4.52-1.64-4.52-5.29,0-3.41,1.66-5.29,4.26-5.29s4.22,1.91,4.24,4.79a0.94,0.94,0,0,1-.21.69,0.84,0.84,0,0,1-.67.2h-6.1Zm5.48-1.16a4.3,4.3,0,0,0-.33-1.68,2.66,2.66,0,0,0-4.83,0,4.3,4.3,0,0,0-.33,1.68h5.48Z" style="fill:#fff"/><path d="M168.17,805.06h3.13v-0.84c0-1.57-.74-2.38-2.54-2.38a3.06,3.06,0,0,0-2.34.91,1,1,0,0,1-.64.27,0.63,0.63,0,0,1-.46-0.19,0.67,0.67,0,0,1-.19-0.48,1.74,1.74,0,0,1,1-1.16,4.67,4.67,0,0,1,2.66-.67c2.67,0,4.05,1.2,4.05,3.45V810a1.16,1.16,0,0,1-.14.7,0.77,0.77,0,0,1-1.26,0,1.16,1.16,0,0,1-.14-0.7v0a3.7,3.7,0,0,1-3,1.09,3.77,3.77,0,0,1-2.94-.94,3,3,0,0,1-.79-2.11C164.6,806.24,165.93,805.06,168.17,805.06Zm0.31,4.76a3,3,0,0,0,2.28-.7,2.4,2.4,0,0,0,.54-1.8v-1.1h-3c-1.48,0-2.24.64-2.24,1.83S166.88,809.82,168.49,809.82Z" style="fill:#fff"/><path d="M178.37,808.16a1.28,1.28,0,0,0,1.37,1.5,1.3,1.3,0,0,1,.68.13,0.65,0.65,0,0,1,0,1.07,1.3,1.3,0,0,1-.68.13h-0.27a2.52,2.52,0,0,1-2.62-2.77v-6.38h-0.72a1,1,0,0,1-.56-0.1,0.59,0.59,0,0,1,0-1,1,1,0,0,1,.56-0.11h0.72v-2.21a1.16,1.16,0,0,1,.14-0.7,0.77,0.77,0,0,1,1.26,0,1.16,1.16,0,0,1,.14.7v2.21h1.52a1,1,0,0,1,.56.11,0.59,0.59,0,0,1,0,1,1,1,0,0,1-.56.1h-1.52v6.33Z" style="fill:#fff"/><path d="M184.42,806.21c0,2.26,1.07,3.58,3.06,3.58a3.38,3.38,0,0,0,2.21-.75,1.08,1.08,0,0,1,.71-0.37,0.69,0.69,0,0,1,.65.66,2,2,0,0,1-1.07,1.18,5.11,5.11,0,0,1-2.57.6c-2.74,0-4.53-1.64-4.53-5.29,0-3.41,1.66-5.29,4.26-5.29s4.22,1.91,4.24,4.79a0.93,0.93,0,0,1-.21.69,0.85,0.85,0,0,1-.67.2h-6.1Zm5.48-1.16a4.32,4.32,0,0,0-.32-1.68,2.66,2.66,0,0,0-4.83,0,4.32,4.32,0,0,0-.32,1.68h5.48Z" style="fill:#fff"/><path d="M195.31,801.43a3.56,3.56,0,0,1,2.52-.9,3.34,3.34,0,0,1,2.92,1.32V797a1.16,1.16,0,0,1,.14-0.7,0.77,0.77,0,0,1,1.26,0,1.16,1.16,0,0,1,.14.7V810a1.16,1.16,0,0,1-.14.7,0.77,0.77,0,0,1-1.26,0,1.16,1.16,0,0,1-.14-0.7v-0.29a3.31,3.31,0,0,1-2.92,1.36,3.56,3.56,0,0,1-2.52-.9c-1-1-1.28-2.73-1.28-4.39S194.26,802.48,195.31,801.43Zm2.84,8.31c2.26,0,2.59-1.91,2.59-3.93s-0.34-3.93-2.59-3.93-2.59,1.91-2.59,3.93S195.89,809.74,198.15,809.74Z" style="fill:#fff"/><path d="M213.15,808.16a1.28,1.28,0,0,0,1.37,1.5,1.3,1.3,0,0,1,.68.13,0.65,0.65,0,0,1,0,1.07,1.3,1.3,0,0,1-.68.13h-0.27a2.52,2.52,0,0,1-2.62-2.77v-6.38H210.9a1,1,0,0,1-.56-0.1,0.59,0.59,0,0,1,0-1,1,1,0,0,1,.56-0.11h0.72v-2.21a1.15,1.15,0,0,1,.14-0.7,0.77,0.77,0,0,1,1.26,0,1.15,1.15,0,0,1,.14.7v2.21h1.52a1,1,0,0,1,.56.11,0.59,0.59,0,0,1,0,1,1,1,0,0,1-.56.1h-1.52v6.33Z" style="fill:#fff"/><path d="M219.76,810.74a0.77,0.77,0,0,1-1.26,0,1.16,1.16,0,0,1-.14-0.7V797a1.16,1.16,0,0,1,.14-0.7,0.77,0.77,0,0,1,1.26,0,1.16,1.16,0,0,1,.14.7v4.81a3.72,3.72,0,0,1,2.9-1.26,3.49,3.49,0,0,1,3.74,3.82V810a1.16,1.16,0,0,1-.14.7,0.77,0.77,0,0,1-1.26,0A1.16,1.16,0,0,1,225,810V804.6c0-1.82-.95-2.71-2.52-2.71a2.4,2.4,0,0,0-2.58,2.71V810A1.16,1.16,0,0,1,219.76,810.74Z" style="fill:#fff"/><path d="M231.16,806.21c0,2.26,1.07,3.58,3.07,3.58a3.39,3.39,0,0,0,2.21-.75,1.08,1.08,0,0,1,.71-0.37,0.69,0.69,0,0,1,.65.66,2,2,0,0,1-1.07,1.18,5.11,5.11,0,0,1-2.57.6c-2.74,0-4.53-1.64-4.53-5.29,0-3.41,1.66-5.29,4.26-5.29s4.22,1.91,4.24,4.79a0.94,0.94,0,0,1-.21.69,0.84,0.84,0,0,1-.67.2h-6.1Zm5.48-1.16a4.3,4.3,0,0,0-.33-1.68,2.66,2.66,0,0,0-4.83,0,4.34,4.34,0,0,0-.33,1.68h5.48Z" style="fill:#fff"/><path d="M248.09,801.89a3.47,3.47,0,0,1,2.82-1.37,3.31,3.31,0,0,1,1.86.49,1,1,0,0,1,.58.78,0.8,0.8,0,0,1-.22.54,0.74,0.74,0,0,1-.52.22,1.49,1.49,0,0,1-.72-0.29,2.5,2.5,0,0,0-3.79,2.41V810a1.16,1.16,0,0,1-.14.7,0.77,0.77,0,0,1-1.26,0,1.16,1.16,0,0,1-.14-0.7v-8.45a1.15,1.15,0,0,1,.14-0.7,0.77,0.77,0,0,1,1.26,0,1.15,1.15,0,0,1,.14.7v0.3Z" style="fill:#fff"/><path d="M255.78,806.21c0,2.26,1.07,3.58,3.06,3.58a3.38,3.38,0,0,0,2.21-.75,1.08,1.08,0,0,1,.71-0.37,0.69,0.69,0,0,1,.65.66,2,2,0,0,1-1.07,1.18,5.11,5.11,0,0,1-2.57.6c-2.74,0-4.53-1.64-4.53-5.29,0-3.41,1.66-5.29,4.26-5.29s4.22,1.91,4.24,4.79a0.93,0.93,0,0,1-.21.69,0.85,0.85,0,0,1-.67.2h-6.1Zm5.48-1.16a4.32,4.32,0,0,0-.32-1.68,2.66,2.66,0,0,0-4.83,0,4.32,4.32,0,0,0-.32,1.68h5.48Z" style="fill:#fff"/><path d="M266.66,801.43a3.56,3.56,0,0,1,2.52-.9,3.31,3.31,0,0,1,2.92,1.37V801.6a1.16,1.16,0,0,1,.14-0.7,0.77,0.77,0,0,1,1.26,0,1.16,1.16,0,0,1,.14.7v13.06a1.16,1.16,0,0,1-.14.7,0.77,0.77,0,0,1-1.26,0,1.16,1.16,0,0,1-.14-0.7v-4.87a3.35,3.35,0,0,1-2.92,1.32,3.56,3.56,0,0,1-2.52-.9c-1-1-1.28-2.73-1.28-4.39S265.61,802.48,266.66,801.43Zm2.84,8.31c2.26,0,2.59-1.91,2.59-3.93s-0.34-3.93-2.59-3.93-2.59,1.91-2.59,3.93S267.25,809.74,269.51,809.74Z" style="fill:#fff"/><path d="M277.32,801.6a1.2,1.2,0,0,1,.14-0.7,0.74,0.74,0,0,1,.63-0.33,0.73,0.73,0,0,1,.63.33,1.2,1.2,0,0,1,.14.7V807c0,1.84,1,2.75,2.53,2.75A2.43,2.43,0,0,0,284,807v-5.4a1.21,1.21,0,0,1,.14-0.7,0.77,0.77,0,0,1,1.26,0,1.2,1.2,0,0,1,.14.7V810a1.16,1.16,0,0,1-.14.7,0.77,0.77,0,0,1-1.26,0A1.16,1.16,0,0,1,284,810v-0.19a3.79,3.79,0,0,1-2.9,1.26,3.7,3.7,0,0,1-2.68-1,3.84,3.84,0,0,1-1.07-2.89V801.6Z" style="fill:#fff"/><path d="M290.12,795.74a1,1,0,1,1-1,1A1,1,0,0,1,290.12,795.74Zm0.77,14.3a1.16,1.16,0,0,1-.14.7,0.77,0.77,0,0,1-1.26,0,1.16,1.16,0,0,1-.14-0.7V801.6a1.16,1.16,0,0,1,.14-0.7,0.77,0.77,0,0,1,1.26,0,1.16,1.16,0,0,1,.14.7V810Z" style="fill:#fff"/><path d="M296.27,801.89a3.47,3.47,0,0,1,2.82-1.37A3.31,3.31,0,0,1,301,801a1,1,0,0,1,.58.78,0.8,0.8,0,0,1-.22.54,0.74,0.74,0,0,1-.52.22,1.49,1.49,0,0,1-.72-0.29,2.5,2.5,0,0,0-3.79,2.41V810a1.16,1.16,0,0,1-.14.7,0.77,0.77,0,0,1-1.26,0,1.16,1.16,0,0,1-.14-0.7v-8.45a1.15,1.15,0,0,1,.14-0.7,0.77,0.77,0,0,1,1.26,0,1.15,1.15,0,0,1,.14.7v0.3Z" style="fill:#fff"/><path d="M304,806.21c0,2.26,1.07,3.58,3.06,3.58a3.38,3.38,0,0,0,2.21-.75,1.08,1.08,0,0,1,.71-0.37,0.69,0.69,0,0,1,.65.66,2,2,0,0,1-1.07,1.18,5.11,5.11,0,0,1-2.57.6c-2.74,0-4.53-1.64-4.53-5.29,0-3.41,1.66-5.29,4.26-5.29s4.22,1.91,4.24,4.79a0.93,0.93,0,0,1-.21.69,0.85,0.85,0,0,1-.67.2H304Zm5.48-1.16a4.32,4.32,0,0,0-.32-1.68,2.66,2.66,0,0,0-4.83,0,4.32,4.32,0,0,0-.32,1.68h5.48Z" style="fill:#fff"/><path d="M314.85,801.43a3.56,3.56,0,0,1,2.52-.9,3.34,3.34,0,0,1,2.92,1.32V797a1.16,1.16,0,0,1,.14-0.7,0.77,0.77,0,0,1,1.26,0,1.16,1.16,0,0,1,.14.7V810a1.16,1.16,0,0,1-.14.7,0.77,0.77,0,0,1-1.26,0,1.16,1.16,0,0,1-.14-0.7v-0.29a3.31,3.31,0,0,1-2.92,1.36,3.56,3.56,0,0,1-2.52-.9c-1-1-1.28-2.73-1.28-4.39S313.8,802.48,314.85,801.43Zm2.84,8.31c2.26,0,2.59-1.91,2.59-3.93s-0.34-3.93-2.59-3.93-2.59,1.91-2.59,3.93S315.43,809.74,317.69,809.74Z" style="fill:#fff"/><path d="M333.21,808.61a3.51,3.51,0,0,0,2.58,1.07,3.57,3.57,0,0,0,2.59-1c0.85-.86,1-1.85,1-4h-2.76a1.18,1.18,0,0,1-.69-0.13,0.72,0.72,0,0,1,0-1.18,1.18,1.18,0,0,1,.69-0.13H340a0.82,0.82,0,0,1,1,1v0.27c0,2.73-.24,3.92-1.48,5.14a5,5,0,0,1-3.71,1.48,5.14,5.14,0,0,1-3.73-1.47c-1.43-1.42-1.52-2.7-1.52-6.13s0.1-4.7,1.52-6.13a5.09,5.09,0,0,1,3.72-1.47,4.85,4.85,0,0,1,4,1.79,4,4,0,0,1,1,2.17,0.76,0.76,0,0,1-.21.59,0.74,0.74,0,0,1-.54.21,0.72,0.72,0,0,1-.49-0.17,1.54,1.54,0,0,1-.38-0.67,3.37,3.37,0,0,0-3.36-2.5,3.46,3.46,0,0,0-2.56,1.07c-1,1-1.05,2.08-1.05,5.1S332.28,807.65,333.21,808.61Z" style="fill:#fff"/><path d="M345.32,795.74a1,1,0,1,1-1,1A1,1,0,0,1,345.32,795.74Zm0.77,14.3a1.16,1.16,0,0,1-.14.7,0.77,0.77,0,0,1-1.26,0,1.16,1.16,0,0,1-.14-0.7V801.6a1.16,1.16,0,0,1,.14-0.7,0.77,0.77,0,0,1,1.26,0,1.16,1.16,0,0,1,.14.7V810Z" style="fill:#fff"/><path d="M351.78,808.16a1.28,1.28,0,0,0,1.37,1.5,1.3,1.3,0,0,1,.68.13,0.65,0.65,0,0,1,0,1.07,1.3,1.3,0,0,1-.68.13h-0.27a2.52,2.52,0,0,1-2.62-2.77v-6.38h-0.72a1,1,0,0,1-.56-0.1,0.59,0.59,0,0,1,0-1,1,1,0,0,1,.56-0.11h0.72v-2.21a1.16,1.16,0,0,1,.14-0.7,0.77,0.77,0,0,1,1.26,0,1.16,1.16,0,0,1,.14.7v2.21h1.52a1,1,0,0,1,.56.11,0.59,0.59,0,0,1,0,1,1,1,0,0,1-.56.1h-1.52v6.33Z" style="fill:#fff"/><path d="M367.4,810.73a0.82,0.82,0,0,1-1.32,0,1.18,1.18,0,0,1-.15-0.76v-5.82h-7.05V810a1.18,1.18,0,0,1-.15.76,0.82,0.82,0,0,1-1.32,0,1.19,1.19,0,0,1-.15-0.76V797a1.19,1.19,0,0,1,.15-0.76,0.82,0.82,0,0,1,1.32,0,1.18,1.18,0,0,1,.15.76v5.69h7.05V797a1.18,1.18,0,0,1,.15-0.76,0.82,0.82,0,0,1,1.32,0,1.18,1.18,0,0,1,.15.76V810A1.18,1.18,0,0,1,367.4,810.73Z" style="fill:#fff"/><path d="M371.49,801.6a1.2,1.2,0,0,1,.14-0.7,0.74,0.74,0,0,1,.63-0.33,0.73,0.73,0,0,1,.63.33,1.2,1.2,0,0,1,.14.7V807c0,1.84,1,2.75,2.53,2.75a2.43,2.43,0,0,0,2.58-2.75v-5.4a1.21,1.21,0,0,1,.14-0.7,0.77,0.77,0,0,1,1.26,0,1.2,1.2,0,0,1,.14.7V810a1.16,1.16,0,0,1-.14.7,0.77,0.77,0,0,1-1.26,0,1.16,1.16,0,0,1-.14-0.7v-0.19a3.79,3.79,0,0,1-2.9,1.26,3.7,3.7,0,0,1-2.68-1,3.84,3.84,0,0,1-1.07-2.89V801.6Z" style="fill:#fff"/><path d="M390.45,810.21a3.56,3.56,0,0,1-2.52.9,3.31,3.31,0,0,1-2.92-1.36V810a1.16,1.16,0,0,1-.14.7,0.77,0.77,0,0,1-1.26,0,1.16,1.16,0,0,1-.14-0.7V797a1.16,1.16,0,0,1,.14-0.7,0.77,0.77,0,0,1,1.26,0,1.16,1.16,0,0,1,.14.7v4.87a3.34,3.34,0,0,1,2.92-1.32,3.56,3.56,0,0,1,2.52.9c1,1,1.28,2.73,1.28,4.39S391.49,809.16,390.45,810.21Zm-2.85-8.31c-2.26,0-2.59,1.91-2.59,3.93s0.34,3.93,2.59,3.93,2.59-1.91,2.59-3.93S389.86,801.89,387.6,801.89Z" style="fill:#fff"/><path d="M401.73,801.89a3.47,3.47,0,0,1,2.82-1.37,3.31,3.31,0,0,1,1.86.49,1,1,0,0,1,.58.78,0.8,0.8,0,0,1-.22.54,0.74,0.74,0,0,1-.52.22,1.49,1.49,0,0,1-.72-0.29,2.5,2.5,0,0,0-3.79,2.41V810a1.16,1.16,0,0,1-.13.7,0.77,0.77,0,0,1-1.26,0,1.16,1.16,0,0,1-.14-0.7v-8.45a1.15,1.15,0,0,1,.14-0.7,0.77,0.77,0,0,1,1.26,0,1.16,1.16,0,0,1,.13.7v0.3Z" style="fill:#fff"/><path d="M409.42,806.21c0,2.26,1.07,3.58,3.07,3.58a3.39,3.39,0,0,0,2.21-.75,1.08,1.08,0,0,1,.71-0.37,0.69,0.69,0,0,1,.65.66,2,2,0,0,1-1.07,1.18,5.11,5.11,0,0,1-2.57.6c-2.74,0-4.53-1.64-4.53-5.29,0-3.41,1.66-5.29,4.26-5.29s4.22,1.91,4.24,4.79a0.94,0.94,0,0,1-.21.69,0.84,0.84,0,0,1-.67.2h-6.1Zm5.48-1.16a4.32,4.32,0,0,0-.32-1.68,2.66,2.66,0,0,0-4.83,0,4.36,4.36,0,0,0-.33,1.68h5.48Z" style="fill:#fff"/><path d="M426.55,810.21a3.56,3.56,0,0,1-2.52.9,3.35,3.35,0,0,1-2.92-1.32v4.87a1.16,1.16,0,0,1-.14.7,0.77,0.77,0,0,1-1.26,0,1.16,1.16,0,0,1-.14-0.7V801.6a1.16,1.16,0,0,1,.14-0.7,0.77,0.77,0,0,1,1.26,0,1.16,1.16,0,0,1,.14.7v0.29a3.31,3.31,0,0,1,2.92-1.37,3.56,3.56,0,0,1,2.52.9c1.05,1,1.28,2.73,1.28,4.39S427.6,809.16,426.55,810.21Zm-2.84-.46c2.26,0,2.59-1.91,2.59-3.93s-0.34-3.93-2.59-3.93-2.59,1.91-2.59,3.93S421.45,809.74,423.71,809.74Z" style="fill:#fff"/><path d="M437.73,801.7a7.3,7.3,0,0,1,0,8.23,4.34,4.34,0,0,1-5.94,0,7.3,7.3,0,0,1,0-8.23A4.34,4.34,0,0,1,437.73,801.7Zm-1.1,7.3a6.42,6.42,0,0,0,0-6.35,2.69,2.69,0,0,0-3.74,0,6.42,6.42,0,0,0,0,6.35A2.71,2.71,0,0,0,436.63,809Z" style="fill:#fff"/><path d="M138,851.11a5,5,0,0,1-5.23-5.06v-9a1.19,1.19,0,0,1,.15-0.76,0.82,0.82,0,0,1,1.32,0,1.19,1.19,0,0,1,.15.76v8.88a3.62,3.62,0,1,0,7.24,0V837a1.18,1.18,0,0,1,.15-0.76,0.82,0.82,0,0,1,1.32,0,1.18,1.18,0,0,1,.15.76v9A5,5,0,0,1,138,851.11Z" style="fill:#fff"/><path d="M146.17,849.41a0.74,0.74,0,0,1,.24-0.53,0.65,0.65,0,0,1,.44-0.16,1.25,1.25,0,0,1,.69.29,4.37,4.37,0,0,0,2.72.78c1.75,0,2.75-.6,2.75-1.82,0-.92-0.55-1.4-1.72-1.5l-1.7-.16c-2-.18-3.09-1.07-3.09-2.77,0-1.88,1.59-3,3.8-3a6.21,6.21,0,0,1,2.89.65,1.39,1.39,0,0,1,.52.38,0.61,0.61,0,0,1,.12.39,0.73,0.73,0,0,1-.17.41,0.64,0.64,0,0,1-.48.22,1.22,1.22,0,0,1-.58-0.2,4.85,4.85,0,0,0-2.31-.56c-1.47,0-2.31.61-2.31,1.7,0,0.93.58,1.38,1.82,1.49l1.66,0.16c1.82,0.17,3,.85,3,2.8s-1.71,3.15-4.21,3.15a6,6,0,0,1-3.61-1A0.93,0.93,0,0,1,146.17,849.41Z" style="fill:#fff"/><path d="M158.41,846.21c0,2.26,1.07,3.58,3.07,3.58a3.39,3.39,0,0,0,2.21-.75,1.08,1.08,0,0,1,.71-0.37,0.69,0.69,0,0,1,.65.66,2,2,0,0,1-1.07,1.18,5.11,5.11,0,0,1-2.57.6c-2.74,0-4.53-1.64-4.53-5.29,0-3.41,1.66-5.29,4.26-5.29s4.22,1.91,4.24,4.79a0.94,0.94,0,0,1-.21.69,0.84,0.84,0,0,1-.67.2h-6.1Zm5.48-1.16a4.3,4.3,0,0,0-.33-1.68,2.66,2.66,0,0,0-4.83,0,4.34,4.34,0,0,0-.33,1.68h5.48Z" style="fill:#fff"/><path d="M169.3,841.43a3.56,3.56,0,0,1,2.52-.9,3.34,3.34,0,0,1,2.92,1.32V837a1.16,1.16,0,0,1,.14-0.7,0.77,0.77,0,0,1,1.26,0,1.16,1.16,0,0,1,.14.7V850a1.16,1.16,0,0,1-.14.7,0.77,0.77,0,0,1-1.26,0,1.16,1.16,0,0,1-.14-0.7v-0.29a3.31,3.31,0,0,1-2.92,1.36,3.56,3.56,0,0,1-2.52-.9c-1-1-1.28-2.73-1.28-4.39S168.25,842.48,169.3,841.43Zm2.85,8.31c2.26,0,2.59-1.91,2.59-3.93s-0.34-3.93-2.59-3.93-2.59,1.91-2.59,3.93S169.88,849.74,172.14,849.74Z" style="fill:#fff"/><path d="M187.66,848.61a3.51,3.51,0,0,0,2.58,1.07,3.56,3.56,0,0,0,2.59-1c0.85-.86,1-1.85,1-4H191.1a1.18,1.18,0,0,1-.69-0.13,0.72,0.72,0,0,1,0-1.18,1.17,1.17,0,0,1,.69-0.13h3.35a0.82,0.82,0,0,1,1,1v0.27c0,2.73-.24,3.92-1.48,5.14a5,5,0,0,1-3.71,1.48,5.14,5.14,0,0,1-3.73-1.47c-1.43-1.42-1.52-2.7-1.52-6.13s0.11-4.7,1.52-6.13a5.09,5.09,0,0,1,3.71-1.47,4.86,4.86,0,0,1,4,1.79,4,4,0,0,1,1,2.17,0.76,0.76,0,0,1-.21.59,0.74,0.74,0,0,1-.54.21,0.72,0.72,0,0,1-.49-0.17,1.52,1.52,0,0,1-.38-0.67,3.37,3.37,0,0,0-3.36-2.5,3.46,3.46,0,0,0-2.56,1.07c-1,1-1,2.08-1,5.1S186.73,847.65,187.66,848.61Z" style="fill:#fff"/><path d="M199.77,835.74a1,1,0,1,1-1,1A1,1,0,0,1,199.77,835.74Zm0.77,14.3a1.16,1.16,0,0,1-.14.7,0.77,0.77,0,0,1-1.26,0A1.16,1.16,0,0,1,199,850V841.6a1.16,1.16,0,0,1,.14-0.7,0.77,0.77,0,0,1,1.26,0,1.16,1.16,0,0,1,.14.7V850Z" style="fill:#fff"/><path d="M206.24,848.16a1.28,1.28,0,0,0,1.36,1.5,1.3,1.3,0,0,1,.68.13,0.65,0.65,0,0,1,0,1.07,1.3,1.3,0,0,1-.68.13h-0.27a2.52,2.52,0,0,1-2.62-2.77v-6.38H204a1,1,0,0,1-.56-0.1,0.59,0.59,0,0,1,0-1,1,1,0,0,1,.56-0.11h0.72v-2.21a1.16,1.16,0,0,1,.14-0.7,0.77,0.77,0,0,1,1.26,0,1.16,1.16,0,0,1,.14.7v2.21h1.52a1,1,0,0,1,.56.11,0.59,0.59,0,0,1,0,1,1,1,0,0,1-.56.1h-1.52v6.33Z" style="fill:#fff"/><path d="M218.52,848.16a1.28,1.28,0,0,0,1.36,1.5,1.3,1.3,0,0,1,.68.13,0.65,0.65,0,0,1,0,1.07,1.3,1.3,0,0,1-.68.13h-0.27a2.52,2.52,0,0,1-2.62-2.77v-6.38h-0.72a1,1,0,0,1-.56-0.1,0.59,0.59,0,0,1,0-1,1,1,0,0,1,.56-0.11H217v-2.21a1.16,1.16,0,0,1,.14-0.7,0.77,0.77,0,0,1,1.26,0,1.16,1.16,0,0,1,.14.7v2.21H220a1,1,0,0,1,.56.11,0.59,0.59,0,0,1,0,1,1,1,0,0,1-.56.1h-1.52v6.33Z" style="fill:#fff"/><path d="M230.28,841.7a7.3,7.3,0,0,1,0,8.23,4.34,4.34,0,0,1-5.94,0,7.3,7.3,0,0,1,0-8.23A4.34,4.34,0,0,1,230.28,841.7Zm-1.1,7.3a6.42,6.42,0,0,0,0-6.35,2.69,2.69,0,0,0-3.74,0,6.42,6.42,0,0,0,0,6.35A2.71,2.71,0,0,0,229.18,849Z" style="fill:#fff"/><path d="M242.73,845.06h3.13v-0.84c0-1.57-.73-2.38-2.54-2.38a3.06,3.06,0,0,0-2.34.91,1,1,0,0,1-.64.27,0.63,0.63,0,0,1-.46-0.19,0.67,0.67,0,0,1-.19-0.48,1.73,1.73,0,0,1,1-1.16,4.67,4.67,0,0,1,2.66-.67c2.67,0,4.05,1.2,4.05,3.45V850a1.16,1.16,0,0,1-.14.7,0.77,0.77,0,0,1-1.26,0,1.16,1.16,0,0,1-.14-0.7v0a3.7,3.7,0,0,1-3,1.09,3.77,3.77,0,0,1-2.94-.94,3,3,0,0,1-.79-2.11C239.16,846.24,240.49,845.06,242.73,845.06Zm0.31,4.76a3,3,0,0,0,2.28-.7,2.4,2.4,0,0,0,.54-1.8v-1.1h-3c-1.48,0-2.24.64-2.24,1.83S241.44,849.82,243,849.82Z" style="fill:#fff"/><path d="M251.81,841.43a3.56,3.56,0,0,1,2.52-.9,3.34,3.34,0,0,1,2.92,1.32V837a1.16,1.16,0,0,1,.14-0.7,0.77,0.77,0,0,1,1.26,0,1.16,1.16,0,0,1,.14.7V850a1.16,1.16,0,0,1-.14.7,0.77,0.77,0,0,1-1.26,0,1.16,1.16,0,0,1-.14-0.7v-0.29a3.31,3.31,0,0,1-2.92,1.36,3.56,3.56,0,0,1-2.52-.9c-1-1-1.28-2.73-1.28-4.39S250.76,842.48,251.81,841.43Zm2.84,8.31c2.26,0,2.59-1.91,2.59-3.93s-0.34-3.93-2.59-3.93-2.59,1.91-2.59,3.93S252.39,849.74,254.65,849.74Z" style="fill:#fff"/><path d="M263.3,841.43a3.56,3.56,0,0,1,2.52-.9,3.34,3.34,0,0,1,2.92,1.32V837a1.16,1.16,0,0,1,.14-0.7,0.77,0.77,0,0,1,1.26,0,1.16,1.16,0,0,1,.14.7V850a1.16,1.16,0,0,1-.14.7,0.77,0.77,0,0,1-1.26,0,1.16,1.16,0,0,1-.14-0.7v-0.29a3.31,3.31,0,0,1-2.92,1.36,3.56,3.56,0,0,1-2.52-.9c-1-1-1.28-2.73-1.28-4.39S262.25,842.48,263.3,841.43Zm2.85,8.31c2.26,0,2.59-1.91,2.59-3.93s-0.34-3.93-2.59-3.93-2.59,1.91-2.59,3.93S263.89,849.74,266.15,849.74Z" style="fill:#fff"/><path d="M274,849.43a1.2,1.2,0,0,1,.35-0.62,0.66,0.66,0,0,1,.44-0.16,0.78,0.78,0,0,1,.76.55,1.26,1.26,0,0,1-.09.71l-0.93,2.8a1.2,1.2,0,0,1-.35.62,0.66,0.66,0,0,1-.44.16,0.78,0.78,0,0,1-.76-0.55,1.25,1.25,0,0,1,.09-0.71Z" style="fill:#fff"/><path d="M288.3,840.53a3.73,3.73,0,0,1,2.52.85,1.32,1.32,0,0,1,.73,1,0.71,0.71,0,0,1-.22.49,0.71,0.71,0,0,1-.47.19,1.19,1.19,0,0,1-.73-0.4,2.55,2.55,0,0,0-1.83-.75,2.75,2.75,0,0,0-2.36,1.14,6.07,6.07,0,0,0,0,5.55,2.75,2.75,0,0,0,2.36,1.16,2.5,2.5,0,0,0,1.83-.75,1.29,1.29,0,0,1,.73-0.4,0.71,0.71,0,0,1,.47.19,0.71,0.71,0,0,1,.22.49,1.38,1.38,0,0,1-.73,1,3.8,3.8,0,0,1-2.52.84c-2.64,0-4.57-1.76-4.57-5.29S285.67,840.53,288.3,840.53Z" style="fill:#fff"/><path d="M301,841.7a7.3,7.3,0,0,1,0,8.23,4.34,4.34,0,0,1-5.94,0,7.3,7.3,0,0,1,0-8.23A4.34,4.34,0,0,1,301,841.7Zm-1.1,7.3a6.42,6.42,0,0,0,0-6.35,2.69,2.69,0,0,0-3.74,0,6.42,6.42,0,0,0,0,6.35A2.71,2.71,0,0,0,299.88,849Z" style="fill:#fff"/><path d="M309.62,841.89a2.43,2.43,0,0,0-2.58,2.73V850a1.16,1.16,0,0,1-.14.7,0.77,0.77,0,0,1-1.26,0,1.16,1.16,0,0,1-.14-0.7V841.6a1.16,1.16,0,0,1,.14-0.7,0.77,0.77,0,0,1,1.26,0,1.16,1.16,0,0,1,.14.7v0.19a3.77,3.77,0,0,1,2.92-1.26,3.4,3.4,0,0,1,3.17,1.72,4,4,0,0,1,3.4-1.72,3.76,3.76,0,0,1,2.67,1,3.82,3.82,0,0,1,1.13,2.88V850a1.16,1.16,0,0,1-.14.7,0.77,0.77,0,0,1-1.26,0,1.16,1.16,0,0,1-.14-0.7v-5.42c0-1.82-1-2.73-2.54-2.73a2.39,2.39,0,0,0-2.57,2.56V850a1.16,1.16,0,0,1-.14.7,0.77,0.77,0,0,1-1.26,0,1.16,1.16,0,0,1-.14-0.7v-5.42C312.15,842.8,311.17,841.89,309.62,841.89Z" style="fill:#fff"/><path d="M328.13,841.89a2.43,2.43,0,0,0-2.58,2.73V850a1.16,1.16,0,0,1-.14.7,0.77,0.77,0,0,1-1.26,0A1.16,1.16,0,0,1,324,850V841.6a1.16,1.16,0,0,1,.14-0.7,0.77,0.77,0,0,1,1.26,0,1.16,1.16,0,0,1,.14.7v0.19a3.77,3.77,0,0,1,2.92-1.26,3.4,3.4,0,0,1,3.17,1.72,4,4,0,0,1,3.4-1.72,3.77,3.77,0,0,1,2.67,1,3.82,3.82,0,0,1,1.13,2.88V850a1.16,1.16,0,0,1-.14.7,0.77,0.77,0,0,1-1.26,0,1.16,1.16,0,0,1-.14-0.7v-5.42c0-1.82-1-2.73-2.54-2.73a2.39,2.39,0,0,0-2.57,2.56V850a1.16,1.16,0,0,1-.14.7,0.77,0.77,0,0,1-1.26,0,1.16,1.16,0,0,1-.14-0.7v-5.42C330.66,842.8,329.68,841.89,328.13,841.89Z" style="fill:#fff"/><path d="M343.34,835.74a1,1,0,1,1-1,1A1,1,0,0,1,343.34,835.74Zm0.77,14.3a1.16,1.16,0,0,1-.14.7,0.77,0.77,0,0,1-1.26,0,1.16,1.16,0,0,1-.14-0.7V841.6a1.16,1.16,0,0,1,.14-0.7,0.77,0.77,0,0,1,1.26,0,1.16,1.16,0,0,1,.14.7V850Z" style="fill:#fff"/><path d="M349.81,848.16a1.28,1.28,0,0,0,1.37,1.5,1.3,1.3,0,0,1,.68.13,0.65,0.65,0,0,1,0,1.07,1.3,1.3,0,0,1-.68.13H350.9a2.52,2.52,0,0,1-2.62-2.77v-6.38h-0.72a1,1,0,0,1-.56-0.1,0.59,0.59,0,0,1,0-1,1,1,0,0,1,.56-0.11h0.72v-2.21a1.15,1.15,0,0,1,.14-0.7,0.77,0.77,0,0,1,1.26,0,1.15,1.15,0,0,1,.14.7v2.21h1.52a1,1,0,0,1,.56.11,0.59,0.59,0,0,1,0,1,1,1,0,0,1-.56.1h-1.52v6.33Z" style="fill:#fff"/><path d="M355,849.43a1.19,1.19,0,0,1,.35-0.62,0.66,0.66,0,0,1,.44-0.16,0.78,0.78,0,0,1,.76.55,1.24,1.24,0,0,1-.09.71l-0.93,2.8a1.2,1.2,0,0,1-.35.62,0.66,0.66,0,0,1-.44.16,0.78,0.78,0,0,1-.76-0.55,1.26,1.26,0,0,1,.09-0.71Z" style="fill:#fff"/><path d="M368,845.06h3.13v-0.84c0-1.57-.73-2.38-2.54-2.38a3.05,3.05,0,0,0-2.34.91,1,1,0,0,1-.64.27,0.64,0.64,0,0,1-.46-0.19,0.67,0.67,0,0,1-.19-0.48,1.73,1.73,0,0,1,1-1.16,4.67,4.67,0,0,1,2.66-.67c2.67,0,4.05,1.2,4.05,3.45V850a1.16,1.16,0,0,1-.14.7,0.77,0.77,0,0,1-1.26,0,1.16,1.16,0,0,1-.14-0.7v0a3.7,3.7,0,0,1-3,1.09,3.77,3.77,0,0,1-2.94-.94,3,3,0,0,1-.79-2.11C364.4,846.24,365.72,845.06,368,845.06Zm0.32,4.76a3,3,0,0,0,2.28-.7,2.4,2.4,0,0,0,.54-1.8v-1.1h-3c-1.48,0-2.24.64-2.24,1.83S366.67,849.82,368.28,849.82Z" style="fill:#fff"/><path d="M384.49,850a1.21,1.21,0,0,1-.14.7,0.74,0.74,0,0,1-.63.33,0.72,0.72,0,0,1-.63-0.33A1.2,1.2,0,0,1,383,850v-5.4c0-1.84-1-2.75-2.53-2.75a2.43,2.43,0,0,0-2.58,2.75V850a1.2,1.2,0,0,1-.14.7,0.77,0.77,0,0,1-1.26,0,1.2,1.2,0,0,1-.14-0.7V841.6a1.16,1.16,0,0,1,.14-0.7,0.77,0.77,0,0,1,1.26,0,1.16,1.16,0,0,1,.14.7v0.19a3.79,3.79,0,0,1,2.9-1.26,3.7,3.7,0,0,1,2.68,1,3.84,3.84,0,0,1,1.07,2.89V850Z" style="fill:#fff"/><path d="M388.9,841.43a3.56,3.56,0,0,1,2.52-.9,3.34,3.34,0,0,1,2.92,1.32V837a1.16,1.16,0,0,1,.14-0.7,0.77,0.77,0,0,1,1.26,0,1.16,1.16,0,0,1,.14.7V850a1.16,1.16,0,0,1-.14.7,0.77,0.77,0,0,1-1.26,0,1.16,1.16,0,0,1-.14-0.7v-0.29a3.31,3.31,0,0,1-2.92,1.36,3.56,3.56,0,0,1-2.52-.9c-1-1-1.28-2.73-1.28-4.39S387.85,842.48,388.9,841.43Zm2.85,8.31c2.26,0,2.59-1.91,2.59-3.93s-0.34-3.93-2.59-3.93-2.59,1.91-2.59,3.93S389.49,849.74,391.75,849.74Z" style="fill:#fff"/><path d="M411.87,850.21a3.56,3.56,0,0,1-2.52.9,3.35,3.35,0,0,1-2.92-1.32v4.87a1.16,1.16,0,0,1-.13.7,0.77,0.77,0,0,1-1.26,0,1.15,1.15,0,0,1-.14-0.7V841.6a1.15,1.15,0,0,1,.14-0.7,0.77,0.77,0,0,1,1.26,0,1.17,1.17,0,0,1,.13.7v0.29a3.31,3.31,0,0,1,2.92-1.37,3.56,3.56,0,0,1,2.52.9c1,1,1.28,2.73,1.28,4.39S412.92,849.16,411.87,850.21Zm-2.85-.46c2.26,0,2.59-1.91,2.59-3.93s-0.34-3.93-2.59-3.93-2.59,1.91-2.59,3.93S406.77,849.74,409,849.74Z" style="fill:#fff"/><path d="M416.28,841.6a1.2,1.2,0,0,1,.14-0.7,0.74,0.74,0,0,1,.63-0.33,0.73,0.73,0,0,1,.63.33,1.2,1.2,0,0,1,.14.7V847c0,1.84,1,2.75,2.53,2.75a2.43,2.43,0,0,0,2.58-2.75v-5.4a1.21,1.21,0,0,1,.14-0.7,0.77,0.77,0,0,1,1.26,0,1.2,1.2,0,0,1,.14.7V850a1.16,1.16,0,0,1-.14.7,0.77,0.77,0,0,1-1.26,0,1.16,1.16,0,0,1-.14-0.7v-0.19a3.79,3.79,0,0,1-2.9,1.26,3.7,3.7,0,0,1-2.68-1,3.84,3.84,0,0,1-1.07-2.89V841.6Z" style="fill:#fff"/><path d="M427.38,849.41a0.74,0.74,0,0,1,.24-0.53,0.65,0.65,0,0,1,.44-0.16,1.25,1.25,0,0,1,.69.29,4.38,4.38,0,0,0,2.72.78c1.75,0,2.75-.6,2.75-1.82,0-.92-0.55-1.4-1.72-1.5l-1.7-.16c-2-.18-3.09-1.07-3.09-2.77,0-1.88,1.59-3,3.8-3a6.21,6.21,0,0,1,2.89.65,1.36,1.36,0,0,1,.51.38,0.6,0.6,0,0,1,.12.39,0.73,0.73,0,0,1-.17.41,0.64,0.64,0,0,1-.48.22,1.21,1.21,0,0,1-.58-0.2,4.86,4.86,0,0,0-2.31-.56c-1.47,0-2.31.61-2.31,1.7,0,0.93.58,1.38,1.82,1.49l1.66,0.16c1.82,0.17,3,.85,3,2.8s-1.71,3.15-4.21,3.15a6,6,0,0,1-3.61-1A0.93,0.93,0,0,1,427.38,849.41Z" style="fill:#fff"/><path d="M440.08,850.74a0.77,0.77,0,0,1-1.26,0,1.15,1.15,0,0,1-.14-0.7V837a1.15,1.15,0,0,1,.14-0.7,0.77,0.77,0,0,1,1.26,0,1.17,1.17,0,0,1,.13.7v4.81a3.73,3.73,0,0,1,2.9-1.26,3.49,3.49,0,0,1,3.74,3.82V850a1.16,1.16,0,0,1-.13.7,0.77,0.77,0,0,1-1.26,0,1.15,1.15,0,0,1-.14-0.7V844.6c0-1.82-.95-2.71-2.52-2.71a2.4,2.4,0,0,0-2.58,2.71V850A1.16,1.16,0,0,1,440.08,850.74Z" style="fill:#fff"/><path d="M460.95,841.3a0.83,0.83,0,0,1,.76-0.74,0.75,0.75,0,0,1,.69.45,1.11,1.11,0,0,1-.06.75l-4.05,11.71a3,3,0,0,1-.73,1.24,2.61,2.61,0,0,1-1.9.7,1.17,1.17,0,0,1-.71-0.16,0.62,0.62,0,0,1-.23-0.52,0.65,0.65,0,0,1,.24-0.54,0.84,0.84,0,0,1,.56-0.15,1.5,1.5,0,0,0,1.56-1.27l0.65-2-3.16-9.06a1.11,1.11,0,0,1-.06-0.75,0.75,0.75,0,0,1,.69-0.45,0.83,0.83,0,0,1,.76.74l2.5,7.63Z" style="fill:#fff"/><path d="M471.37,841.7a7.3,7.3,0,0,1,0,8.23,4.34,4.34,0,0,1-5.94,0,7.3,7.3,0,0,1,0-8.23A4.34,4.34,0,0,1,471.37,841.7Zm-1.1,7.3a6.42,6.42,0,0,0,0-6.35,2.69,2.69,0,0,0-3.74,0,6.42,6.42,0,0,0,0,6.35A2.71,2.71,0,0,0,470.27,849Z" style="fill:#fff"/><path d="M475.78,841.6a1.22,1.22,0,0,1,.13-0.7,0.75,0.75,0,0,1,.63-0.33,0.72,0.72,0,0,1,.63.33,1.2,1.2,0,0,1,.14.7V847c0,1.84,1,2.75,2.53,2.75a2.43,2.43,0,0,0,2.58-2.75v-5.4a1.2,1.2,0,0,1,.14-0.7,0.77,0.77,0,0,1,1.26,0,1.2,1.2,0,0,1,.14.7V850a1.16,1.16,0,0,1-.14.7,0.77,0.77,0,0,1-1.26,0,1.16,1.16,0,0,1-.14-0.7v-0.19a3.79,3.79,0,0,1-2.9,1.26,3.7,3.7,0,0,1-2.68-1,3.84,3.84,0,0,1-1.07-2.89V841.6Z" style="fill:#fff"/><path d="M489.29,841.89a3.47,3.47,0,0,1,2.82-1.37A3.31,3.31,0,0,1,494,841a1,1,0,0,1,.58.78,0.8,0.8,0,0,1-.22.54,0.75,0.75,0,0,1-.53.22,1.5,1.5,0,0,1-.72-0.29,2.5,2.5,0,0,0-3.79,2.41V850a1.16,1.16,0,0,1-.14.7,0.77,0.77,0,0,1-1.26,0,1.16,1.16,0,0,1-.14-0.7v-8.45a1.16,1.16,0,0,1,.14-0.7,0.77,0.77,0,0,1,1.26,0,1.16,1.16,0,0,1,.14.7v0.3Z" style="fill:#fff"/><path d="M505.84,840.53a3.72,3.72,0,0,1,2.52.85,1.31,1.31,0,0,1,.73,1,0.72,0.72,0,0,1-.22.49,0.71,0.71,0,0,1-.47.19,1.19,1.19,0,0,1-.74-0.4,2.55,2.55,0,0,0-1.83-.75,2.74,2.74,0,0,0-2.36,1.14,6.07,6.07,0,0,0,0,5.55,2.75,2.75,0,0,0,2.36,1.16,2.5,2.5,0,0,0,1.83-.75,1.29,1.29,0,0,1,.74-0.4,0.71,0.71,0,0,1,.47.19,0.72,0.72,0,0,1,.22.49,1.38,1.38,0,0,1-.73,1,3.8,3.8,0,0,1-2.52.84c-2.63,0-4.57-1.76-4.57-5.29S503.2,840.53,505.84,840.53Z" style="fill:#fff"/><path d="M513.51,850.74a0.77,0.77,0,0,1-1.26,0,1.16,1.16,0,0,1-.14-0.7V837a1.16,1.16,0,0,1,.14-0.7,0.77,0.77,0,0,1,1.26,0,1.16,1.16,0,0,1,.14.7v4.81a3.72,3.72,0,0,1,2.9-1.26,3.49,3.49,0,0,1,3.74,3.82V850a1.16,1.16,0,0,1-.14.7,0.77,0.77,0,0,1-1.26,0,1.16,1.16,0,0,1-.14-0.7V844.6c0-1.82-.95-2.71-2.52-2.71a2.4,2.4,0,0,0-2.58,2.71V850A1.16,1.16,0,0,1,513.51,850.74Z" style="fill:#fff"/><path d="M526.68,845.06h3.13v-0.84c0-1.57-.73-2.38-2.54-2.38a3.05,3.05,0,0,0-2.34.91,1,1,0,0,1-.64.27,0.64,0.64,0,0,1-.46-0.19,0.67,0.67,0,0,1-.19-0.48,1.73,1.73,0,0,1,1-1.16,4.67,4.67,0,0,1,2.66-.67c2.67,0,4.05,1.2,4.05,3.45V850a1.16,1.16,0,0,1-.14.7,0.77,0.77,0,0,1-1.26,0,1.16,1.16,0,0,1-.14-0.7v0a3.7,3.7,0,0,1-3,1.09,3.77,3.77,0,0,1-2.94-.94,3,3,0,0,1-.79-2.11C523.11,846.24,524.43,845.06,526.68,845.06Zm0.32,4.76a3,3,0,0,0,2.28-.7,2.4,2.4,0,0,0,.54-1.8v-1.1h-3c-1.48,0-2.23.64-2.23,1.83S525.39,849.82,527,849.82Z" style="fill:#fff"/><path d="M543.2,850a1.2,1.2,0,0,1-.14.7,0.74,0.74,0,0,1-.63.33,0.73,0.73,0,0,1-.63-0.33,1.2,1.2,0,0,1-.14-0.7v-5.4c0-1.84-1-2.75-2.53-2.75a2.43,2.43,0,0,0-2.58,2.75V850a1.21,1.21,0,0,1-.13.7,0.77,0.77,0,0,1-1.26,0A1.2,1.2,0,0,1,535,850V841.6a1.15,1.15,0,0,1,.14-0.7,0.77,0.77,0,0,1,1.26,0,1.17,1.17,0,0,1,.13.7v0.19a3.79,3.79,0,0,1,2.9-1.26,3.7,3.7,0,0,1,2.68,1,3.84,3.84,0,0,1,1.07,2.89V850Z" style="fill:#fff"/><path d="M553,851.23v-1.65a3.35,3.35,0,0,1-2.92,1.38,3.59,3.59,0,0,1-2.52-.92c-1-1-1.26-2.62-1.26-4.3s0.23-3.28,1.26-4.3a3.64,3.64,0,0,1,2.54-.9,3.26,3.26,0,0,1,2.9,1.34V841.6a1.17,1.17,0,0,1,.13-0.7,0.77,0.77,0,0,1,1.26,0,1.15,1.15,0,0,1,.14.7v9.69a4.14,4.14,0,0,1-4.37,4.43,4.49,4.49,0,0,1-2.3-.5,1.93,1.93,0,0,1-1.09-1.13,0.68,0.68,0,0,1,.64-0.69,1.27,1.27,0,0,1,.77.39,2.94,2.94,0,0,0,2,.62C552.16,854.39,553,853,553,851.23Zm-2.58-9.34c-2.25,0-2.58,1.93-2.58,3.85s0.34,3.83,2.58,3.83,2.56-1.92,2.56-3.84S552.7,841.89,550.45,841.89Z" style="fill:#fff"/><path d="M559.31,846.21c0,2.26,1.07,3.58,3.06,3.58a3.39,3.39,0,0,0,2.22-.75,1.08,1.08,0,0,1,.71-0.37,0.69,0.69,0,0,1,.65.66,2,2,0,0,1-1.07,1.18,5.11,5.11,0,0,1-2.57.6c-2.74,0-4.52-1.64-4.52-5.29,0-3.41,1.66-5.29,4.26-5.29s4.22,1.91,4.24,4.79a0.94,0.94,0,0,1-.21.69,0.85,0.85,0,0,1-.67.2h-6.1Zm5.48-1.16a4.32,4.32,0,0,0-.33-1.68,2.66,2.66,0,0,0-4.83,0,4.29,4.29,0,0,0-.33,1.68h5.48Z" style="fill:#fff"/><path d="M568.59,849.41a0.74,0.74,0,0,1,.24-0.53,0.65,0.65,0,0,1,.44-0.16,1.25,1.25,0,0,1,.69.29,4.38,4.38,0,0,0,2.72.78c1.75,0,2.75-.6,2.75-1.82,0-.92-0.55-1.4-1.72-1.5l-1.7-.16c-2-.18-3.09-1.07-3.09-2.77,0-1.88,1.59-3,3.8-3a6.21,6.21,0,0,1,2.89.65,1.36,1.36,0,0,1,.51.38,0.6,0.6,0,0,1,.12.39,0.73,0.73,0,0,1-.17.41,0.64,0.64,0,0,1-.48.22,1.21,1.21,0,0,1-.58-0.2,4.86,4.86,0,0,0-2.31-.56c-1.47,0-2.31.61-2.31,1.7,0,0.93.58,1.38,1.82,1.49l1.66,0.16c1.82,0.17,3,.85,3,2.8s-1.71,3.15-4.21,3.15a6,6,0,0,1-3.61-1A0.93,0.93,0,0,1,568.59,849.41Z" style="fill:#fff"/><path d="M135.95,884a4.82,4.82,0,0,1-2.72-1.14,3.48,3.48,0,0,1-1.15-2.78c0-2.54,1.84-4.21,4.79-4.21a6.05,6.05,0,0,1,3.66,1,1.06,1.06,0,0,1,.62.82,0.66,0.66,0,0,1-.18.47,0.61,0.61,0,0,1-.5.23,1.51,1.51,0,0,1-.74-0.29,4.51,4.51,0,0,0-2.93-.89c-2,0-3.17,1.1-3.17,2.75a2.18,2.18,0,0,0,.69,1.75,3.54,3.54,0,0,0,2,.82l1.65,0.25a5,5,0,0,1,2.74,1,3.77,3.77,0,0,1,1.25,3c0,2.61-2.06,4.24-5.18,4.24a6.66,6.66,0,0,1-4.25-1.26,1.15,1.15,0,0,1-.67-0.91,0.76,0.76,0,0,1,.22-0.55,0.67,0.67,0,0,1,.49-0.2,1.4,1.4,0,0,1,.75.34,5.16,5.16,0,0,0,3.52,1.15c2.19,0,3.54-1,3.54-2.76a2.44,2.44,0,0,0-.72-1.88,3.25,3.25,0,0,0-2-.72Z" style="fill:#fff"/><path d="M144.93,881.6a1.2,1.2,0,0,1,.14-0.7,0.74,0.74,0,0,1,.63-0.33,0.73,0.73,0,0,1,.63.33,1.2,1.2,0,0,1,.14.7V887c0,1.84,1,2.75,2.53,2.75a2.43,2.43,0,0,0,2.58-2.75v-5.4a1.21,1.21,0,0,1,.14-0.7,0.77,0.77,0,0,1,1.26,0,1.2,1.2,0,0,1,.14.7V890a1.16,1.16,0,0,1-.14.7,0.77,0.77,0,0,1-1.26,0,1.16,1.16,0,0,1-.14-0.7v-0.19a3.79,3.79,0,0,1-2.9,1.26,3.7,3.7,0,0,1-2.68-1,3.84,3.84,0,0,1-1.07-2.89V881.6Z" style="fill:#fff"/><path d="M160.9,880.53a3.72,3.72,0,0,1,2.52.85,1.32,1.32,0,0,1,.74,1,0.7,0.7,0,0,1-.69.68,1.19,1.19,0,0,1-.73-0.4,2.56,2.56,0,0,0-1.83-.75,2.74,2.74,0,0,0-2.36,1.14,6.07,6.07,0,0,0,0,5.55,2.75,2.75,0,0,0,2.36,1.16,2.51,2.51,0,0,0,1.83-.75,1.29,1.29,0,0,1,.73-0.4,0.7,0.7,0,0,1,.69.68,1.38,1.38,0,0,1-.74,1,3.8,3.8,0,0,1-2.52.84c-2.63,0-4.57-1.76-4.57-5.29S158.26,880.53,160.9,880.53Z" style="fill:#fff"/><path d="M170.91,880.53a3.72,3.72,0,0,1,2.52.85,1.31,1.31,0,0,1,.73,1,0.72,0.72,0,0,1-.22.49,0.71,0.71,0,0,1-.47.19,1.19,1.19,0,0,1-.74-0.4,2.55,2.55,0,0,0-1.83-.75,2.74,2.74,0,0,0-2.36,1.14,6.07,6.07,0,0,0,0,5.55,2.75,2.75,0,0,0,2.36,1.16,2.5,2.5,0,0,0,1.83-.75,1.29,1.29,0,0,1,.74-0.4,0.71,0.71,0,0,1,.47.19,0.72,0.72,0,0,1,.22.49,1.38,1.38,0,0,1-.73,1,3.8,3.8,0,0,1-2.52.84c-2.63,0-4.57-1.76-4.57-5.29S168.28,880.53,170.91,880.53Z" style="fill:#fff"/><path d="M177.89,886.21c0,2.26,1.07,3.58,3.07,3.58a3.39,3.39,0,0,0,2.21-.75,1.08,1.08,0,0,1,.71-0.37,0.69,0.69,0,0,1,.65.66,2,2,0,0,1-1.07,1.18,5.11,5.11,0,0,1-2.57.6c-2.74,0-4.52-1.64-4.52-5.29,0-3.41,1.66-5.29,4.26-5.29s4.22,1.91,4.24,4.79a0.94,0.94,0,0,1-.21.69,0.84,0.84,0,0,1-.67.2h-6.1Zm5.48-1.16a4.3,4.3,0,0,0-.33-1.68,2.66,2.66,0,0,0-4.83,0,4.3,4.3,0,0,0-.33,1.68h5.48Z" style="fill:#fff"/><path d="M187.17,889.41a0.74,0.74,0,0,1,.24-0.53,0.65,0.65,0,0,1,.44-0.16,1.25,1.25,0,0,1,.69.29,4.37,4.37,0,0,0,2.72.78c1.75,0,2.75-.6,2.75-1.82,0-.92-0.54-1.4-1.72-1.5l-1.7-.16c-2-.18-3.09-1.07-3.09-2.77,0-1.88,1.58-3,3.8-3a6.2,6.2,0,0,1,2.89.65,1.38,1.38,0,0,1,.51.38,0.61,0.61,0,0,1,.12.39,0.73,0.73,0,0,1-.17.41,0.64,0.64,0,0,1-.48.22,1.22,1.22,0,0,1-.58-0.2,4.85,4.85,0,0,0-2.31-.56c-1.47,0-2.31.61-2.31,1.7,0,0.93.58,1.38,1.82,1.49l1.66,0.16c1.82,0.17,3,.85,3,2.8s-1.71,3.15-4.21,3.15a6,6,0,0,1-3.61-1A0.93,0.93,0,0,1,187.17,889.41Z" style="fill:#fff"/><path d="M201.89,880.65a1,1,0,0,1,.56.11,0.59,0.59,0,0,1,0,1,1,1,0,0,1-.56.1h-1.52V890a1.16,1.16,0,0,1-.14.7,0.77,0.77,0,0,1-1.26,0,1.16,1.16,0,0,1-.14-0.7v-8.21h-0.72a1,1,0,0,1-.56-0.1,0.59,0.59,0,0,1,0-1,1,1,0,0,1,.56-0.11h0.72v-1.89a2.52,2.52,0,0,1,2.63-2.77h0.27a1.3,1.3,0,0,1,.68.13,0.65,0.65,0,0,1,0,1.07,1.3,1.3,0,0,1-.68.13,1.28,1.28,0,0,0-1.36,1.5v1.84h1.52Z" style="fill:#fff"/><path d="M205,881.6a1.2,1.2,0,0,1,.14-0.7,0.74,0.74,0,0,1,.63-0.33,0.73,0.73,0,0,1,.63.33,1.22,1.22,0,0,1,.14.7V887c0,1.84,1,2.75,2.53,2.75a2.43,2.43,0,0,0,2.58-2.75v-5.4a1.2,1.2,0,0,1,.14-0.7,0.77,0.77,0,0,1,1.26,0,1.2,1.2,0,0,1,.14.7V890a1.16,1.16,0,0,1-.14.7,0.77,0.77,0,0,1-1.26,0,1.16,1.16,0,0,1-.14-0.7v-0.19a3.79,3.79,0,0,1-2.9,1.26,3.7,3.7,0,0,1-2.68-1,3.84,3.84,0,0,1-1.07-2.89V881.6Z" style="fill:#fff"/><path d="M218.46,888.16a1.28,1.28,0,0,0,1.36,1.5,1.3,1.3,0,0,1,.68.13,0.65,0.65,0,0,1,0,1.07,1.3,1.3,0,0,1-.68.13h-0.27a2.52,2.52,0,0,1-2.62-2.77V877a1.16,1.16,0,0,1,.14-0.7,0.77,0.77,0,0,1,1.26,0,1.16,1.16,0,0,1,.14.7v11.18Z" style="fill:#fff"/><path d="M224.44,888.16a1.28,1.28,0,0,0,1.37,1.5,1.3,1.3,0,0,1,.68.13,0.65,0.65,0,0,1,0,1.07,1.3,1.3,0,0,1-.68.13h-0.27a2.52,2.52,0,0,1-2.62-2.77V877a1.16,1.16,0,0,1,.14-0.7,0.77,0.77,0,0,1,1.26,0,1.16,1.16,0,0,1,.14.7v11.18Z" style="fill:#fff"/><path d="M233.71,881.3a0.83,0.83,0,0,1,.76-0.74,0.75,0.75,0,0,1,.69.45,1.11,1.11,0,0,1-.06.75L231,893.47a3,3,0,0,1-.73,1.24,2.62,2.62,0,0,1-1.9.7,1.17,1.17,0,0,1-.71-0.16,0.62,0.62,0,0,1-.23-0.52,0.65,0.65,0,0,1,.24-0.54,0.84,0.84,0,0,1,.56-0.15,1.5,1.5,0,0,0,1.56-1.27l0.65-2-3.16-9.06a1.11,1.11,0,0,1-.06-0.75,0.75,0.75,0,0,1,.69-0.45,0.83,0.83,0,0,1,.76.74l2.5,7.63Z" style="fill:#fff"/><path d="M243.65,881.43a3.56,3.56,0,0,1,2.52-.9,3.34,3.34,0,0,1,2.92,1.32V877a1.16,1.16,0,0,1,.14-0.7,0.77,0.77,0,0,1,1.26,0,1.16,1.16,0,0,1,.14.7V890a1.16,1.16,0,0,1-.14.7,0.77,0.77,0,0,1-1.26,0,1.16,1.16,0,0,1-.14-0.7v-0.29a3.31,3.31,0,0,1-2.92,1.36,3.56,3.56,0,0,1-2.52-.9c-1-1-1.28-2.73-1.28-4.39S242.6,882.48,243.65,881.43Zm2.84,8.31c2.26,0,2.59-1.91,2.59-3.93s-0.34-3.93-2.59-3.93-2.59,1.91-2.59,3.93S244.24,889.74,246.49,889.74Z" style="fill:#fff"/><path d="M255.36,886.21c0,2.26,1.07,3.58,3.06,3.58a3.39,3.39,0,0,0,2.22-.75,1.08,1.08,0,0,1,.71-0.37,0.69,0.69,0,0,1,.65.66,2,2,0,0,1-1.07,1.18,5.11,5.11,0,0,1-2.57.6c-2.74,0-4.52-1.64-4.52-5.29,0-3.41,1.66-5.29,4.26-5.29s4.22,1.91,4.24,4.79a0.94,0.94,0,0,1-.21.69,0.85,0.85,0,0,1-.67.2h-6.1Zm5.48-1.16a4.34,4.34,0,0,0-.33-1.68,2.66,2.66,0,0,0-4.83,0,4.3,4.3,0,0,0-.33,1.68h5.48Z" style="fill:#fff"/><path d="M272.5,890.21a3.56,3.56,0,0,1-2.52.9,3.34,3.34,0,0,1-2.92-1.32v4.87a1.16,1.16,0,0,1-.14.7,0.77,0.77,0,0,1-1.26,0,1.16,1.16,0,0,1-.14-0.7V881.6a1.16,1.16,0,0,1,.14-0.7,0.77,0.77,0,0,1,1.26,0,1.16,1.16,0,0,1,.14.7v0.29a3.31,3.31,0,0,1,2.92-1.37,3.56,3.56,0,0,1,2.52.9c1,1,1.28,2.73,1.28,4.39S273.55,889.16,272.5,890.21Zm-2.85-.46c2.26,0,2.59-1.91,2.59-3.93s-0.34-3.93-2.59-3.93-2.59,1.91-2.59,3.93S267.4,889.74,269.65,889.74Z" style="fill:#fff"/><path d="M278.51,888.16a1.28,1.28,0,0,0,1.37,1.5,1.29,1.29,0,0,1,.68.13,0.65,0.65,0,0,1,0,1.07,1.29,1.29,0,0,1-.68.13H279.6a2.52,2.52,0,0,1-2.62-2.77V877a1.16,1.16,0,0,1,.14-0.7,0.77,0.77,0,0,1,1.26,0,1.16,1.16,0,0,1,.14.7v11.18Z" style="fill:#fff"/><path d="M289.67,881.7a7.3,7.3,0,0,1,0,8.23,4.34,4.34,0,0,1-5.94,0,7.3,7.3,0,0,1,0-8.23A4.34,4.34,0,0,1,289.67,881.7Zm-1.1,7.3a6.42,6.42,0,0,0,0-6.35,2.69,2.69,0,0,0-3.74,0,6.42,6.42,0,0,0,0,6.35A2.71,2.71,0,0,0,288.56,889Z" style="fill:#fff"/><path d="M299.16,881.3a0.82,0.82,0,0,1,.76-0.74,0.75,0.75,0,0,1,.69.45,1.11,1.11,0,0,1-.06.75l-4.05,11.71a3,3,0,0,1-.73,1.24,2.61,2.61,0,0,1-1.9.7,1.17,1.17,0,0,1-.71-0.16,0.62,0.62,0,0,1-.23-0.52,0.65,0.65,0,0,1,.24-0.54,0.84,0.84,0,0,1,.56-0.15,1.5,1.5,0,0,0,1.56-1.27l0.65-2-3.16-9.06a1.12,1.12,0,0,1-.06-0.75,0.75,0.75,0,0,1,.69-0.45,0.83,0.83,0,0,1,.76.74l2.5,7.63Z" style="fill:#fff"/><path d="M304,886.21c0,2.26,1.07,3.58,3.06,3.58a3.39,3.39,0,0,0,2.22-.75,1.08,1.08,0,0,1,.71-0.37,0.69,0.69,0,0,1,.65.66,2,2,0,0,1-1.07,1.18,5.11,5.11,0,0,1-2.57.6c-2.74,0-4.52-1.64-4.52-5.29,0-3.41,1.66-5.29,4.26-5.29s4.22,1.91,4.24,4.79a0.94,0.94,0,0,1-.21.69,0.85,0.85,0,0,1-.67.2H304Zm5.48-1.16a4.34,4.34,0,0,0-.33-1.68,2.66,2.66,0,0,0-4.83,0,4.3,4.3,0,0,0-.33,1.68h5.48Z" style="fill:#fff"/><path d="M314.85,881.43a3.56,3.56,0,0,1,2.52-.9,3.34,3.34,0,0,1,2.92,1.32V877a1.16,1.16,0,0,1,.14-0.7,0.77,0.77,0,0,1,1.26,0,1.16,1.16,0,0,1,.14.7V890a1.16,1.16,0,0,1-.14.7,0.77,0.77,0,0,1-1.26,0,1.16,1.16,0,0,1-.14-0.7v-0.29a3.31,3.31,0,0,1-2.92,1.36,3.56,3.56,0,0,1-2.52-.9c-1.05-1-1.28-2.73-1.28-4.39S313.8,882.48,314.85,881.43Zm2.84,8.31c2.26,0,2.59-1.91,2.59-3.93s-0.34-3.93-2.59-3.93-2.59,1.91-2.59,3.93S315.44,889.74,317.69,889.74Z" style="fill:#fff"/><path d="M336,881.3a0.83,0.83,0,0,1,.76-0.74,0.76,0.76,0,0,1,.69.45,1.13,1.13,0,0,1-.06.75l-4.05,11.71a3,3,0,0,1-.74,1.24,2.61,2.61,0,0,1-1.9.7,1.17,1.17,0,0,1-.71-0.16,0.62,0.62,0,0,1-.23-0.52,0.65,0.65,0,0,1,.24-0.54,0.84,0.84,0,0,1,.56-0.15,1.5,1.5,0,0,0,1.56-1.27l0.65-2-3.16-9.06a1.13,1.13,0,0,1-.06-0.75,0.76,0.76,0,0,1,.69-0.45,0.83,0.83,0,0,1,.76.74l2.5,7.63Z" style="fill:#fff"/><path d="M346.46,881.7a7.3,7.3,0,0,1,0,8.23,4.34,4.34,0,0,1-5.94,0,7.3,7.3,0,0,1,0-8.23A4.34,4.34,0,0,1,346.46,881.7Zm-1.1,7.3a6.42,6.42,0,0,0,0-6.35,2.69,2.69,0,0,0-3.74,0,6.42,6.42,0,0,0,0,6.35A2.71,2.71,0,0,0,345.36,889Z" style="fill:#fff"/><path d="M350.86,881.6a1.2,1.2,0,0,1,.14-0.7,0.74,0.74,0,0,1,.63-0.33,0.73,0.73,0,0,1,.63.33,1.2,1.2,0,0,1,.14.7V887c0,1.84,1,2.75,2.53,2.75a2.43,2.43,0,0,0,2.58-2.75v-5.4a1.21,1.21,0,0,1,.14-0.7,0.77,0.77,0,0,1,1.26,0,1.21,1.21,0,0,1,.14.7V890a1.16,1.16,0,0,1-.14.7,0.77,0.77,0,0,1-1.26,0,1.16,1.16,0,0,1-.14-0.7v-0.19a3.79,3.79,0,0,1-2.9,1.26,3.7,3.7,0,0,1-2.68-1,3.84,3.84,0,0,1-1.07-2.89V881.6Z" style="fill:#fff"/><path d="M364.37,881.89a3.47,3.47,0,0,1,2.82-1.37,3.31,3.31,0,0,1,1.86.49,1,1,0,0,1,.58.78,0.8,0.8,0,0,1-.22.54,0.75,0.75,0,0,1-.53.22,1.5,1.5,0,0,1-.72-0.29,2.5,2.5,0,0,0-3.79,2.41V890a1.16,1.16,0,0,1-.14.7,0.77,0.77,0,0,1-1.26,0,1.16,1.16,0,0,1-.14-0.7v-8.45a1.16,1.16,0,0,1,.14-0.7,0.77,0.77,0,0,1,1.26,0,1.16,1.16,0,0,1,.14.7v0.3Z" style="fill:#fff"/><path d="M376.05,889.41a0.74,0.74,0,0,1,.24-0.53,0.65,0.65,0,0,1,.44-0.16,1.25,1.25,0,0,1,.69.29,4.37,4.37,0,0,0,2.72.78c1.75,0,2.75-.6,2.75-1.82,0-.92-0.55-1.4-1.72-1.5l-1.7-.16c-2-.18-3.09-1.07-3.09-2.77,0-1.88,1.59-3,3.8-3a6.21,6.21,0,0,1,2.89.65,1.36,1.36,0,0,1,.51.38,0.6,0.6,0,0,1,.12.39,0.73,0.73,0,0,1-.17.41,0.63,0.63,0,0,1-.48.22,1.21,1.21,0,0,1-.58-0.2,4.86,4.86,0,0,0-2.31-.56c-1.47,0-2.31.61-2.31,1.7,0,0.93.58,1.38,1.82,1.49l1.66,0.16c1.82,0.17,3,.85,3,2.8s-1.71,3.15-4.21,3.15a6,6,0,0,1-3.61-1A0.93,0.93,0,0,1,376.05,889.41Z" style="fill:#fff"/><path d="M388.17,875.74a1,1,0,1,1-1,1A1,1,0,0,1,388.17,875.74Zm0.77,14.3a1.16,1.16,0,0,1-.14.7,0.77,0.77,0,0,1-1.26,0,1.16,1.16,0,0,1-.14-0.7V881.6a1.16,1.16,0,0,1,.14-0.7,0.77,0.77,0,0,1,1.26,0,1.16,1.16,0,0,1,.14.7V890Z" style="fill:#fff"/><path d="M394.63,888.16a1.28,1.28,0,0,0,1.37,1.5,1.3,1.3,0,0,1,.68.13,0.65,0.65,0,0,1,0,1.07,1.3,1.3,0,0,1-.68.13h-0.27a2.52,2.52,0,0,1-2.62-2.77v-6.38h-0.72a0.94,0.94,0,0,1-.56-0.1,0.59,0.59,0,0,1,0-1,0.94,0.94,0,0,1,.56-0.11h0.72v-2.21a1.16,1.16,0,0,1,.14-0.7,0.77,0.77,0,0,1,1.26,0,1.16,1.16,0,0,1,.14.7v2.21h1.52a0.94,0.94,0,0,1,.56.11,0.59,0.59,0,0,1,0,1,0.94,0.94,0,0,1-.56.1h-1.52v6.33Z" style="fill:#fff"/><path d="M400.68,886.21c0,2.26,1.07,3.58,3.06,3.58A3.39,3.39,0,0,0,406,889a1.08,1.08,0,0,1,.71-0.37,0.69,0.69,0,0,1,.65.66,2,2,0,0,1-1.07,1.18,5.11,5.11,0,0,1-2.57.6c-2.74,0-4.52-1.64-4.52-5.29,0-3.41,1.66-5.29,4.26-5.29s4.22,1.91,4.24,4.79a0.94,0.94,0,0,1-.21.69,0.85,0.85,0,0,1-.67.2h-6.1Zm5.48-1.16a4.32,4.32,0,0,0-.33-1.68,2.66,2.66,0,0,0-4.83,0,4.29,4.29,0,0,0-.33,1.68h5.48Z" style="fill:#fff"/><path d="M417.92,888.16a1.28,1.28,0,0,0,1.36,1.5,1.3,1.3,0,0,1,.68.13,0.65,0.65,0,0,1,0,1.07,1.3,1.3,0,0,1-.68.13H419a2.52,2.52,0,0,1-2.62-2.77v-6.38h-0.72a1,1,0,0,1-.56-0.1,0.59,0.59,0,0,1,0-1,1,1,0,0,1,.56-0.11h0.72v-2.21a1.16,1.16,0,0,1,.14-0.7,0.77,0.77,0,0,1,1.26,0,1.16,1.16,0,0,1,.14.7v2.21h1.52a1,1,0,0,1,.56.11,0.59,0.59,0,0,1,0,1,1,1,0,0,1-.56.1h-1.52v6.33Z" style="fill:#fff"/><path d="M429.68,881.7a7.3,7.3,0,0,1,0,8.23,4.34,4.34,0,0,1-5.94,0,7.3,7.3,0,0,1,0-8.23A4.34,4.34,0,0,1,429.68,881.7Zm-1.1,7.3a6.42,6.42,0,0,0,0-6.35,2.69,2.69,0,0,0-3.74,0,6.42,6.42,0,0,0,0,6.35A2.71,2.71,0,0,0,428.58,889Z" style="fill:#fff"/><path d="M441.28,888.16a1.28,1.28,0,0,0,1.36,1.5,1.3,1.3,0,0,1,.68.13,0.65,0.65,0,0,1,0,1.07,1.3,1.3,0,0,1-.68.13h-0.27a2.52,2.52,0,0,1-2.62-2.77v-6.38H439a1,1,0,0,1-.56-0.1,0.59,0.59,0,0,1,0-1,1,1,0,0,1,.56-0.11h0.72v-2.21a1.16,1.16,0,0,1,.14-0.7,0.77,0.77,0,0,1,1.26,0,1.16,1.16,0,0,1,.14.7v2.21h1.52a1,1,0,0,1,.56.11,0.59,0.59,0,0,1,0,1,1,1,0,0,1-.56.1h-1.52v6.33Z" style="fill:#fff"/><path d="M447.88,890.74a0.77,0.77,0,0,1-1.26,0,1.16,1.16,0,0,1-.14-0.7V877a1.16,1.16,0,0,1,.14-0.7,0.77,0.77,0,0,1,1.26,0,1.16,1.16,0,0,1,.14.7v4.81a3.72,3.72,0,0,1,2.9-1.26,3.49,3.49,0,0,1,3.74,3.82V890a1.16,1.16,0,0,1-.14.7,0.77,0.77,0,0,1-1.26,0,1.16,1.16,0,0,1-.14-0.7V884.6c0-1.82-.95-2.71-2.52-2.71A2.4,2.4,0,0,0,448,884.6V890A1.16,1.16,0,0,1,447.88,890.74Z" style="fill:#fff"/><path d="M459.28,886.21c0,2.26,1.07,3.58,3.07,3.58a3.39,3.39,0,0,0,2.21-.75,1.08,1.08,0,0,1,.71-0.37,0.69,0.69,0,0,1,.65.66,2,2,0,0,1-1.07,1.18,5.11,5.11,0,0,1-2.57.6c-2.74,0-4.53-1.64-4.53-5.29,0-3.41,1.66-5.29,4.26-5.29s4.22,1.91,4.24,4.79a0.94,0.94,0,0,1-.21.69,0.84,0.84,0,0,1-.67.2h-6.1Zm5.48-1.16a4.32,4.32,0,0,0-.32-1.68,2.66,2.66,0,0,0-4.83,0,4.36,4.36,0,0,0-.33,1.68h5.48Z" style="fill:#fff"/><path d="M476.55,890a1.18,1.18,0,0,1-.15.76,0.82,0.82,0,0,1-1.32,0,1.18,1.18,0,0,1-.15-0.76V877a1.18,1.18,0,0,1,.15-0.76,0.82,0.82,0,0,1,1.32,0,1.18,1.18,0,0,1,.15.76V890Z" style="fill:#fff"/><path d="M488.79,890a1.2,1.2,0,0,1-.14.7,0.74,0.74,0,0,1-.63.33,0.73,0.73,0,0,1-.63-0.33,1.2,1.2,0,0,1-.14-0.7v-5.4c0-1.84-1-2.75-2.53-2.75a2.43,2.43,0,0,0-2.58,2.75V890a1.21,1.21,0,0,1-.13.7,0.77,0.77,0,0,1-1.26,0,1.2,1.2,0,0,1-.14-0.7V881.6a1.15,1.15,0,0,1,.14-0.7,0.77,0.77,0,0,1,1.26,0,1.17,1.17,0,0,1,.13.7v0.19a3.79,3.79,0,0,1,2.9-1.26,3.7,3.7,0,0,1,2.68,1,3.84,3.84,0,0,1,1.07,2.89V890Z" style="fill:#fff"/><path d="M494.33,888.16a1.28,1.28,0,0,0,1.37,1.5,1.3,1.3,0,0,1,.68.13,0.65,0.65,0,0,1,0,1.07,1.3,1.3,0,0,1-.68.13h-0.27a2.52,2.52,0,0,1-2.62-2.77v-6.38h-0.72a0.94,0.94,0,0,1-.56-0.1,0.59,0.59,0,0,1,0-1,0.94,0.94,0,0,1,.56-0.11h0.72v-2.21a1.16,1.16,0,0,1,.14-0.7,0.77,0.77,0,0,1,1.26,0,1.16,1.16,0,0,1,.14.7v2.21h1.52a0.94,0.94,0,0,1,.55.11,0.59,0.59,0,0,1,0,1,0.94,0.94,0,0,1-.55.1h-1.52v6.33Z" style="fill:#fff"/><path d="M500.38,886.21c0,2.26,1.07,3.58,3.06,3.58a3.39,3.39,0,0,0,2.22-.75,1.08,1.08,0,0,1,.71-0.37,0.69,0.69,0,0,1,.65.66,2,2,0,0,1-1.07,1.18,5.11,5.11,0,0,1-2.57.6c-2.74,0-4.52-1.64-4.52-5.29,0-3.41,1.66-5.29,4.26-5.29s4.22,1.91,4.24,4.79a0.94,0.94,0,0,1-.21.69,0.85,0.85,0,0,1-.67.2h-6.1Zm5.48-1.16a4.32,4.32,0,0,0-.33-1.68,2.66,2.66,0,0,0-4.83,0,4.29,4.29,0,0,0-.33,1.68h5.48Z" style="fill:#fff"/><path d="M512.07,881.89a3.47,3.47,0,0,1,2.82-1.37,3.31,3.31,0,0,1,1.86.49,1,1,0,0,1,.58.78,0.8,0.8,0,0,1-.22.54,0.74,0.74,0,0,1-.52.22,1.49,1.49,0,0,1-.72-0.29,2.5,2.5,0,0,0-3.79,2.41V890a1.16,1.16,0,0,1-.13.7,0.77,0.77,0,0,1-1.26,0,1.15,1.15,0,0,1-.14-0.7v-8.45a1.15,1.15,0,0,1,.14-0.7,0.77,0.77,0,0,1,1.26,0,1.16,1.16,0,0,1,.13.7v0.3Z" style="fill:#fff"/><path d="M527.58,890a1.2,1.2,0,0,1-.14.7,0.74,0.74,0,0,1-.63.33,0.73,0.73,0,0,1-.63-0.33A1.21,1.21,0,0,1,526,890v-5.4c0-1.84-1-2.75-2.53-2.75a2.43,2.43,0,0,0-2.58,2.75V890a1.2,1.2,0,0,1-.14.7,0.77,0.77,0,0,1-1.26,0,1.2,1.2,0,0,1-.14-0.7V881.6a1.16,1.16,0,0,1,.14-0.7,0.77,0.77,0,0,1,1.26,0,1.16,1.16,0,0,1,.14.7v0.19a3.79,3.79,0,0,1,2.9-1.26,3.7,3.7,0,0,1,2.68,1,3.84,3.84,0,0,1,1.07,2.89V890Z" style="fill:#fff"/><path d="M532.21,886.21c0,2.26,1.07,3.58,3.07,3.58a3.39,3.39,0,0,0,2.21-.75,1.08,1.08,0,0,1,.71-0.37,0.69,0.69,0,0,1,.65.66,2,2,0,0,1-1.07,1.18,5.11,5.11,0,0,1-2.57.6c-2.74,0-4.53-1.64-4.53-5.29,0-3.41,1.66-5.29,4.26-5.29s4.22,1.91,4.24,4.79a0.94,0.94,0,0,1-.21.69,0.84,0.84,0,0,1-.67.2h-6.1Zm5.48-1.16a4.32,4.32,0,0,0-.32-1.68,2.66,2.66,0,0,0-4.83,0,4.36,4.36,0,0,0-.33,1.68h5.48Z" style="fill:#fff"/><path d="M544.22,888.16a1.28,1.28,0,0,0,1.37,1.5,1.3,1.3,0,0,1,.68.13,0.65,0.65,0,0,1,0,1.07,1.3,1.3,0,0,1-.68.13h-0.27a2.52,2.52,0,0,1-2.62-2.77v-6.38H542a0.94,0.94,0,0,1-.56-0.1,0.59,0.59,0,0,1,0-1,0.94,0.94,0,0,1,.56-0.11h0.72v-2.21a1.16,1.16,0,0,1,.14-0.7,0.77,0.77,0,0,1,1.26,0,1.16,1.16,0,0,1,.14.7v2.21h1.52a0.94,0.94,0,0,1,.55.11,0.59,0.59,0,0,1,0,1,0.94,0.94,0,0,1-.55.1h-1.52v6.33Z" style="fill:#fff"/><path d="M551.17,888.94a1.06,1.06,0,1,1,0,2.11A1.06,1.06,0,0,1,551.17,888.94Zm-0.66-12.65a0.82,0.82,0,0,1,1.32,0,1.19,1.19,0,0,1,.15.76v8.72a1.19,1.19,0,0,1-.15.76,0.82,0.82,0,0,1-1.32,0,1.19,1.19,0,0,1-.15-0.76V877A1.19,1.19,0,0,1,550.51,876.29Z" style="fill:#fff"/><path id="check-mark-4-icon" d="M117.35,764.44a9.67,9.67,0,1,1-9.67-9.67A9.67,9.67,0,0,1,117.35,764.44Zm-1.88,0a7.8,7.8,0,1,0-7.8,7.8A7.79,7.79,0,0,0,115.47,764.44Zm-3.93-4.15-5.45,5.45-2.36-2.36L102,765.13l4.11,4.12,7.21-7.21Z" style="fill:#4e768d"/><path id="check-mark-4-icon-2" data-name="check-mark-4-icon" d="M117.35,804.68a9.67,9.67,0,1,1-9.67-9.67A9.67,9.67,0,0,1,117.35,804.68Zm-1.88,0a7.8,7.8,0,1,0-7.8,7.8A7.79,7.79,0,0,0,115.47,804.68Zm-3.93-4.15L106.08,806l-2.36-2.36L102,805.37l4.11,4.12,7.21-7.21Z" style="fill:#4e768d"/><path id="check-mark-4-icon-3" data-name="check-mark-4-icon" d="M117.35,844.47a9.67,9.67,0,1,1-9.67-9.67A9.67,9.67,0,0,1,117.35,844.47Zm-1.88,0a7.8,7.8,0,1,0-7.8,7.8A7.79,7.79,0,0,0,115.47,844.47Zm-3.93-4.15-5.45,5.45-2.36-2.36L102,845.17l4.11,4.12,7.21-7.21Z" style="fill:#4e768d"/><path id="check-mark-4-icon-4" data-name="check-mark-4-icon" d="M117.35,884.81a9.67,9.67,0,1,1-9.67-9.67A9.67,9.67,0,0,1,117.35,884.81Zm-1.88,0a7.8,7.8,0,1,0-7.8,7.8A7.79,7.79,0,0,0,115.47,884.81Zm-3.93-4.15-5.45,5.45-2.36-2.36L102,885.5l4.11,4.12,7.21-7.21Z" style="fill:#4e768d"/><path d="M104.07,716.06a5.51,5.51,0,0,1-3.11-1.31,4,4,0,0,1-1.32-3.18c0-2.9,2.1-4.81,5.47-4.81a6.9,6.9,0,0,1,4.19,1.2,1.21,1.21,0,0,1,.71.93,0.76,0.76,0,0,1-.2.54,0.7,0.7,0,0,1-.58.26,1.71,1.71,0,0,1-.84-0.34,5.15,5.15,0,0,0-3.35-1c-2.29,0-3.62,1.26-3.62,3.14a2.49,2.49,0,0,0,.79,2,4,4,0,0,0,2.29.94l1.88,0.29a5.67,5.67,0,0,1,3.13,1.19,4.31,4.31,0,0,1,1.43,3.38c0,3-2.35,4.85-5.91,4.85a7.61,7.61,0,0,1-4.86-1.44,1.31,1.31,0,0,1-.77-1,0.87,0.87,0,0,1,.25-0.62,0.77,0.77,0,0,1,.56-0.23,1.61,1.61,0,0,1,.85.38,5.89,5.89,0,0,0,4,1.32c2.51,0,4-1.15,4-3.15a2.78,2.78,0,0,0-.83-2.15,3.71,3.71,0,0,0-2.23-.83Z" style="fill:#4e768d"/><path d="M116.57,720.76a1.47,1.47,0,0,0,1.56,1.71,1.49,1.49,0,0,1,.78.14,0.74,0.74,0,0,1,0,1.22,1.49,1.49,0,0,1-.78.14h-0.31a2.88,2.88,0,0,1-3-3.17v-7.29H114a1.08,1.08,0,0,1-.64-0.12,0.67,0.67,0,0,1,0-1.1,1.08,1.08,0,0,1,.64-0.12h0.83v-2.53a1.33,1.33,0,0,1,.16-0.8,0.88,0.88,0,0,1,1.44,0,1.32,1.32,0,0,1,.16.8v2.53h1.74a1.08,1.08,0,0,1,.64.12,0.67,0.67,0,0,1,0,1.1,1.08,1.08,0,0,1-.64.12h-1.74v7.23Z" style="fill:#4e768d"/><path d="M123.49,718.53c0,2.58,1.22,4.09,3.5,4.09a3.87,3.87,0,0,0,2.53-.85,1.24,1.24,0,0,1,.82-0.42,0.79,0.79,0,0,1,.74.76,2.26,2.26,0,0,1-1.22,1.34,5.85,5.85,0,0,1-2.94.68c-3.13,0-5.17-1.87-5.17-6,0-3.9,1.9-6,4.87-6s4.82,2.18,4.85,5.47a1.07,1.07,0,0,1-.24.79,1,1,0,0,1-.77.23h-7Zm6.26-1.32a4.94,4.94,0,0,0-.37-1.92,3,3,0,0,0-5.52,0,4.94,4.94,0,0,0-.37,1.92h6.26Z" style="fill:#4e768d"/><path d="M143.07,723.1a4.07,4.07,0,0,1-2.88,1,3.82,3.82,0,0,1-3.33-1.51v5.57a1.33,1.33,0,0,1-.16.8,0.88,0.88,0,0,1-1.44,0,1.33,1.33,0,0,1-.16-0.8V713.27a1.33,1.33,0,0,1,.16-0.8,0.88,0.88,0,0,1,1.44,0,1.33,1.33,0,0,1,.16.8v0.34a3.78,3.78,0,0,1,3.33-1.56,4.07,4.07,0,0,1,2.88,1c1.2,1.2,1.46,3.12,1.46,5S144.27,721.9,143.07,723.1Zm-3.25-.53c2.58,0,3-2.18,3-4.49s-0.38-4.49-3-4.49-3,2.18-3,4.49S137.24,722.57,139.82,722.57Z" style="fill:#4e768d"/><path d="M154.09,722.09l6.13-7.93a4.56,4.56,0,0,0,1.13-3,2.67,2.67,0,0,0-2.91-2.83,2.78,2.78,0,0,0-3,2.29,1.79,1.79,0,0,1-.35.79,0.7,0.7,0,0,1-.59.25,0.74,0.74,0,0,1-.62-0.29,1,1,0,0,1-.19-0.62A4.25,4.25,0,0,1,155,708a4.74,4.74,0,0,1,3.41-1.24c2.83,0,4.68,1.62,4.68,4.38a5.87,5.87,0,0,1-1.58,3.95l-5.67,7.34h6.28a1.24,1.24,0,0,1,.73.14,0.72,0.72,0,0,1,.34.64,0.75,0.75,0,0,1-.34.65,1.36,1.36,0,0,1-.73.13h-7.21a1.45,1.45,0,0,1-1.14-.26,0.81,0.81,0,0,1-.21-0.58A1.79,1.79,0,0,1,154.09,722.09Z" style="fill:#4e768d"/><path d="M174.11,708.45a5.82,5.82,0,0,1,4.25-1.68,5.54,5.54,0,0,1,4.58,2.05A4.58,4.58,0,0,1,184,711.3a0.87,0.87,0,0,1-.24.67,0.84,0.84,0,0,1-.61.24,0.82,0.82,0,0,1-.56-0.19,1.75,1.75,0,0,1-.43-0.77,3.85,3.85,0,0,0-3.84-2.85,4,4,0,0,0-2.93,1.22c-1.09,1.12-1.2,2.38-1.2,5.83s0.11,4.71,1.2,5.83a4,4,0,0,0,2.93,1.22,3.85,3.85,0,0,0,3.84-2.85,1.75,1.75,0,0,1,.43-0.77,0.82,0.82,0,0,1,.56-0.19,0.84,0.84,0,0,1,.61.24,0.87,0.87,0,0,1,.24.67,4.58,4.58,0,0,1-1.09,2.48,5.54,5.54,0,0,1-4.58,2.05,5.82,5.82,0,0,1-4.25-1.68c-1.62-1.63-1.74-3.08-1.74-7S172.49,710.08,174.11,708.45Z" style="fill:#4e768d"/><path d="M195.64,713.39c1.22,1.25,1.45,2.88,1.45,4.7s-0.23,3.45-1.45,4.7a5,5,0,0,1-6.79,0c-1.22-1.25-1.45-2.89-1.45-4.7s0.23-3.45,1.45-4.7A5,5,0,0,1,195.64,713.39Zm-1.26,8.33c0.83-.83,1-2.27,1-3.63s-0.13-2.79-1-3.62a3.07,3.07,0,0,0-4.27,0c-0.83.83-1,2.25-1,3.62s0.13,2.81,1,3.63A3.1,3.1,0,0,0,194.38,721.72Z" style="fill:#4e768d"/><path d="M205.5,713.6a2.78,2.78,0,0,0-2.95,3.12v6.19a1.33,1.33,0,0,1-.16.8,0.88,0.88,0,0,1-1.44,0,1.33,1.33,0,0,1-.16-0.8v-9.64a1.33,1.33,0,0,1,.16-0.8,0.88,0.88,0,0,1,1.44,0,1.33,1.33,0,0,1,.16.8v0.22a4.3,4.3,0,0,1,3.33-1.44,3.89,3.89,0,0,1,3.62,2,4.52,4.52,0,0,1,3.89-2,4.3,4.3,0,0,1,3,1.1,4.36,4.36,0,0,1,1.3,3.29v6.48a1.33,1.33,0,0,1-.16.8,0.88,0.88,0,0,1-1.44,0,1.33,1.33,0,0,1-.16-0.8v-6.19c0-2.08-1.13-3.12-2.9-3.12a2.74,2.74,0,0,0-2.94,2.93v6.38a1.33,1.33,0,0,1-.16.8,0.88,0.88,0,0,1-1.44,0,1.33,1.33,0,0,1-.16-0.8v-6.19C208.39,714.65,207.28,713.6,205.5,713.6Z" style="fill:#4e768d"/><path d="M229.92,723.1a4.06,4.06,0,0,1-2.88,1,3.82,3.82,0,0,1-3.33-1.51v5.57a1.34,1.34,0,0,1-.16.8,0.88,0.88,0,0,1-1.44,0,1.32,1.32,0,0,1-.16-0.8V713.27a1.32,1.32,0,0,1,.16-0.8,0.88,0.88,0,0,1,1.44,0,1.33,1.33,0,0,1,.16.8v0.34A3.78,3.78,0,0,1,227,712a4.07,4.07,0,0,1,2.88,1c1.2,1.2,1.46,3.12,1.46,5S231.12,721.9,229.92,723.1Zm-3.25-.53c2.58,0,3-2.18,3-4.49s-0.38-4.49-3-4.49-3,2.18-3,4.49S224.09,722.57,226.67,722.57Z" style="fill:#4e768d"/><path d="M236.79,720.76a1.47,1.47,0,0,0,1.56,1.71,1.49,1.49,0,0,1,.78.14,0.74,0.74,0,0,1,0,1.22,1.49,1.49,0,0,1-.78.14H238a2.88,2.88,0,0,1-3-3.17V708a1.33,1.33,0,0,1,.16-0.8,0.88,0.88,0,0,1,1.44,0,1.33,1.33,0,0,1,.16.8v12.77Z" style="fill:#4e768d"/><path d="M243,718.53c0,2.58,1.22,4.09,3.5,4.09a3.87,3.87,0,0,0,2.53-.85,1.23,1.23,0,0,1,.82-0.42,0.79,0.79,0,0,1,.74.76,2.26,2.26,0,0,1-1.22,1.34,5.85,5.85,0,0,1-2.94.68c-3.13,0-5.17-1.87-5.17-6,0-3.9,1.89-6,4.87-6s4.82,2.18,4.85,5.47a1.07,1.07,0,0,1-.24.79,1,1,0,0,1-.77.23h-7Zm6.26-1.32a5,5,0,0,0-.37-1.92,3,3,0,0,0-5.52,0,5,5,0,0,0-.37,1.92h6.26Z" style="fill:#4e768d"/><path d="M256.74,720.76a1.46,1.46,0,0,0,1.56,1.71,1.49,1.49,0,0,1,.78.14,0.74,0.74,0,0,1,0,1.22,1.49,1.49,0,0,1-.78.14H258a2.88,2.88,0,0,1-3-3.17v-7.29h-0.83a1.08,1.08,0,0,1-.63-0.12,0.67,0.67,0,0,1,0-1.1,1.08,1.08,0,0,1,.63-0.12H255v-2.53a1.32,1.32,0,0,1,.16-0.8,0.88,0.88,0,0,1,1.44,0,1.33,1.33,0,0,1,.16.8v2.53h1.74a1.08,1.08,0,0,1,.63.12,0.67,0.67,0,0,1,0,1.1,1.08,1.08,0,0,1-.63.12h-1.74v7.23Z" style="fill:#4e768d"/><path d="M263.66,718.53c0,2.58,1.22,4.09,3.5,4.09a3.87,3.87,0,0,0,2.53-.85,1.23,1.23,0,0,1,.82-0.42,0.79,0.79,0,0,1,.74.76,2.26,2.26,0,0,1-1.22,1.34,5.86,5.86,0,0,1-2.94.68c-3.13,0-5.17-1.87-5.17-6,0-3.9,1.9-6,4.87-6s4.82,2.18,4.84,5.47a1.07,1.07,0,0,1-.24.79,1,1,0,0,1-.77.23h-7Zm6.26-1.32a4.92,4.92,0,0,0-.37-1.92,3,3,0,0,0-5.52,0,4.92,4.92,0,0,0-.37,1.92h6.26Z" style="fill:#4e768d"/><rect x="198.02" y="454.34" width="134.53" height="33.43" style="fill:none;stroke:#4e768d;stroke-miterlimit:10;stroke-dasharray:6"/><path d="M219.08,474.17a2.93,2.93,0,0,1-1.05,1.3,2.82,2.82,0,0,1-1.69.54,3.42,3.42,0,0,1-2.89-1.42,5.62,5.62,0,0,1-1.06-3.47,5.52,5.52,0,0,1,1.37-4.1,3.65,3.65,0,0,1,2.66-.95,3,3,0,0,1,2.66,1.6l0.05-1.31h1.63q-0.08,2.15-.08,5.72v2.58q0,3.11-1.35,4.24a5.44,5.44,0,0,1-2.94,1,19.78,19.78,0,0,1-2.29.11L214,478.84a11.56,11.56,0,0,0,2.75-.23,3.77,3.77,0,0,0,1.21-.51,2.54,2.54,0,0,0,.65-0.73,5.1,5.1,0,0,0,.5-2.56v-0.64Zm-0.76-6.09a1.94,1.94,0,0,0-.73-0.55,2.55,2.55,0,0,0-1.06-.21,2.51,2.51,0,0,0-1.06.21,2.12,2.12,0,0,0-1.16,1.33,5.91,5.91,0,0,0-.32,1.9,9.41,9.41,0,0,0,.08,1.43,3.42,3.42,0,0,0,.74,1.72,2,2,0,0,0,1.64.69,2.27,2.27,0,0,0,2.29-1.51,4.52,4.52,0,0,0,.33-1.71A11.91,11.91,0,0,0,219,470a5,5,0,0,0-.24-1A2.86,2.86,0,0,0,218.32,468.08Z" style="fill:#fff"/><path d="M224.32,467.6v-1.23h4.35v8.41h2.76V476H224v-1.23h3.06V467.6h-2.75Zm2.49-3.77V463a0.68,0.68,0,0,1,.36-0.56,1.15,1.15,0,0,1,1.42,0,0.68,0.68,0,0,1,.36.56v0.87a0.68,0.68,0,0,1-.36.56,1.16,1.16,0,0,1-1.42,0A0.68,0.68,0,0,1,226.81,463.83Z" style="fill:#fff"/><path d="M238,467.6v4.53a7.59,7.59,0,0,0,.09,1.34,1.61,1.61,0,0,0,.37.8,1.36,1.36,0,0,0,.72.41,5.35,5.35,0,0,0,1.2.11h1.77L242.06,476h-1.62q-2.49,0-3.31-.91a3.32,3.32,0,0,1-.66-1.92,14.28,14.28,0,0,1-.06-1.45V467.6h-2.72l0.18-1.23h2.55v-3.32l1.6-.47v3.8h4.06v1.23H238Z" style="fill:#fff"/><path d="M263.29,475.38a3.74,3.74,0,0,1-2.63.85,4.65,4.65,0,0,1-2-.42,4.07,4.07,0,0,1-1.47-1.12,5.45,5.45,0,0,1-1.21-3.56,5.67,5.67,0,0,1,.55-2.49,4.57,4.57,0,0,1,1.62-1.85,4.68,4.68,0,0,1,2.64-.71,3.39,3.39,0,0,1,2.44.83l-0.4,1.07a4,4,0,0,0-2.29-.68,2.56,2.56,0,0,0-2.11,1.09,4.41,4.41,0,0,0-.84,2.77,4.34,4.34,0,0,0,.84,2.75,2.61,2.61,0,0,0,2.14,1.07,3.88,3.88,0,0,0,2.3-.7Z" style="fill:#fff"/><path d="M273.83,467.49a6,6,0,0,1,1,3.67,5.66,5.66,0,0,1-1.13,3.67,3.75,3.75,0,0,1-3.08,1.4,4.15,4.15,0,0,1-1.85-.4,3.45,3.45,0,0,1-1.31-1.09,6.06,6.06,0,0,1-1-3.64,5.63,5.63,0,0,1,1.12-3.63,3.8,3.8,0,0,1,3.14-1.39A3.59,3.59,0,0,1,273.83,467.49ZM270.67,475a2.27,2.27,0,0,0,2.29-1.67,5.36,5.36,0,0,0,.33-1.84,11.83,11.83,0,0,0-.07-1.47,3.88,3.88,0,0,0-.76-2,2.14,2.14,0,0,0-1.78-.76,2.23,2.23,0,0,0-2.23,1.71,5.82,5.82,0,0,0-.32,1.92,6.73,6.73,0,0,0,.55,2.92A2,2,0,0,0,270.67,475Z" style="fill:#fff"/><path d="M282,467.58a2.06,2.06,0,0,1,2-1.49q1.84,0,2.07,2.65c0,0.33,0,.7,0,1.11V476h-1.47v-6a5.87,5.87,0,0,0-.23-2.15,1,1,0,0,0-.42-0.49,1.19,1.19,0,0,0-.42-0.07,1.14,1.14,0,0,0-1.1.86,5.78,5.78,0,0,0-.21,1.86v6h-1.34v-5.88a4.56,4.56,0,0,0-.46-2.52,0.82,0.82,0,0,0-.68-0.3,1,1,0,0,0-.76.39,3,3,0,0,0-.59,2V476H277v-9.64h1.27l0.1,1.27a3.19,3.19,0,0,1,.7-1.11,1.51,1.51,0,0,1,1.12-.45,1.72,1.72,0,0,1,1.14.4A2.08,2.08,0,0,1,282,467.58Z" style="fill:#fff"/><path d="M292.76,467.58a2.06,2.06,0,0,1,2-1.49q1.84,0,2.07,2.65c0,0.33,0,.7,0,1.11V476h-1.47v-6a5.87,5.87,0,0,0-.23-2.15,1,1,0,0,0-.42-0.49,1.19,1.19,0,0,0-.42-0.07,1.14,1.14,0,0,0-1.1.86,5.78,5.78,0,0,0-.21,1.86v6h-1.35v-5.88a4.56,4.56,0,0,0-.46-2.52,0.82,0.82,0,0,0-.68-0.3,1,1,0,0,0-.76.39,3,3,0,0,0-.59,2V476h-1.47v-9.64H289l0.1,1.27a3.19,3.19,0,0,1,.7-1.11,1.51,1.51,0,0,1,1.12-.45,1.72,1.72,0,0,1,1.14.4A2.08,2.08,0,0,1,292.76,467.58Z" style="fill:#fff"/><path d="M299.93,467.6v-1.23h4.35v8.41H307V476h-7.42v-1.23h3.06V467.6h-2.75Zm2.49-3.77V463a0.68,0.68,0,0,1,.36-0.56,1.15,1.15,0,0,1,1.42,0,0.68,0.68,0,0,1,.36.56v0.87a0.68,0.68,0,0,1-.36.56,1.16,1.16,0,0,1-1.42,0A0.68,0.68,0,0,1,302.42,463.83Z" style="fill:#fff"/><path d="M313.62,467.6v4.53a7.61,7.61,0,0,0,.09,1.34,1.61,1.61,0,0,0,.37.8,1.37,1.37,0,0,0,.72.41,5.35,5.35,0,0,0,1.2.11h1.77L317.67,476h-1.62q-2.49,0-3.31-.91a3.32,3.32,0,0,1-.66-1.92,14.35,14.35,0,0,1-.06-1.45V467.6h-2.72l0.18-1.23H312v-3.32l1.6-.47v3.8h4.06v1.23h-4.06Z" style="fill:#fff"/><rect x="198.02" y="378.32" width="134.53" height="33.43" style="fill:none;stroke:#4e768d;stroke-miterlimit:10;stroke-dasharray:6"/><rect x="167" y="63.03" width="192.06" height="264.86" style="fill:none;stroke:#4e768d;stroke-miterlimit:10;stroke-dasharray:6"/><path d="M229.88,398.15a2.93,2.93,0,0,1-1.05,1.3,2.82,2.82,0,0,1-1.69.54,3.42,3.42,0,0,1-2.89-1.42,5.62,5.62,0,0,1-1.06-3.47,5.52,5.52,0,0,1,1.37-4.1,3.66,3.66,0,0,1,2.66-.95,3,3,0,0,1,2.66,1.6l0.05-1.31h1.63q-0.08,2.15-.08,5.72v2.58q0,3.11-1.35,4.24a5.44,5.44,0,0,1-2.94,1,19.78,19.78,0,0,1-2.29.11l-0.13-1.23a11.55,11.55,0,0,0,2.75-.23,3.78,3.78,0,0,0,1.21-.51,2.54,2.54,0,0,0,.65-0.73,5.1,5.1,0,0,0,.5-2.56v-0.64Zm-0.76-6.1a1.94,1.94,0,0,0-.73-0.55,2.55,2.55,0,0,0-1.06-.21,2.5,2.5,0,0,0-1.06.21,2.12,2.12,0,0,0-1.16,1.33,5.91,5.91,0,0,0-.32,1.9,9.48,9.48,0,0,0,.08,1.43,3.41,3.41,0,0,0,.74,1.72,2,2,0,0,0,1.64.69,2.26,2.26,0,0,0,2.29-1.51,4.52,4.52,0,0,0,.33-1.71,11.92,11.92,0,0,0-.07-1.41,5,5,0,0,0-.24-1A2.86,2.86,0,0,0,229.12,392.05Z" style="fill:#fff"/><path d="M235.12,391.58v-1.23h4.35v8.41h2.76V400h-7.42v-1.23h3.06v-7.18h-2.75Zm2.49-3.77v-0.87a0.68,0.68,0,0,1,.36-0.56,1.16,1.16,0,0,1,1.42,0,0.68,0.68,0,0,1,.36.56v0.87a0.68,0.68,0,0,1-.36.56,1.15,1.15,0,0,1-1.42,0A0.68,0.68,0,0,1,237.61,387.81Z" style="fill:#fff"/><path d="M248.81,391.58v4.53a7.61,7.61,0,0,0,.09,1.34,1.61,1.61,0,0,0,.37.8,1.37,1.37,0,0,0,.72.41,5.35,5.35,0,0,0,1.2.11h1.77L252.86,400h-1.62q-2.49,0-3.31-.91a3.32,3.32,0,0,1-.66-1.92,14.35,14.35,0,0,1-.06-1.45v-4.12h-2.72l0.18-1.23h2.55V387l1.6-.47v3.8h4.06v1.23h-4.06Z" style="fill:#fff"/><path d="M271,400.21a3.16,3.16,0,0,1-1.65-.43,3,3,0,0,1-1.1-1.11v5l-1.6.18V390.35h1.6v1.33a3.41,3.41,0,0,1,1.13-1.17,2.89,2.89,0,0,1,1.59-.45,3.5,3.5,0,0,1,3.38,2,6.5,6.5,0,0,1,.63,3,6,6,0,0,1-1.33,4.18A3.43,3.43,0,0,1,271,400.21Zm-2.77-5.1q0,3.87,2.71,3.87,2.43,0,2.43-3.87a5,5,0,0,0-.65-3,2.16,2.16,0,0,0-1.81-.84q-2.25,0-2.6,2.6A8.57,8.57,0,0,0,268.27,395.12Z" style="fill:#fff"/><path d="M285.22,396.87q0,3.35-3.73,3.35t-3.73-3.35v-6.51h1.6V397a2,2,0,0,0,.51,1.5,3,3,0,0,0,3.23,0,2,2,0,0,0,.51-1.5v-6.65h1.6v6.51Z" style="fill:#fff"/><path d="M295.29,395.5a2.87,2.87,0,0,1,.58,1.93,2.46,2.46,0,0,1-1,2,3.76,3.76,0,0,1-2.41.76,7.81,7.81,0,0,1-2-.26,4.27,4.27,0,0,1-1.44-.61l0.4-1.15a5,5,0,0,0,1.17.46,6.19,6.19,0,0,0,1.74.23,2.56,2.56,0,0,0,1.49-.39,1.21,1.21,0,0,0,.56-1,1.69,1.69,0,0,0-.28-1,1.84,1.84,0,0,0-1.07-.57l-1.63-.4a3.14,3.14,0,0,1-1.88-1,2.87,2.87,0,0,1-.46-1.67,2.61,2.61,0,0,1,.81-1.85,3.19,3.19,0,0,1,2.37-.86h0.11a6.24,6.24,0,0,1,3,.66L295,391.85a6.6,6.6,0,0,0-2.6-.54,2.19,2.19,0,0,0-1.34.41,1.22,1.22,0,0,0-.52,1,1.35,1.35,0,0,0,.26.91,1.92,1.92,0,0,0,1,.48l1.68,0.41A3.42,3.42,0,0,1,295.29,395.5Z" style="fill:#fff"/><path d="M306.87,394.18V400h-1.6v-5.62a4.31,4.31,0,0,0-.48-2.44,1.71,1.71,0,0,0-1.46-.64,2.41,2.41,0,0,0-1.71.68,2,2,0,0,0-.72,1.46V400h-1.6V386.42l1.6-.18v5.28a3.61,3.61,0,0,1,3-1.46Q306.87,390.06,306.87,394.18Z" style="fill:#fff"/><path d="M722,344.13l4.53-6.86,1.69,0.46q-4.57,6.56-5.37,7.63l-1.08,1.46q-0.29.39-.63,0.79a4.61,4.61,0,0,1-.73.7,2.74,2.74,0,0,1-.7.41,2.88,2.88,0,0,1-.91.12,9.24,9.24,0,0,1-2.11-.41l0.18-1.35a10,10,0,0,0,1.37.32h0.46a0.85,0.85,0,0,0,.35-0.07l0.32-.16a5.55,5.55,0,0,0,1.41-1.7q-0.88-6.15-1.21-9.12l-0.11-1,1.67,0.46Z" style="fill:#7a98a9"/><path d="M737,341.3a6,6,0,0,1,0,3.82,5.66,5.66,0,0,1-2.07,3.24,3.75,3.75,0,0,1-3.34.54,4.15,4.15,0,0,1-1.68-.87,3.46,3.46,0,0,1-1-1.4,6.06,6.06,0,0,1,0-3.78,5.64,5.64,0,0,1,2-3.21,3.8,3.8,0,0,1,3.4-.51A3.59,3.59,0,0,1,737,341.3Zm-5,6.41a2.27,2.27,0,0,0,2.65-1,5.36,5.36,0,0,0,.8-1.69,11.83,11.83,0,0,0,.32-1.44,3.88,3.88,0,0,0-.22-2.08,2.14,2.14,0,0,0-1.52-1.2,2.23,2.23,0,0,0-2.6,1.05,5.82,5.82,0,0,0-.81,1.76,6.72,6.72,0,0,0-.24,3A2,2,0,0,0,731.95,347.71Z" style="fill:#7a98a9"/><path d="M746.54,349.52q-0.89,3.23-4.48,2.24t-2.71-4.22l1.72-6.28,1.54,0.42-1.76,6.42a2,2,0,0,0,.09,1.58,3,3,0,0,0,3.12.86,2,2,0,0,0,.89-1.31l1.76-6.42,1.54,0.42Z" style="fill:#7a98a9"/><path d="M753.8,354.76l-2.55-.7,0.7-2.55,2.55,0.7Z" style="fill:#7a98a9"/><path d="M765.75,356.13a2.93,2.93,0,0,1-1.36,1,2.82,2.82,0,0,1-1.77.08,3.42,3.42,0,0,1-2.41-2.14,5.61,5.61,0,0,1-.11-3.62,5.52,5.52,0,0,1,2.41-3.59,3.66,3.66,0,0,1,2.82-.21,3,3,0,0,1,2.14,2.25l0.4-1.25,1.57,0.43q-0.65,2.06-1.59,5.5L767.16,357q-0.82,3-2.43,3.73a5.44,5.44,0,0,1-3.11.22,19.78,19.78,0,0,1-2.23-.5l0.2-1.22a11.56,11.56,0,0,0,2.71.51,3.78,3.78,0,0,0,1.3-.17,2.54,2.54,0,0,0,.82-0.53,5.1,5.1,0,0,0,1.16-2.33Zm0.88-6.08a2,2,0,0,0-.56-0.73,2.55,2.55,0,0,0-1-.48,2.5,2.5,0,0,0-1.08-.08,2.12,2.12,0,0,0-1.47,1,5.89,5.89,0,0,0-.81,1.75,9.44,9.44,0,0,0-.3,1.4,3.42,3.42,0,0,0,.26,1.85,2,2,0,0,0,1.4,1.1,2.26,2.26,0,0,0,2.61-.85,4.52,4.52,0,0,0,.77-1.56,11.69,11.69,0,0,0,.31-1.38,5,5,0,0,0,0-1.06A2.9,2.9,0,0,0,766.64,350Z" style="fill:#7a98a9"/><path d="M772.54,351.18l0.33-1.19,4.2,1.15-2.23,8.11L777.5,360l-0.33,1.19-7.15-2,0.33-1.19,2.95,0.81,1.9-6.92Zm3.4-3,0.23-.84a0.68,0.68,0,0,1,.49-0.44,1.16,1.16,0,0,1,1.37.38,0.68,0.68,0,0,1,.2.63l-0.23.84a0.68,0.68,0,0,1-.49.44,1.16,1.16,0,0,1-1.37-.38A0.68,0.68,0,0,1,775.94,348.21Z" style="fill:#7a98a9"/><path d="M785.74,354.81l-1.2,4.36a7.5,7.5,0,0,0-.26,1.31,1.59,1.59,0,0,0,.14.87,1.36,1.36,0,0,0,.58.59,5.35,5.35,0,0,0,1.12.42l1.7,0.47L787.42,364l-1.56-.43q-2.4-.66-3-1.76a3.32,3.32,0,0,1-.13-2,14.31,14.31,0,0,1,.32-1.41l1.09-4-2.63-.72,0.5-1.14,2.46,0.68,0.88-3.2,1.67,0-1,3.66L790,354.7l-0.33,1.19Z" style="fill:#7a98a9"/><path d="M799.38,361.24l-1.54,5.61-1.54-.42,1.49-5.42a4.31,4.31,0,0,0,.18-2.48,1.71,1.71,0,0,0-1.24-1,2.42,2.42,0,0,0-1.83.2,2,2,0,0,0-1.09,1.22l-1.74,6.32-1.54-.42,3.6-13.09,1.59,0.25-1.4,5.09a3.61,3.61,0,0,1,3.29-.61Q800.47,357.28,799.38,361.24Z" style="fill:#7a98a9"/><path d="M809,366.69q-0.89,3.23-4.48,2.24t-2.71-4.22l1.72-6.28,1.54,0.42-1.76,6.42a2,2,0,0,0,.09,1.58,3,3,0,0,0,3.12.86,2,2,0,0,0,.89-1.31l1.76-6.42,1.54,0.42Z" style="fill:#7a98a9"/><path d="M815,362.95a3.19,3.19,0,0,1,3.25-.79,3.15,3.15,0,0,1,2.38,2.11,6.37,6.37,0,0,1-.06,3.65,5.93,5.93,0,0,1-2.38,3.69,3.36,3.36,0,0,1-2.76.3,2.86,2.86,0,0,1-1.48-.82,5.51,5.51,0,0,1-.8-1.4L812.79,371l-1.53-.42,3.6-13.09,1.59,0.25Zm-1.17,4.49a3.78,3.78,0,0,0,.2,2.07,2.39,2.39,0,0,0,4.11.12,5.92,5.92,0,0,0,.77-1.71,13.45,13.45,0,0,0,.33-1.44,3.77,3.77,0,0,0-.15-2.06,2.07,2.07,0,0,0-1.48-1.15,2.23,2.23,0,0,0-2.83,1.19,7.43,7.43,0,0,0-.63,1.58A13.22,13.22,0,0,0,813.84,367.44Z" style="fill:#7a98a9"/><path d="M826.71,374.78l-2.55-.7,0.7-2.55,2.55,0.7Z" style="fill:#7a98a9"/><path d="M835,368.35l0.33-1.19,4.2,1.15-2.23,8.11,2.66,0.73-0.33,1.19-7.15-2,0.33-1.19,2.95,0.81,1.9-6.92Zm3.4-3,0.23-.84a0.68,0.68,0,0,1,.49-0.44,1.16,1.16,0,0,1,1.37.38,0.68,0.68,0,0,1,.2.63l-0.23.84a0.68,0.68,0,0,1-.49.44,1.16,1.16,0,0,1-1.37-.38A0.68,0.68,0,0,1,838.44,365.37Z" style="fill:#7a98a9"/><path d="M851.56,372.77a6,6,0,0,1,0,3.82,5.66,5.66,0,0,1-2.07,3.24,3.75,3.75,0,0,1-3.34.54,4.15,4.15,0,0,1-1.68-.87,3.46,3.46,0,0,1-1-1.4,6.06,6.06,0,0,1,0-3.78,5.64,5.64,0,0,1,2-3.21,3.8,3.8,0,0,1,3.4-.51A3.59,3.59,0,0,1,851.56,372.77Zm-5,6.41a2.27,2.27,0,0,0,2.65-1,5.36,5.36,0,0,0,.8-1.69,11.83,11.83,0,0,0,.32-1.44,3.88,3.88,0,0,0-.22-2.08,2.14,2.14,0,0,0-1.52-1.2,2.23,2.23,0,0,0-2.6,1.05,5.82,5.82,0,0,0-.81,1.76,6.72,6.72,0,0,0-.24,3A2,2,0,0,0,846.52,379.18Z" style="fill:#7a98a9"/><path d="M715,165.38l0.49-8.2,1.69-.44q-0.68,8-.83,9.3l-0.21,1.8q-0.06.48-.15,1a4.61,4.61,0,0,1-.28,1,2.74,2.74,0,0,1-.4.7,2.88,2.88,0,0,1-.73.55,9.24,9.24,0,0,1-2,.7l-0.52-1.25a10,10,0,0,0,1.34-.41l0.4-.23a0.85,0.85,0,0,0,.27-0.23l0.19-.3a5.55,5.55,0,0,0,.37-2.18q-3.84-4.88-5.6-7.29l-0.61-.83,1.68-.44Z" style="fill:#7a98a9"/><path d="M726.57,155.43a6,6,0,0,1,1.94,3.29,5.66,5.66,0,0,1-.17,3.84,3.75,3.75,0,0,1-2.62,2.13,4.15,4.15,0,0,1-1.89.08,3.46,3.46,0,0,1-1.54-.72,6.06,6.06,0,0,1-1.9-3.26,5.64,5.64,0,0,1,.16-3.8,3.8,3.8,0,0,1,2.69-2.14A3.59,3.59,0,0,1,726.57,155.43Zm-1.16,8.07a2.27,2.27,0,0,0,1.79-2.19,5.36,5.36,0,0,0-.15-1.86,11.83,11.83,0,0,0-.44-1.41,3.88,3.88,0,0,0-1.23-1.7,2.14,2.14,0,0,0-1.91-.28,2.23,2.23,0,0,0-1.73,2.21,5.82,5.82,0,0,0,.18,1.93,6.72,6.72,0,0,0,1.27,2.69A2,2,0,0,0,725.41,163.51Z" style="fill:#7a98a9"/><path d="M739,157.77q0.85,3.24-2.76,4.18t-4.45-2.3l-1.65-6.3,1.55-.4,1.68,6.44a2,2,0,0,0,.87,1.33,3,3,0,0,0,3.13-.82,2,2,0,0,0,.11-1.58l-1.68-6.44,1.55-.4Z" style="fill:#7a98a9"/><path d="M747.86,158.68l-2.56.67-0.67-2.56,2.56-.67Z" style="fill:#7a98a9"/><path d="M758.89,153.89a2.93,2.93,0,0,1-.69,1.53,2.82,2.82,0,0,1-1.49,1,3.42,3.42,0,0,1-3.16-.64,5.61,5.61,0,0,1-1.91-3.09,5.52,5.52,0,0,1,.29-4.31,3.66,3.66,0,0,1,2.34-1.59,3,3,0,0,1,3,.87L757,146.33l1.57-.41q0.47,2.1,1.37,5.56l0.65,2.5q0.79,3-.24,4.44a5.44,5.44,0,0,1-2.58,1.75,19.78,19.78,0,0,1-2.18.69l-0.44-1.16a11.56,11.56,0,0,0,2.6-.92,3.78,3.78,0,0,0,1-.8,2.54,2.54,0,0,0,.44-0.87,5.1,5.1,0,0,0-.16-2.6Zm-2.28-5.71a2,2,0,0,0-.85-0.35,2.55,2.55,0,0,0-1.08.07,2.5,2.5,0,0,0-1,.47,2.12,2.12,0,0,0-.78,1.58,5.89,5.89,0,0,0,.17,1.92,9.44,9.44,0,0,0,.44,1.36,3.42,3.42,0,0,0,1.15,1.48,2,2,0,0,0,1.76.25,2.26,2.26,0,0,0,1.84-2,4.52,4.52,0,0,0-.11-1.74,11.69,11.69,0,0,0-.42-1.35,5,5,0,0,0-.49-0.94A2.9,2.9,0,0,0,756.62,148.18Z" style="fill:#7a98a9"/><path d="M762.3,146.21L762,145l4.21-1.1,2.13,8.14,2.67-.7,0.31,1.19-7.18,1.88-0.31-1.19,3-.77L765,145.51Zm1.45-4.28-0.22-.84a0.68,0.68,0,0,1,.2-0.63,1.16,1.16,0,0,1,1.37-.36,0.68,0.68,0,0,1,.48.45l0.22,0.84a0.68,0.68,0,0,1-.2.63,1.16,1.16,0,0,1-1.37.36A0.68,0.68,0,0,1,763.75,141.93Z" style="fill:#7a98a9"/><path d="M775.54,142.75l1.15,4.38a7.5,7.5,0,0,0,.43,1.27,1.59,1.59,0,0,0,.56.68,1.36,1.36,0,0,0,.8.22,5.35,5.35,0,0,0,1.18-.2l1.71-.45,0.23,1.21-1.56.41q-2.41.63-3.44,0a3.32,3.32,0,0,1-1.12-1.7,14.31,14.31,0,0,1-.43-1.39l-1-4-2.64.69-0.14-1.23,2.47-.64-0.84-3.21,1.43-.86,1,3.67,3.93-1,0.31,1.19Z" style="fill:#7a98a9"/><path d="M790.57,141.5l1.47,5.63-1.55.4-1.42-5.43a4.31,4.31,0,0,0-1.09-2.24,1.71,1.71,0,0,0-1.57-.25,2.42,2.42,0,0,0-1.48,1.09,2,2,0,0,0-.33,1.6l1.66,6.34-1.55.4-3.44-13.14,1.5-.57,1.34,5.11a3.61,3.61,0,0,1,2.55-2.17Q789.53,137.52,790.57,141.5Z" style="fill:#7a98a9"/><path d="M801.65,141.38q0.85,3.24-2.76,4.18t-4.45-2.3L792.8,137l1.55-.4L796,143a2,2,0,0,0,.87,1.33,3,3,0,0,0,3.13-.82,2,2,0,0,0,.11-1.58l-1.68-6.44,1.55-.4Z" style="fill:#7a98a9"/><path d="M805,135.15a3.19,3.19,0,0,1,2.42-2.3,3.15,3.15,0,0,1,3.12.64,6.37,6.37,0,0,1,1.77,3.19,5.93,5.93,0,0,1-.21,4.39,3.36,3.36,0,0,1-2.24,1.64,2.86,2.86,0,0,1-1.7,0,5.51,5.51,0,0,1-1.39-.81L807,143.2l-1.53.4-3.44-13.14,1.5-.57Zm1.23,4.47a3.78,3.78,0,0,0,1.21,1.69,2.39,2.39,0,0,0,3.61-2,5.92,5.92,0,0,0-.19-1.86,13.45,13.45,0,0,0-.43-1.42,3.77,3.77,0,0,0-1.16-1.71,2.07,2.07,0,0,0-1.86-.25,2.23,2.23,0,0,0-1.85,2.45,7.43,7.43,0,0,0,.25,1.68A13.22,13.22,0,0,0,806.19,139.63Z" style="fill:#7a98a9"/><path d="M821,139.55l-2.56.67-0.67-2.56,2.56-.67Z" style="fill:#7a98a9"/><path d="M825,129.81l-0.31-1.19,4.21-1.1,2.13,8.14,2.67-.7,0.31,1.19L826.83,138l-0.31-1.19,3-.77-1.82-6.95Zm1.45-4.28-0.22-.84a0.68,0.68,0,0,1,.2-0.63,1.16,1.16,0,0,1,1.37-.36,0.68,0.68,0,0,1,.48.45l0.22,0.84a0.68,0.68,0,0,1-.2.63,1.16,1.16,0,0,1-1.37.36A0.68,0.68,0,0,1,826.46,125.54Z" style="fill:#7a98a9"/><path d="M841.52,125.38a6,6,0,0,1,1.94,3.29,5.66,5.66,0,0,1-.17,3.84,3.75,3.75,0,0,1-2.62,2.13,4.15,4.15,0,0,1-1.89.08,3.46,3.46,0,0,1-1.54-.72,6.06,6.06,0,0,1-1.9-3.26,5.64,5.64,0,0,1,.16-3.8,3.8,3.8,0,0,1,2.69-2.14A3.59,3.59,0,0,1,841.52,125.38Zm-1.16,8.07a2.27,2.27,0,0,0,1.79-2.19,5.36,5.36,0,0,0-.15-1.86,11.83,11.83,0,0,0-.44-1.41,3.88,3.88,0,0,0-1.23-1.7,2.14,2.14,0,0,0-1.91-.28,2.23,2.23,0,0,0-1.73,2.21,5.82,5.82,0,0,0,.18,1.93,6.72,6.72,0,0,0,1.27,2.69A2,2,0,0,0,840.36,133.45Z" style="fill:#7a98a9"/><path d="M242.09,128.84a4,4,0,0,0-2.77-.95,3.06,3.06,0,0,0-1.64.46,3.56,3.56,0,0,0-1.2,1.22,7.23,7.23,0,0,0-.95,3.78,7.67,7.67,0,0,0,.85,3.74,3.21,3.21,0,0,0,1.1,1.2,2.69,2.69,0,0,0,1.48.44,3.83,3.83,0,0,0,1.32-.2,7.49,7.49,0,0,0,1.15-.57v-3.59h-2.91V133H243v5.68a11.21,11.21,0,0,1-2,1,5.86,5.86,0,0,1-2.14.36,4.53,4.53,0,0,1-2.21-.54,4.43,4.43,0,0,1-1.6-1.48,8.58,8.58,0,0,1-1.25-4.79,8.91,8.91,0,0,1,.41-2.76,6.31,6.31,0,0,1,1.13-2.13,5.13,5.13,0,0,1,1.71-1.35,4.82,4.82,0,0,1,2.14-.48,5.16,5.16,0,0,1,3.48,1.12Z" style="fill:#fff"/><path d="M245.92,131.46v-1.23h4.35v8.41H253v1.23h-7.42v-1.23h3.06v-7.18h-2.75Zm2.49-3.77v-0.87a0.68,0.68,0,0,1,.36-0.56,1.16,1.16,0,0,1,1.42,0,0.68,0.68,0,0,1,.36.56v0.87a0.68,0.68,0,0,1-.36.56,1.16,1.16,0,0,1-1.42,0A0.68,0.68,0,0,1,248.41,127.69Z" style="fill:#fff"/><path d="M259.6,131.46V136a7.5,7.5,0,0,0,.09,1.34,1.59,1.59,0,0,0,.37.8,1.36,1.36,0,0,0,.72.41,5.35,5.35,0,0,0,1.2.11h1.77l-0.09,1.23H262q-2.49,0-3.31-.91a3.32,3.32,0,0,1-.66-1.92,14.31,14.31,0,0,1-.06-1.45v-4.12h-2.72l0.18-1.23H258v-3.32l1.6-.47v3.8h4.06v1.23H259.6Z" style="fill:#fff"/><path d="M268.15,139.87h-1.64v-13.1h1.64v5.59h5.05v-5.59h1.64v13.1h-1.64V133.7h-5.05v6.17Z" style="fill:#fff"/><path d="M285.21,136.74q0,3.35-3.73,3.35t-3.73-3.35v-6.51h1.6v6.65a2,2,0,0,0,.51,1.5,3,3,0,0,0,3.23,0,2,2,0,0,0,.51-1.5v-6.65h1.6v6.51Z" style="fill:#fff"/><path d="M290,131.56a3.19,3.19,0,0,1,2.92-1.62,3.15,3.15,0,0,1,2.86,1.41,6.37,6.37,0,0,1,.91,3.53,5.93,5.93,0,0,1-1.32,4.19,3.36,3.36,0,0,1-2.58,1,2.86,2.86,0,0,1-1.65-.4,5.51,5.51,0,0,1-1.14-1.14l0,1.32h-1.58V126.29l1.6-.18v5.44ZM290,136.2a3.78,3.78,0,0,0,.74,1.94,2.39,2.39,0,0,0,4-1,5.92,5.92,0,0,0,.29-1.85,13.45,13.45,0,0,0-.06-1.48,3.77,3.77,0,0,0-.69-1.95,2.07,2.07,0,0,0-1.74-.72,2.23,2.23,0,0,0-2.41,1.9,7.43,7.43,0,0,0-.18,1.69A13.22,13.22,0,0,0,290,136.2Z" style="fill:#fff"/><path d="M210,150.36a3.79,3.79,0,0,1,.38,1.73q0,2.67-1.92,3.47a7.79,7.79,0,0,1-3,.5h-1.84v5.41H202v-13.1h3.49Q209,148.37,210,150.36Zm-6.37,4.39h2.28a3,3,0,0,0,2-.65,2.4,2.4,0,0,0,.75-1.92,2.35,2.35,0,0,0-.75-1.9,3,3,0,0,0-2-.63h-2.28v5.1Z" style="fill:#fff"/><path d="M218.73,154.83q0-2.07-1.75-2.07a9.65,9.65,0,0,0-1.82.19,7.54,7.54,0,0,0-1.4.37l-0.38-1.18a10.84,10.84,0,0,1,3.42-.61,4.16,4.16,0,0,1,2.57.73,2.64,2.64,0,0,1,1,2.25v7H219l-0.21-1.12a4.54,4.54,0,0,1-1.45,1,4.35,4.35,0,0,1-1.73.38,2.91,2.91,0,0,1-2-.73,2.66,2.66,0,0,1-.81-2.07,2.12,2.12,0,0,1,1.05-2,4.61,4.61,0,0,1,1.52-.6q0.81-.16,2.1-0.32l1.28-.15v-1Zm0,4.49v-2.46l-1.31.18a10.66,10.66,0,0,0-1.9.39,1.56,1.56,0,0,0-1.18,1.5,1.59,1.59,0,0,0,.42,1.16,1.55,1.55,0,0,0,1.16.43A3.79,3.79,0,0,0,218.73,159.32Z" style="fill:#fff"/><path d="M229.88,159.63a2.93,2.93,0,0,1-1.05,1.3,2.82,2.82,0,0,1-1.69.54,3.42,3.42,0,0,1-2.89-1.42,5.61,5.61,0,0,1-1.06-3.47,5.52,5.52,0,0,1,1.37-4.1,3.66,3.66,0,0,1,2.66-.95,3,3,0,0,1,2.66,1.6l0.05-1.31h1.63q-0.08,2.15-.08,5.72v2.58q0,3.11-1.35,4.24a5.44,5.44,0,0,1-2.94,1,19.78,19.78,0,0,1-2.29.11l-0.13-1.23a11.56,11.56,0,0,0,2.75-.23,3.78,3.78,0,0,0,1.21-.51,2.54,2.54,0,0,0,.65-0.73,5.1,5.1,0,0,0,.5-2.56v-0.64Zm-0.76-6.1a2,2,0,0,0-.73-0.55,2.55,2.55,0,0,0-1.06-.21,2.5,2.5,0,0,0-1.06.21,2.12,2.12,0,0,0-1.16,1.33,5.89,5.89,0,0,0-.32,1.9,9.44,9.44,0,0,0,.08,1.43,3.42,3.42,0,0,0,.74,1.72,2,2,0,0,0,1.64.69,2.26,2.26,0,0,0,2.29-1.51,4.52,4.52,0,0,0,.33-1.71,11.69,11.69,0,0,0-.07-1.41,5,5,0,0,0-.24-1A2.9,2.9,0,0,0,229.12,153.53Z" style="fill:#fff"/><path d="M236.47,161a4,4,0,0,1-1.5-1.81,6.48,6.48,0,0,1-.49-2.57,6.91,6.91,0,0,1,.45-2.57,4.27,4.27,0,0,1,1.35-1.84,3.17,3.17,0,0,1,2-.7,3.36,3.36,0,0,1,3,1.4,6,6,0,0,1,.95,3.44v0.54H236.1a4.76,4.76,0,0,0,.74,2.52,2.32,2.32,0,0,0,2.07,1,7.38,7.38,0,0,0,2.58-1l0.53,1.09a4.22,4.22,0,0,1-3.12,1.14A4.27,4.27,0,0,1,236.47,161Zm4.21-5.29q-0.18-3-2.07-3-2.14,0-2.45,3h4.53Z" style="fill:#fff"/><path d="M252.08,157a2.88,2.88,0,0,1,.58,1.93,2.46,2.46,0,0,1-1,2,3.76,3.76,0,0,1-2.41.76,7.84,7.84,0,0,1-2-.26,4.27,4.27,0,0,1-1.44-.61l0.4-1.15a5,5,0,0,0,1.17.46,6.18,6.18,0,0,0,1.74.23,2.56,2.56,0,0,0,1.49-.39,1.22,1.22,0,0,0,.56-1,1.7,1.7,0,0,0-.28-1,1.85,1.85,0,0,0-1.07-.57l-1.63-.4a3.13,3.13,0,0,1-1.88-1,2.87,2.87,0,0,1-.47-1.67,2.61,2.61,0,0,1,.81-1.85,3.19,3.19,0,0,1,2.37-.86h0.11a6.23,6.23,0,0,1,3,.66l-0.35,1.13a6.6,6.6,0,0,0-2.6-.54,2.19,2.19,0,0,0-1.34.41,1.22,1.22,0,0,0-.52,1,1.36,1.36,0,0,0,.26.91,1.92,1.92,0,0,0,1,.48l1.68,0.41A3.42,3.42,0,0,1,252.08,157Z" style="fill:#fff"/><path d="M267.14,159.18a5.12,5.12,0,0,0,3.35,1.15,2.05,2.05,0,0,0,1.63-.65,2.43,2.43,0,0,0,.57-1.67,2,2,0,0,0-.59-1.56,4.92,4.92,0,0,0-1.44-.87l-0.53-.21a10.79,10.79,0,0,1-2.07-1,4,4,0,0,1-.84-0.76,3.17,3.17,0,0,1-.62-2,3.11,3.11,0,0,1,1.12-2.55,4.41,4.41,0,0,1,2.87-.91,5.46,5.46,0,0,1,3.45,1l-0.62,1.27a4.35,4.35,0,0,0-2.75-.89,2.32,2.32,0,0,0-1.65.57,2,2,0,0,0-.61,1.58,1.91,1.91,0,0,0,1.12,1.67,10.68,10.68,0,0,0,1.28.57,17.07,17.07,0,0,1,1.71.78,4.25,4.25,0,0,1,1.44,1.21,3.14,3.14,0,0,1,.58,2,3.68,3.68,0,0,1-1.09,2.88,4.3,4.3,0,0,1-3,1,7,7,0,0,1-3.94-1Z" style="fill:#fff"/><path d="M279.68,161a4,4,0,0,1-1.5-1.81,6.48,6.48,0,0,1-.49-2.57,6.91,6.91,0,0,1,.45-2.57,4.27,4.27,0,0,1,1.35-1.84,3.17,3.17,0,0,1,2-.7,3.36,3.36,0,0,1,3,1.4,6,6,0,0,1,.95,3.44v0.54h-6.11a4.76,4.76,0,0,0,.74,2.52,2.32,2.32,0,0,0,2.07,1,7.38,7.38,0,0,0,2.58-1l0.53,1.09a4.22,4.22,0,0,1-3.12,1.14A4.27,4.27,0,0,1,279.68,161Zm4.21-5.29q-0.18-3-2.07-3-2.14,0-2.45,3h4.53Z" style="fill:#fff"/><path d="M291.66,161.47h-1.6v-9.64h1.31l0.13,1.78a4,4,0,0,1,1.55-1.55,4.43,4.43,0,0,1,2.17-.53H296V153h-1a3.62,3.62,0,0,0-2.43.77,2.89,2.89,0,0,0-.9,2.32v5.36Z" style="fill:#fff"/><path d="M303.12,159.81q0.76-2.08,2.82-8h1.78L304,161.47h-1.78l-3.73-9.64h1.85Z" style="fill:#fff"/><path d="M312.08,161a4,4,0,0,1-1.5-1.81,6.48,6.48,0,0,1-.49-2.57,6.91,6.91,0,0,1,.45-2.57,4.27,4.27,0,0,1,1.35-1.84,3.17,3.17,0,0,1,2-.7,3.36,3.36,0,0,1,3,1.4,6,6,0,0,1,.95,3.44v0.54h-6.11a4.76,4.76,0,0,0,.74,2.52,2.32,2.32,0,0,0,2.07,1,7.38,7.38,0,0,0,2.58-1l0.53,1.09a4.22,4.22,0,0,1-3.12,1.14A4.27,4.27,0,0,1,312.08,161Zm4.21-5.29q-0.18-3-2.07-3-2.14,0-2.45,3h4.53Z" style="fill:#fff"/><path d="M324.06,161.47h-1.6v-9.64h1.31l0.13,1.78a4,4,0,0,1,1.55-1.55,4.43,4.43,0,0,1,2.17-.53h0.77V153h-1a3.62,3.62,0,0,0-2.43.77,2.89,2.89,0,0,0-.9,2.32v5.36Z" style="fill:#fff"/></svg>